TwilioSansMono-LightItalic.ufo
<glyph name="exclam" format="2">
	<unicode hex="0021"/>
	<advance width="600"/>
	<outline>
		<contour>
			<point x="267" y="182" type="line"/>
			<point x="307" y="182" type="line"/>
			<point x="366" y="529" type="line"/>
			<point x="388" y="684" type="line"/>
			<point x="327" y="684" type="line"/>
			<point x="305" y="530" type="line"/>
		</contour>
		<contour>
			<point x="266" y="-12" type="curve" smooth="yes"/>
			<point x="304" y="-12"/>
			<point x="318" y="4"/>
			<point x="321" y="34" type="curve" smooth="yes"/>
			<point x="324" y="62"/>
			<point x="313" y="84"/>
			<point x="271" y="84" type="curve" smooth="yes"/>
			<point x="233" y="84"/>
			<point x="219" y="67"/>
			<point x="216" y="38" type="curve" smooth="yes"/>
			<point x="213" y="9"/>
			<point x="224" y="-12"/>
		</contour>
	</outline>
	<guideline x="23" y="44" angle="90"/>
	<guideline x="108" y="44" angle="90"/>
</glyph>
<glyph name="numbersign" format="2">
	<unicode hex="0023"/>
	<advance width="600"/>
	<outline>
		<contour>
			<point x="39" y="222" type="line"/>
			<point x="32" y="174" type="line"/>
			<point x="142" y="174" type="line"/>
			<point x="101" y="0" type="line"/>
			<point x="153" y="0" type="line"/>
			<point x="194" y="174" type="line"/>
			<point x="349" y="174" type="line"/>
			<point x="308" y="0" type="line"/>
			<point x="360" y="0" type="line"/>
			<point x="401" y="174" type="line"/>
			<point x="520" y="174" type="line"/>
			<point x="526" y="222" type="line"/>
			<point x="413" y="222" type="line"/>
			<point x="473" y="476" type="line"/>
			<point x="586" y="476" type="line"/>
			<point x="593" y="525" type="line"/>
			<point x="484" y="525" type="line"/>
			<point x="522" y="684" type="line"/>
			<point x="469" y="684" type="line"/>
			<point x="432" y="525" type="line"/>
			<point x="277" y="525" type="line"/>
			<point x="314" y="684" type="line"/>
			<point x="263" y="684" type="line"/>
			<point x="225" y="525" type="line"/>
			<point x="105" y="525" type="line"/>
			<point x="99" y="476" type="line"/>
			<point x="214" y="476" type="line"/>
			<point x="154" y="222" type="line"/>
		</contour>
		<contour>
			<point x="205" y="222" type="line"/>
			<point x="265" y="476" type="line"/>
			<point x="420" y="476" type="line"/>
			<point x="360" y="222" type="line"/>
		</contour>
	</outline>
</glyph>
<glyph name="dollar" format="2">
	<unicode hex="0024"/>
	<advance width="600"/>
	<outline>
		<contour>
			<point x="156" y="-93" type="line"/>
			<point x="206" y="-93" type="line"/>
			<point x="231" y="-8" type="line"/>
			<point x="248" y="-11"/>
			<point x="267" y="-12"/>
			<point x="285" y="-12" type="curve" smooth="yes"/>
			<point x="424" y="-12"/>
			<point x="529" y="67"/>
			<point x="529" y="199" type="curve" smooth="yes"/>
			<point x="529" y="310"/>
			<point x="451" y="336"/>
			<point x="338" y="363" type="curve"/>
			<point x="420" y="639" type="line"/>
			<point x="476" y="627"/>
			<point x="526" y="601"/>
			<point x="563" y="566" type="curve"/>
			<point x="571" y="621" type="line"/>
			<point x="534" y="652"/>
			<point x="489" y="674"/>
			<point x="434" y="686" type="curve"/>
			<point x="460" y="774" type="line"/>
			<point x="410" y="774" type="line"/>
			<point x="386" y="694" type="line"/>
			<point x="371" y="695"/>
			<point x="355" y="696"/>
			<point x="338" y="696" type="curve" smooth="yes"/>
			<point x="189" y="696"/>
			<point x="98" y="615"/>
			<point x="98" y="491" type="curve" smooth="yes"/>
			<point x="98" y="370"/>
			<point x="187" y="341"/>
			<point x="277" y="321" type="curve"/>
			<point x="198" y="49" type="line"/>
			<point x="143" y="65"/>
			<point x="94" y="95"/>
			<point x="56" y="140" type="curve"/>
			<point x="47" y="80" type="line"/>
			<point x="83" y="43"/>
			<point x="130" y="16"/>
			<point x="183" y="1" type="curve"/>
		</contour>
		<contour>
			<point x="154" y="497" type="curve" smooth="yes"/>
			<point x="154" y="591"/>
			<point x="222" y="649"/>
			<point x="335" y="649" type="curve" smooth="yes"/>
			<point x="347" y="649"/>
			<point x="360" y="648"/>
			<point x="372" y="647" type="curve"/>
			<point x="292" y="374" type="line"/>
			<point x="209" y="394"/>
			<point x="154" y="416"/>
		</contour>
		<contour>
			<point x="473" y="191" type="curve" smooth="yes"/>
			<point x="473" y="96"/>
			<point x="397" y="37"/>
			<point x="285" y="37" type="curve" smooth="yes"/>
			<point x="271" y="37"/>
			<point x="258" y="38"/>
			<point x="244" y="40" type="curve"/>
			<point x="323" y="311" type="line"/>
			<point x="412" y="292"/>
			<point x="473" y="275"/>
		</contour>
	</outline>
</glyph>
<glyph name="percent" format="2">
	<unicode hex="0025"/>
	<advance width="600"/>
	<outline>
		<contour>
			<point x="189" y="338" type="curve" smooth="yes"/>
			<point x="266" y="338"/>
			<point x="318" y="396"/>
			<point x="333" y="503" type="curve" smooth="yes"/>
			<point x="350" y="621"/>
			<point x="313" y="696"/>
			<point x="219" y="696" type="curve" smooth="yes"/>
			<point x="142" y="696"/>
			<point x="90" y="637"/>
			<point x="75" y="531" type="curve" smooth="yes"/>
			<point x="58" y="412"/>
			<point x="95" y="338"/>
		</contour>
		<contour>
			<point x="417" y="420" type="line"/>
			<point x="467" y="420" type="line"/>
			<point x="629" y="684" type="line"/>
			<point x="567" y="684" type="line"/>
		</contour>
		<contour>
			<point x="189" y="374" type="curve" smooth="yes"/>
			<point x="132" y="374"/>
			<point x="109" y="434"/>
			<point x="122" y="527" type="curve" smooth="yes"/>
			<point x="134" y="614"/>
			<point x="169" y="660"/>
			<point x="219" y="660" type="curve" smooth="yes"/>
			<point x="276" y="660"/>
			<point x="299" y="599"/>
			<point x="286" y="507" type="curve" smooth="yes"/>
			<point x="274" y="419"/>
			<point x="239" y="374"/>
		</contour>
		<contour>
			<point x="404" y="-12" type="curve" smooth="yes"/>
			<point x="481" y="-12"/>
			<point x="533" y="46"/>
			<point x="548" y="153" type="curve" smooth="yes"/>
			<point x="565" y="271"/>
			<point x="528" y="346"/>
			<point x="434" y="346" type="curve" smooth="yes"/>
			<point x="357" y="346"/>
			<point x="305" y="287"/>
			<point x="290" y="181" type="curve" smooth="yes"/>
			<point x="273" y="62"/>
			<point x="310" y="-12"/>
		</contour>
		<contour>
			<point x="404" y="24" type="curve" smooth="yes"/>
			<point x="347" y="24"/>
			<point x="324" y="84"/>
			<point x="337" y="177" type="curve" smooth="yes"/>
			<point x="349" y="264"/>
			<point x="384" y="310"/>
			<point x="434" y="310" type="curve" smooth="yes"/>
			<point x="491" y="310"/>
			<point x="514" y="249"/>
			<point x="501" y="157" type="curve" smooth="yes"/>
			<point x="489" y="69"/>
			<point x="454" y="24"/>
		</contour>
		<contour>
			<point x="-7" y="0" type="line"/>
			<point x="55" y="0" type="line"/>
			<point x="206" y="263" type="line"/>
			<point x="155" y="263" type="line"/>
		</contour>
	</outline>
</glyph>
<glyph name="quotesingle" format="2">
	<unicode hex="0027"/>
	<advance width="600"/>
	<outline>
		<contour>
			<point x="312" y="510" type="line"/>
			<point x="357" y="510" type="line"/>
			<point x="412" y="750" type="line"/>
			<point x="326" y="750" type="line"/>
		</contour>
	</outline>
</glyph>
<glyph name="asterisk" format="2">
	<unicode hex="002A"/>
	<advance width="600"/>
	<outline>
		<contour>
			<point x="100" y="174" type="line"/>
			<point x="286" y="286" type="line"/>
			<point x="245" y="83" type="line"/>
			<point x="309" y="83" type="line"/>
			<point x="325" y="286" type="line"/>
			<point x="477" y="175" type="line"/>
			<point x="517" y="230" type="line"/>
			<point x="349" y="320" type="line"/>
			<point x="543" y="411" type="line"/>
			<point x="519" y="466" type="line"/>
			<point x="334" y="354" type="line"/>
			<point x="374" y="556" type="line"/>
			<point x="310" y="556" type="line"/>
			<point x="295" y="353" type="line"/>
			<point x="140" y="466" type="line"/>
			<point x="100" y="411" type="line"/>
			<point x="270" y="320" type="line"/>
			<point x="76" y="229" type="line"/>
		</contour>
	</outline>
	<guideline x="274" y="545" angle="82" identifier="L2hbfAgl2F"/>
</glyph>
<glyph name="period" format="2">
	<unicode hex="002E"/>
	<advance width="600"/>
	<outline>
		<contour>
			<point x="266" y="-12" type="curve" smooth="yes"/>
			<point x="307" y="-12"/>
			<point x="323" y="6"/>
			<point x="327" y="37" type="curve" smooth="yes"/>
			<point x="332" y="71"/>
			<point x="320" y="95"/>
			<point x="272" y="95" type="curve" smooth="yes"/>
			<point x="231" y="95"/>
			<point x="215" y="77"/>
			<point x="211" y="46" type="curve" smooth="yes"/>
			<point x="206" y="12"/>
			<point x="218" y="-12"/>
		</contour>
	</outline>
	<guideline x="251" y="38" angle="82"/>
</glyph>
<glyph name="slash" format="2">
	<unicode hex="002F"/>
	<advance width="600"/>
	<outline>
		<contour>
			<point x="541" y="792" type="line"/>
			<point x="15" y="-163" type="line"/>
			<point x="73" y="-163" type="line"/>
			<point x="600" y="792" type="line"/>
		</contour>
	</outline>
</glyph>
<glyph name="zero" format="2">
	<unicode hex="0030"/>
	<advance width="600"/>
	<outline>
		<contour>
			<point x="279" y="-14" type="curve" smooth="yes"/>
			<point x="427" y="-14"/>
			<point x="517" y="111"/>
			<point x="544" y="302" type="curve" smooth="yes"/>
			<point x="546" y="316" type="line" smooth="yes"/>
			<point x="582" y="565"/>
			<point x="504" y="698"/>
			<point x="342" y="698" type="curve" smooth="yes"/>
			<point x="200" y="698"/>
			<point x="107" y="573"/>
			<point x="79" y="380" type="curve" smooth="yes"/>
			<point x="77" y="366" type="line" smooth="yes"/>
			<point x="42" y="119"/>
			<point x="117" y="-14"/>
		</contour>
		<contour>
			<point x="281" y="34" type="curve" smooth="yes"/>
			<point x="148" y="34"/>
			<point x="105" y="163"/>
			<point x="134" y="365" type="curve" smooth="yes"/>
			<point x="135" y="372" type="line" smooth="yes"/>
			<point x="161" y="552"/>
			<point x="232" y="650"/>
			<point x="340" y="650" type="curve" smooth="yes"/>
			<point x="473" y="650"/>
			<point x="518" y="521"/>
			<point x="489" y="321" type="curve" smooth="yes"/>
			<point x="488" y="314" type="line" smooth="yes"/>
			<point x="462" y="132"/>
			<point x="395" y="34"/>
		</contour>
		<contour>
			<point x="308" y="286" type="curve" smooth="yes"/>
			<point x="344" y="286"/>
			<point x="367" y="301"/>
			<point x="372" y="338" type="curve" smooth="yes"/>
			<point x="378" y="381"/>
			<point x="354" y="400"/>
			<point x="315" y="400" type="curve" smooth="yes"/>
			<point x="278" y="400"/>
			<point x="255" y="387"/>
			<point x="250" y="349" type="curve" smooth="yes"/>
			<point x="244" y="306"/>
			<point x="268" y="286"/>
		</contour>
	</outline>
	<guideline x="89" y="392" angle="82"/>
</glyph>
<glyph name="four" format="2">
	<unicode hex="0034"/>
	<advance width="600"/>
	<outline>
		<contour>
			<point x="366" y="0" type="line"/>
			<point x="420" y="0" type="line"/>
			<point x="441" y="151" type="line"/>
			<point x="529" y="151" type="line"/>
			<point x="536" y="200" type="line"/>
			<point x="449" y="200" type="line"/>
			<point x="517" y="688" type="line"/>
			<point x="446" y="688" type="line"/>
			<point x="30" y="200" type="line"/>
			<point x="23" y="151" type="line"/>
			<point x="387" y="151" type="line"/>
		</contour>
		<contour>
			<point x="92" y="200" type="line"/>
			<point x="454" y="621" type="line"/>
			<point x="394" y="200" type="line"/>
		</contour>
	</outline>
	<guideline x="486" y="694" angle="82"/>
	<guideline x="566" y="209" angle="82"/>
</glyph>
<glyph name="six" format="2">
	<unicode hex="0036"/>
	<advance width="600"/>
	<outline>
		<contour>
			<point x="289" y="-14" type="curve" smooth="yes"/>
			<point x="432" y="-14"/>
			<point x="529" y="87"/>
			<point x="529" y="240" type="curve" smooth="yes"/>
			<point x="529" y="364"/>
			<point x="452" y="438"/>
			<point x="326" y="438" type="curve" smooth="yes"/>
			<point x="239" y="438"/>
			<point x="166" y="403"/>
			<point x="126" y="309" type="curve"/>
			<point x="158" y="544"/>
			<point x="223" y="650"/>
			<point x="375" y="650" type="curve" smooth="yes"/>
			<point x="453" y="650"/>
			<point x="525" y="621"/>
			<point x="569" y="580" type="curve"/>
			<point x="577" y="635" type="line"/>
			<point x="539" y="665"/>
			<point x="469" y="698"/>
			<point x="377" y="698" type="curve" smooth="yes"/>
			<point x="199" y="698"/>
			<point x="106" y="567"/>
			<point x="79" y="377" type="curve" smooth="yes"/>
			<point x="77" y="363" type="line" smooth="yes"/>
			<point x="45" y="141"/>
			<point x="92" y="-14"/>
		</contour>
		<contour>
			<point x="292" y="34" type="curve" smooth="yes"/>
			<point x="190" y="34"/>
			<point x="127" y="98"/>
			<point x="127" y="204" type="curve" smooth="yes"/>
			<point x="127" y="318"/>
			<point x="198" y="391"/>
			<point x="316" y="391" type="curve" smooth="yes"/>
			<point x="415" y="391"/>
			<point x="473" y="338"/>
			<point x="473" y="234" type="curve" smooth="yes"/>
			<point x="473" y="111"/>
			<point x="403" y="34"/>
		</contour>
	</outline>
	<guideline x="561" y="238" angle="90"/>
	<guideline x="328" y="720" angle="90"/>
	<guideline x="76" y="363" angle="82"/>
</glyph>
<glyph name="eight" format="2">
	<unicode hex="0038"/>
	<advance width="600"/>
	<outline>
		<contour>
			<point x="277" y="-13" type="curve" smooth="yes"/>
			<point x="435" y="-13"/>
			<point x="532" y="68"/>
			<point x="532" y="200" type="curve" smooth="yes"/>
			<point x="532" y="279"/>
			<point x="486" y="331"/>
			<point x="402" y="348" type="curve"/>
			<point x="513" y="371"/>
			<point x="567" y="437"/>
			<point x="567" y="534" type="curve" smooth="yes"/>
			<point x="567" y="640"/>
			<point x="483" y="697"/>
			<point x="347" y="697" type="curve" smooth="yes"/>
			<point x="199" y="697"/>
			<point x="111" y="626"/>
			<point x="111" y="503" type="curve" smooth="yes"/>
			<point x="111" y="421"/>
			<point x="165" y="373"/>
			<point x="228" y="355" type="curve"/>
			<point x="109" y="340"/>
			<point x="46" y="272"/>
			<point x="46" y="164" type="curve" smooth="yes"/>
			<point x="46" y="40"/>
			<point x="149" y="-13"/>
		</contour>
		<contour>
			<point x="329" y="374" type="curve" smooth="yes"/>
			<point x="232" y="374"/>
			<point x="166" y="424"/>
			<point x="166" y="504" type="curve" smooth="yes"/>
			<point x="166" y="600"/>
			<point x="226" y="650"/>
			<point x="344" y="650" type="curve" smooth="yes"/>
			<point x="444" y="650"/>
			<point x="510" y="614"/>
			<point x="510" y="528" type="curve" smooth="yes"/>
			<point x="510" y="430"/>
			<point x="445" y="374"/>
		</contour>
		<contour>
			<point x="282" y="35" type="curve" smooth="yes"/>
			<point x="182" y="35"/>
			<point x="103" y="75"/>
			<point x="103" y="171" type="curve" smooth="yes"/>
			<point x="103" y="273"/>
			<point x="170" y="325"/>
			<point x="297" y="325" type="curve" smooth="yes"/>
			<point x="417" y="325"/>
			<point x="474" y="284"/>
			<point x="474" y="200" type="curve" smooth="yes"/>
			<point x="474" y="96"/>
			<point x="403" y="35"/>
		</contour>
	</outline>
	<guideline x="372" y="343" angle="90"/>
	<guideline x="359" y="681" angle="90"/>
	<guideline x="244" y="-10" angle="90"/>
	<guideline x="193" y="369" angle="0"/>
</glyph>
<glyph name="nine" format="2">
	<unicode hex="0039"/>
	<advance width="600"/>
	<outline>
		<contour>
			<point x="249" y="-14" type="curve" smooth="yes"/>
			<point x="430" y="-14"/>
			<point x="515" y="113"/>
			<point x="543" y="307" type="curve" smooth="yes"/>
			<point x="545" y="321" type="line" smooth="yes"/>
			<point x="580" y="569"/>
			<point x="519" y="698"/>
			<point x="335" y="698" type="curve" smooth="yes"/>
			<point x="193" y="698"/>
			<point x="94" y="594"/>
			<point x="94" y="442" type="curve" smooth="yes"/>
			<point x="94" y="319"/>
			<point x="172" y="246"/>
			<point x="298" y="246" type="curve" smooth="yes"/>
			<point x="381" y="246"/>
			<point x="457" y="279"/>
			<point x="498" y="381" type="curve"/>
			<point x="465" y="138"/>
			<point x="405" y="35"/>
			<point x="251" y="35" type="curve" smooth="yes"/>
			<point x="174" y="35"/>
			<point x="104" y="60"/>
			<point x="53" y="121" type="curve"/>
			<point x="46" y="66" type="line"/>
			<point x="88" y="17"/>
			<point x="163" y="-14"/>
		</contour>
		<contour>
			<point x="310" y="293" type="curve" smooth="yes"/>
			<point x="217" y="293"/>
			<point x="150" y="340"/>
			<point x="150" y="449" type="curve" smooth="yes"/>
			<point x="150" y="574"/>
			<point x="220" y="650"/>
			<point x="334" y="650" type="curve" smooth="yes"/>
			<point x="434" y="650"/>
			<point x="495" y="588"/>
			<point x="495" y="480" type="curve" smooth="yes"/>
			<point x="495" y="368"/>
			<point x="420" y="293"/>
		</contour>
	</outline>
</glyph>
<glyph name="less" format="2">
	<unicode hex="003C"/>
	<advance width="600"/>
	<outline>
		<contour>
			<point x="491" y="61" type="line"/>
			<point x="500" y="118" type="line"/>
			<point x="139" y="313" type="line"/>
			<point x="554" y="509" type="line"/>
			<point x="563" y="570" type="line"/>
			<point x="92" y="345" type="line"/>
			<point x="84" y="286" type="line"/>
		</contour>
	</outline>
</glyph>
<glyph name="greater" format="2">
	<unicode hex="003E"/>
	<advance width="600"/>
	<outline>
		<contour>
			<point x="52" y="61" type="line"/>
			<point x="523" y="286" type="line"/>
			<point x="531" y="345" type="line"/>
			<point x="124" y="570" type="line"/>
			<point x="115" y="514" type="line"/>
			<point x="476" y="318" type="line"/>
			<point x="61" y="124" type="line"/>
		</contour>
	</outline>
</glyph>
<glyph name="question" format="2">
	<unicode hex="003F"/>
	<advance width="600"/>
	<outline>
		<contour>
			<point x="239" y="182" type="curve"/>
			<point x="287" y="182" type="line"/>
			<point x="291" y="219" type="line" smooth="yes"/>
			<point x="309" y="385"/>
			<point x="523" y="389"/>
			<point x="523" y="549" type="curve" smooth="yes"/>
			<point x="523" y="636"/>
			<point x="467" y="698"/>
			<point x="336" y="698" type="curve" smooth="yes"/>
			<point x="269" y="698"/>
			<point x="207" y="680"/>
			<point x="154" y="647" type="curve"/>
			<point x="146" y="589" type="line"/>
			<point x="194" y="625"/>
			<point x="258" y="650"/>
			<point x="333" y="650" type="curve" smooth="yes"/>
			<point x="421" y="650"/>
			<point x="467" y="613"/>
			<point x="467" y="543" type="curve" smooth="yes"/>
			<point x="467" y="405"/>
			<point x="267" y="415"/>
			<point x="242" y="226" type="curve" smooth="yes"/>
			<point x="239" y="203"/>
			<point x="239" y="184"/>
		</contour>
		<contour>
			<point x="248" y="-12" type="curve" smooth="yes"/>
			<point x="286" y="-12"/>
			<point x="300" y="4"/>
			<point x="303" y="32" type="curve" smooth="yes"/>
			<point x="306" y="62"/>
			<point x="295" y="84"/>
			<point x="253" y="84" type="curve" smooth="yes"/>
			<point x="215" y="84"/>
			<point x="201" y="67"/>
			<point x="198" y="40" type="curve" smooth="yes"/>
			<point x="195" y="9"/>
			<point x="206" y="-12"/>
		</contour>
	</outline>
	<guideline x="218" y="191" angle="82"/>
	<guideline x="299" y="191" angle="0"/>
	<guideline x="289" y="32" angle="82"/>
</glyph>
<glyph name="B" format="2">
	<unicode hex="0042"/>
	<advance width="600"/>
	<outline>
		<contour>
			<point x="371" y="684" type="curve" smooth="yes"/>
			<point x="149" y="684" type="line"/>
			<point x="53" y="0" type="line"/>
			<point x="312" y="0" type="line" smooth="yes"/>
			<point x="435" y="0"/>
			<point x="521" y="70"/>
			<point x="521" y="193" type="curve" smooth="yes"/>
			<point x="521" y="276"/>
			<point x="484" y="328"/>
			<point x="402" y="347" type="curve"/>
			<point x="496" y="364"/>
			<point x="554" y="427"/>
			<point x="554" y="521" type="curve" smooth="yes"/>
			<point x="554" y="612"/>
			<point x="502" y="684"/>
		</contour>
		<contour>
			<point x="365" y="635" type="line" smooth="yes"/>
			<point x="455" y="635"/>
			<point x="498" y="595"/>
			<point x="498" y="513" type="curve" smooth="yes"/>
			<point x="498" y="420"/>
			<point x="434" y="371"/>
			<point x="336" y="371" type="curve" smooth="yes"/>
			<point x="160" y="371" type="line"/>
			<point x="196" y="635" type="line"/>
		</contour>
		<contour>
			<point x="321" y="322" type="line" smooth="yes"/>
			<point x="430" y="322"/>
			<point x="464" y="270"/>
			<point x="464" y="193" type="curve" smooth="yes"/>
			<point x="464" y="102"/>
			<point x="410" y="50"/>
			<point x="310" y="50" type="curve" smooth="yes"/>
			<point x="115" y="50" type="line"/>
			<point x="153" y="322" type="line"/>
		</contour>
	</outline>
	<anchor name="bottom" x="299" y="0"/>
	<anchor name="top" x="390" y="684"/>
	<guideline x="566" y="534" angle="0"/>
	<guideline x="53" y="0" angle="82"/>
</glyph>
<glyph name="C" format="2">
	<unicode hex="0043"/>
	<advance width="600"/>
	<outline>
		<contour>
			<point x="358" y="-12" type="curve" smooth="yes"/>
			<point x="418" y="-12"/>
			<point x="458" y="-1"/>
			<point x="493" y="16" type="curve"/>
			<point x="501" y="69" type="line"/>
			<point x="460" y="47"/>
			<point x="412" y="37"/>
			<point x="362" y="37" type="curve" smooth="yes"/>
			<point x="177" y="37"/>
			<point x="121" y="206"/>
			<point x="145" y="371" type="curve" smooth="yes"/>
			<point x="146" y="378" type="line" smooth="yes"/>
			<point x="169" y="542"/>
			<point x="253" y="646"/>
			<point x="405" y="646" type="curve" smooth="yes"/>
			<point x="467" y="646"/>
			<point x="526" y="628"/>
			<point x="571" y="594" type="curve"/>
			<point x="579" y="650" type="line"/>
			<point x="537" y="676"/>
			<point x="475" y="695"/>
			<point x="406" y="695" type="curve" smooth="yes"/>
			<point x="219" y="695"/>
			<point x="116" y="570"/>
			<point x="90" y="390" type="curve" smooth="yes"/>
			<point x="88" y="376" type="line" smooth="yes"/>
			<point x="60" y="183"/>
			<point x="128" y="-12"/>
		</contour>
	</outline>
	<anchor name="bottom" x="320" y="0"/>
	<anchor name="top" x="426" y="684"/>
	<guideline x="583" y="485" angle="90"/>
	<guideline x="92" y="401" angle="79.7255"/>
</glyph>
<glyph name="D" format="2">
	<unicode hex="0044"/>
	<advance width="600"/>
	<outline>
		<contour>
			<point x="44" y="0" type="line"/>
			<point x="255" y="0" type="line" smooth="yes"/>
			<point x="398" y="0"/>
			<point x="516" y="86"/>
			<point x="546" y="297" type="curve" smooth="yes"/>
			<point x="549" y="318" type="line" smooth="yes"/>
			<point x="582" y="550"/>
			<point x="480" y="684"/>
			<point x="309" y="684" type="curve" smooth="yes"/>
			<point x="140" y="684" type="line"/>
		</contour>
		<contour>
			<point x="306" y="635" type="line" smooth="yes"/>
			<point x="441" y="635"/>
			<point x="521" y="530"/>
			<point x="491" y="319" type="curve" smooth="yes"/>
			<point x="489" y="305" type="line" smooth="yes"/>
			<point x="466" y="144"/>
			<point x="391" y="49"/>
			<point x="255" y="49" type="curve" smooth="yes"/>
			<point x="105" y="49" type="line"/>
			<point x="187" y="635" type="line"/>
		</contour>
	</outline>
	<anchor name="bottom" x="286" y="0"/>
	<anchor name="center" x="168" y="342"/>
	<anchor name="top" x="321" y="684"/>
	<guideline x="133" y="423" angle="90"/>
	<guideline x="602" y="335" angle="82"/>
</glyph>
<glyph name="H" format="2">
	<unicode hex="0048"/>
	<advance width="600"/>
	<outline>
		<contour>
			<point x="48" y="0" type="line"/>
			<point x="103" y="0" type="line"/>
			<point x="148" y="320" type="line"/>
			<point x="468" y="320" type="line"/>
			<point x="423" y="0" type="line"/>
			<point x="478" y="0" type="line"/>
			<point x="574" y="684" type="line"/>
			<point x="519" y="684" type="line"/>
			<point x="475" y="369" type="line"/>
			<point x="155" y="369" type="line"/>
			<point x="199" y="684" type="line"/>
			<point x="144" y="684" type="line"/>
		</contour>
	</outline>
	<anchor name="bottom" x="264" y="0"/>
	<anchor name="center" x="336" y="517"/>
	<anchor name="top" x="359" y="684"/>
</glyph>
<glyph name="L" format="2">
	<unicode hex="004C"/>
	<advance width="600"/>
	<outline>
		<contour>
			<point x="70" y="0" type="line"/>
			<point x="492" y="0" type="line"/>
			<point x="500" y="50" type="line"/>
			<point x="132" y="50" type="line"/>
			<point x="220" y="684" type="line"/>
			<point x="166" y="684" type="line"/>
		</contour>
	</outline>
	<anchor name="bottom" x="281" y="0"/>
	<anchor name="caron" x="383" y="684"/>
	<anchor name="center" x="137" y="314"/>
	<anchor name="top" x="193" y="684"/>
	<guideline x="108" y="364" angle="0"/>
	<guideline x="176" y="152" angle="90"/>
</glyph>
<glyph name="N" format="2">
	<unicode hex="004E"/>
	<advance width="600"/>
	<outline>
		<contour>
			<point x="49" y="0" type="line"/>
			<point x="102" y="0" type="line"/>
			<point x="158" y="401" type="line" smooth="yes"/>
			<point x="172" y="499"/>
			<point x="178" y="557"/>
			<point x="183" y="617" type="curve"/>
			<point x="188" y="617" type="line"/>
			<point x="403" y="0" type="line"/>
			<point x="478" y="0" type="line"/>
			<point x="574" y="685" type="line"/>
			<point x="521" y="685" type="line"/>
			<point x="465" y="285" type="line" smooth="yes"/>
			<point x="451" y="186"/>
			<point x="445" y="128"/>
			<point x="440" y="67" type="curve"/>
			<point x="435" y="67" type="line"/>
			<point x="220" y="685" type="line"/>
			<point x="145" y="685" type="line"/>
		</contour>
	</outline>
	<anchor name="bottom" x="248" y="0"/>
	<anchor name="top" x="374" y="684"/>
	<guideline x="442" y="521" angle="0"/>
	<guideline x="477" y="255" angle="0"/>
</glyph>
<glyph name="O" format="2">
	<unicode hex="004F"/>
	<advance width="600"/>
	<outline>
		<contour>
			<point x="278" y="-14" type="curve" smooth="yes"/>
			<point x="426" y="-14"/>
			<point x="517" y="111"/>
			<point x="544" y="302" type="curve" smooth="yes"/>
			<point x="546" y="316" type="line" smooth="yes"/>
			<point x="582" y="565"/>
			<point x="507" y="698"/>
			<point x="347" y="698" type="curve" smooth="yes"/>
			<point x="203" y="698"/>
			<point x="107" y="573"/>
			<point x="79" y="380" type="curve" smooth="yes"/>
			<point x="77" y="366" type="line" smooth="yes"/>
			<point x="42" y="119"/>
			<point x="116" y="-14"/>
		</contour>
		<contour>
			<point x="280" y="34" type="curve" smooth="yes"/>
			<point x="147" y="34"/>
			<point x="105" y="163"/>
			<point x="134" y="365" type="curve" smooth="yes"/>
			<point x="135" y="372" type="line" smooth="yes"/>
			<point x="161" y="552"/>
			<point x="235" y="650"/>
			<point x="345" y="650" type="curve" smooth="yes"/>
			<point x="476" y="650"/>
			<point x="518" y="521"/>
			<point x="489" y="321" type="curve" smooth="yes"/>
			<point x="488" y="314" type="line" smooth="yes"/>
			<point x="462" y="132"/>
			<point x="394" y="34"/>
		</contour>
	</outline>
	<anchor name="bottom" x="277" y="0"/>
	<anchor name="center" x="321" y="354"/>
	<anchor name="top" x="365" y="684"/>
	<guideline x="389" y="0" angle="0"/>
	<guideline x="389" y="16" angle="90"/>
	<guideline x="121" y="360" angle="82"/>
</glyph>
<glyph name="P" format="2">
	<unicode hex="0050"/>
	<advance width="600"/>
	<outline>
		<contour>
			<point x="57" y="0" type="line"/>
			<point x="112" y="0" type="line"/>
			<point x="145" y="239" type="line"/>
			<point x="329" y="239" type="line" smooth="yes"/>
			<point x="481" y="239"/>
			<point x="578" y="334"/>
			<point x="578" y="483" type="curve" smooth="yes"/>
			<point x="578" y="598"/>
			<point x="502" y="684"/>
			<point x="366" y="684" type="curve" smooth="yes"/>
			<point x="153" y="684" type="line"/>
		</contour>
		<contour>
			<point x="360" y="635" type="line" smooth="yes"/>
			<point x="472" y="635"/>
			<point x="521" y="564"/>
			<point x="521" y="479" type="curve" smooth="yes"/>
			<point x="521" y="360"/>
			<point x="446" y="287"/>
			<point x="327" y="287" type="curve" smooth="yes"/>
			<point x="152" y="287" type="line"/>
			<point x="201" y="635" type="line"/>
		</contour>
	</outline>
	<anchor name="bottom" x="154" y="0"/>
	<anchor name="top" x="401" y="684"/>
	<guideline x="77" y="126" angle="0"/>
	<guideline x="550" y="476" angle="131.801"/>
</glyph>
<glyph name="Q" format="2">
	<unicode hex="0051"/>
	<advance width="600"/>
	<outline>
		<contour>
			<point x="274" y="-53" type="curve" smooth="yes"/>
			<point x="452" y="-119" type="line"/>
			<point x="485" y="-74" type="line"/>
			<point x="282" y="-7" type="line"/>
			<point x="423" y="-7"/>
			<point x="515" y="105"/>
			<point x="544" y="302" type="curve" smooth="yes"/>
			<point x="546" y="316" type="line" smooth="yes"/>
			<point x="581" y="566"/>
			<point x="504" y="698"/>
			<point x="339" y="698" type="curve" smooth="yes"/>
			<point x="200" y="698"/>
			<point x="107" y="573"/>
			<point x="79" y="380" type="curve" smooth="yes"/>
			<point x="77" y="366" type="line" smooth="yes"/>
			<point x="42" y="119"/>
			<point x="112" y="7"/>
		</contour>
		<contour>
			<point x="281" y="34" type="curve" smooth="yes"/>
			<point x="148" y="34"/>
			<point x="105" y="163"/>
			<point x="134" y="365" type="curve" smooth="yes"/>
			<point x="135" y="372" type="line" smooth="yes"/>
			<point x="161" y="552"/>
			<point x="232" y="650"/>
			<point x="341" y="650" type="curve" smooth="yes"/>
			<point x="473" y="650"/>
			<point x="517" y="521"/>
			<point x="489" y="321" type="curve" smooth="yes"/>
			<point x="488" y="314" type="line" smooth="yes"/>
			<point x="462" y="132"/>
			<point x="395" y="34"/>
		</contour>
	</outline>
	<anchor name="bottom" x="255" y="8"/>
	<anchor name="top" x="346" y="684"/>
	<guideline x="409" y="361" angle="0"/>
	<guideline x="686" y="352" angle="90"/>
</glyph>
<glyph name="Y" format="2">
	<unicode hex="0059"/>
	<advance width="600"/>
	<outline>
		<contour>
			<point x="232" y="0" type="line"/>
			<point x="287" y="0" type="line"/>
			<point x="319" y="228" type="line"/>
			<point x="620" y="684" type="line"/>
			<point x="556" y="684" type="line"/>
			<point x="298" y="282" type="line"/>
			<point x="157" y="684" type="line"/>
			<point x="98" y="684" type="line"/>
			<point x="264" y="228" type="line"/>
		</contour>
	</outline>
	<anchor name="bottom" x="245" y="0"/>
	<anchor name="top" x="357" y="684"/>
	<guideline x="408" y="44" angle="0"/>
	<guideline x="390" y="206" angle="0"/>
</glyph>
<glyph name="bracketright" format="2">
	<unicode hex="005D"/>
	<advance width="600"/>
	<outline>
		<contour>
			<point x="69" y="-163" type="line"/>
			<point x="328" y="-163" type="line"/>
			<point x="463" y="792" type="line"/>
			<point x="203" y="792" type="line"/>
			<point x="197" y="748" type="line"/>
			<point x="404" y="748" type="line"/>
			<point x="283" y="-119" type="line"/>
			<point x="75" y="-119" type="line"/>
		</contour>
	</outline>
	<guideline x="203" y="792" angle="82"/>
</glyph>
<glyph name="asciicircum" format="2">
	<unicode hex="005E"/>
	<advance width="600"/>
	<outline>
		<contour>
			<point x="81" y="233" type="line"/>
			<point x="143" y="233" type="line"/>
			<point x="341" y="520" type="line"/>
			<point x="451" y="233" type="line"/>
			<point x="511" y="233" type="line"/>
			<point x="373" y="571" type="line"/>
			<point x="316" y="571" type="line"/>
		</contour>
	</outline>
</glyph>
<glyph name="underscore" format="2">
	<unicode hex="005F"/>
	<advance width="600"/>
	<outline>
		<contour>
			<point x="-23" y="-115" type="line"/>
			<point x="-30" y="-165" type="line"/>
			<point x="510" y="-165" type="line"/>
			<point x="517" y="-115" type="line"/>
		</contour>
	</outline>
	<guideline x="509" y="-165" angle="82"/>
</glyph>
<glyph name="grave" format="2">
	<unicode hex="0060"/>
	<advance width="600"/>
	<outline>
		<contour>
			<point x="281" y="750" type="line"/>
			<point x="368" y="607" type="line"/>
			<point x="419" y="607" type="line"/>
			<point x="349" y="750" type="line"/>
		</contour>
	</outline>
	<anchor name="_top" x="388" y="523"/>
</glyph>
<glyph name="f" format="2">
	<unicode hex="0066"/>
	<advance width="600"/>
	<outline>
		<contour>
			<point x="83" y="-204" type="curve" smooth="yes"/>
			<point x="157" y="-204"/>
			<point x="237" y="-177"/>
			<point x="255" y="-45" type="curve" smooth="yes"/>
			<point x="328" y="475" type="line"/>
			<point x="543" y="475" type="line"/>
			<point x="550" y="523" type="line"/>
			<point x="335" y="523" type="line"/>
			<point x="347" y="613" type="line" smooth="yes"/>
			<point x="357" y="691"/>
			<point x="400" y="713"/>
			<point x="457" y="713" type="curve" smooth="yes"/>
			<point x="497" y="713"/>
			<point x="539" y="700"/>
			<point x="564" y="687" type="curve"/>
			<point x="571" y="733" type="line"/>
			<point x="543" y="749"/>
			<point x="496" y="760"/>
			<point x="455" y="760" type="curve" smooth="yes"/>
			<point x="366" y="760"/>
			<point x="306" y="709"/>
			<point x="294" y="620" type="curve" smooth="yes"/>
			<point x="281" y="523" type="line"/>
			<point x="108" y="523" type="line"/>
			<point x="101" y="475" type="line"/>
			<point x="274" y="475" type="line"/>
			<point x="200" y="-35" type="line" smooth="yes"/>
			<point x="188" y="-118"/>
			<point x="160" y="-159"/>
			<point x="83" y="-159" type="curve" smooth="yes"/>
			<point x="43" y="-159"/>
			<point x="4" y="-147"/>
			<point x="-26" y="-129" type="curve"/>
			<point x="-32" y="-176" type="line"/>
			<point x="-7" y="-191"/>
			<point x="38" y="-204"/>
		</contour>
	</outline>
	<guideline x="379" y="502" angle="0"/>
</glyph>
<glyph name="h" format="2">
	<unicode hex="0068"/>
	<advance width="600"/>
	<outline>
		<contour>
			<point x="355" y="537" type="curve" smooth="yes"/>
			<point x="277" y="537"/>
			<point x="219" y="496"/>
			<point x="183" y="424" type="curve"/>
			<point x="229" y="750" type="line"/>
			<point x="175" y="750" type="line"/>
			<point x="69" y="0" type="line"/>
			<point x="124" y="0" type="line"/>
			<point x="170" y="324" type="line" smooth="yes"/>
			<point x="173" y="348"/>
			<point x="180" y="373"/>
			<point x="195" y="398" type="curve" smooth="yes"/>
			<point x="223" y="447"/>
			<point x="266" y="490"/>
			<point x="339" y="490" type="curve" smooth="yes"/>
			<point x="417" y="490"/>
			<point x="469" y="437"/>
			<point x="452" y="316" type="curve" smooth="yes"/>
			<point x="407" y="0" type="line"/>
			<point x="461" y="0" type="line"/>
			<point x="507" y="325" type="line" smooth="yes"/>
			<point x="527" y="468"/>
			<point x="455" y="537"/>
		</contour>
	</outline>
	<anchor name="bottom" x="264" y="0"/>
	<anchor name="caron" x="265" y="741"/>
	<anchor name="center" x="228" y="624"/>
	<anchor name="top" x="198" y="722"/>
	<guideline x="229" y="750" angle="0"/>
</glyph>
<glyph name="m" format="2">
	<unicode hex="006D"/>
	<advance width="600"/>
	<outline>
		<contour>
			<point x="29" y="0" type="line"/>
			<point x="79" y="0" type="line"/>
			<point x="132" y="372" type="line" smooth="yes"/>
			<point x="136" y="402"/>
			<point x="145" y="433"/>
			<point x="161" y="455" type="curve" smooth="yes"/>
			<point x="178" y="479"/>
			<point x="203" y="494"/>
			<point x="231" y="494" type="curve" smooth="yes"/>
			<point x="277" y="494"/>
			<point x="304" y="465"/>
			<point x="294" y="394" type="curve" smooth="yes"/>
			<point x="238" y="0" type="line"/>
			<point x="289" y="0" type="line"/>
			<point x="342" y="375" type="line"/>
			<point x="345" y="399"/>
			<point x="355" y="433"/>
			<point x="371" y="455" type="curve" smooth="yes"/>
			<point x="388" y="479"/>
			<point x="412" y="494"/>
			<point x="441" y="494" type="curve" smooth="yes"/>
			<point x="486" y="494"/>
			<point x="513" y="465"/>
			<point x="503" y="394" type="curve" smooth="yes"/>
			<point x="448" y="0" type="line"/>
			<point x="498" y="0" type="line"/>
			<point x="555" y="399" type="line" smooth="yes"/>
			<point x="568" y="492"/>
			<point x="525" y="537"/>
			<point x="463" y="537" type="curve" smooth="yes"/>
			<point x="413" y="537"/>
			<point x="372" y="508"/>
			<point x="345" y="454" type="curve"/>
			<point x="336" y="508"/>
			<point x="302" y="537"/>
			<point x="252" y="537" type="curve" smooth="yes"/>
			<point x="206" y="537"/>
			<point x="171" y="512"/>
			<point x="145" y="464" type="curve"/>
			<point x="154" y="523" type="line"/>
			<point x="103" y="523" type="line"/>
		</contour>
	</outline>
	<anchor name="bottom" x="239" y="0"/>
	<anchor name="top" x="360" y="523"/>
	<guideline x="274" y="433" angle="0"/>
	<guideline x="336" y="370" angle="90"/>
	<guideline x="835" y="0" angle="82"/>
	<guideline x="31" y="0" angle="82"/>
	<guideline x="557" y="402" angle="82"/>
</glyph>
<glyph name="s" format="2">
	<unicode hex="0073"/>
	<advance width="600"/>
	<outline>
		<contour>
			<point x="275" y="-14" type="curve" smooth="yes"/>
			<point x="405" y="-14"/>
			<point x="483" y="49"/>
			<point x="483" y="150" type="curve" smooth="yes"/>
			<point x="483" y="248"/>
			<point x="409" y="266"/>
			<point x="307" y="287" type="curve" smooth="yes"/>
			<point x="216" y="306"/>
			<point x="170" y="316"/>
			<point x="170" y="379" type="curve" smooth="yes"/>
			<point x="170" y="449"/>
			<point x="224" y="491"/>
			<point x="317" y="491" type="curve" smooth="yes"/>
			<point x="386" y="491"/>
			<point x="474" y="466"/>
			<point x="518" y="422" type="curve"/>
			<point x="526" y="479" type="line"/>
			<point x="474" y="517"/>
			<point x="395" y="537"/>
			<point x="324" y="537" type="curve" smooth="yes"/>
			<point x="193" y="537"/>
			<point x="116" y="469"/>
			<point x="116" y="371" type="curve" smooth="yes"/>
			<point x="116" y="279"/>
			<point x="185" y="259"/>
			<point x="293" y="238" type="curve" smooth="yes"/>
			<point x="387" y="220"/>
			<point x="430" y="208"/>
			<point x="430" y="144" type="curve" smooth="yes"/>
			<point x="430" y="72"/>
			<point x="376" y="33"/>
			<point x="281" y="33" type="curve" smooth="yes"/>
			<point x="220" y="33"/>
			<point x="141" y="49"/>
			<point x="81" y="108" type="curve"/>
			<point x="73" y="52" type="line"/>
			<point x="119" y="11"/>
			<point x="194" y="-14"/>
		</contour>
	</outline>
	<anchor name="bottom" x="273" y="0"/>
	<anchor name="top" x="352" y="523"/>
	<guideline x="481" y="503" angle="82"/>
	<guideline x="38" y="54" angle="82"/>
	<guideline x="491" y="172" angle="82"/>
	<guideline x="87" y="106" angle="82"/>
</glyph>
<glyph name="t" format="2">
	<unicode hex="0074"/>
	<advance width="600"/>
	<outline>
		<contour>
			<point x="358" y="-12" type="curve"/>
			<point x="401" y="-12"/>
			<point x="445" y="0"/>
			<point x="465" y="11" type="curve"/>
			<point x="471" y="59" type="line"/>
			<point x="448" y="47"/>
			<point x="404" y="36"/>
			<point x="365" y="36" type="curve" smooth="yes"/>
			<point x="277" y="36"/>
			<point x="245" y="76"/>
			<point x="259" y="176" type="curve" smooth="yes"/>
			<point x="300" y="475" type="line"/>
			<point x="527" y="475" type="line"/>
			<point x="535" y="523" type="line"/>
			<point x="306" y="523" type="line"/>
			<point x="330" y="692" type="line"/>
			<point x="291" y="692" type="line"/>
			<point x="266" y="579" type="line" smooth="yes"/>
			<point x="255" y="529"/>
			<point x="235" y="520"/>
			<point x="201" y="520" type="curve" smooth="yes"/>
			<point x="106" y="520" type="line"/>
			<point x="100" y="475" type="line"/>
			<point x="247" y="475" type="line"/>
			<point x="204" y="170" type="line" smooth="yes"/>
			<point x="185" y="32"/>
			<point x="258" y="-12"/>
		</contour>
	</outline>
	<anchor name="bottom" x="325" y="0"/>
	<anchor name="caron" x="497" y="780"/>
	<anchor name="center" x="292" y="299"/>
	<guideline x="394" y="68" angle="90"/>
	<guideline x="394" y="579" angle="0"/>
	<guideline x="78" y="537" angle="0"/>
</glyph>
<glyph name="u" format="2">
	<unicode hex="0075"/>
	<advance width="600"/>
	<outline>
		<contour>
			<point x="531" y="523" type="line"/>
			<point x="477" y="523" type="line"/>
			<point x="435" y="225" type="line" smooth="yes"/>
			<point x="429" y="180"/>
			<point x="416" y="140"/>
			<point x="396" y="108" type="curve" smooth="yes"/>
			<point x="367" y="61"/>
			<point x="322" y="33"/>
			<point x="261" y="33" type="curve" smooth="yes"/>
			<point x="180" y="33"/>
			<point x="131" y="86"/>
			<point x="147" y="197" type="curve" smooth="yes"/>
			<point x="193" y="523" type="line"/>
			<point x="139" y="523" type="line"/>
			<point x="92" y="188" type="line" smooth="yes"/>
			<point x="73" y="55"/>
			<point x="142" y="-14"/>
			<point x="243" y="-14" type="curve" smooth="yes"/>
			<point x="323" y="-14"/>
			<point x="382" y="25"/>
			<point x="417" y="93" type="curve"/>
			<point x="403" y="0" type="line"/>
			<point x="457" y="0" type="line"/>
		</contour>
	</outline>
	<anchor name="bottom" x="271" y="0"/>
	<anchor name="ogonek" x="457" y="0"/>
	<anchor name="top" x="335" y="523"/>
	<guideline x="80" y="215" angle="82"/>
</glyph>
<glyph name="w" format="2">
	<unicode hex="0077"/>
	<advance width="600"/>
	<outline>
		<contour>
			<point x="140" y="-14" type="curve" smooth="yes"/>
			<point x="195" y="-14"/>
			<point x="232" y="18"/>
			<point x="256" y="69" type="curve"/>
			<point x="264" y="15"/>
			<point x="299" y="-14"/>
			<point x="355" y="-14" type="curve" smooth="yes"/>
			<point x="463" y="-14"/>
			<point x="519" y="89"/>
			<point x="544" y="267" type="curve" smooth="yes"/>
			<point x="557" y="360"/>
			<point x="559" y="457"/>
			<point x="549" y="523" type="curve"/>
			<point x="498" y="523" type="line"/>
			<point x="508" y="448"/>
			<point x="508" y="371"/>
			<point x="493" y="268" type="curve" smooth="yes"/>
			<point x="469" y="101"/>
			<point x="428" y="29"/>
			<point x="365" y="29" type="curve" smooth="yes"/>
			<point x="315" y="29"/>
			<point x="299" y="69"/>
			<point x="306" y="118" type="curve" smooth="yes"/>
			<point x="364" y="523" type="line"/>
			<point x="312" y="523" type="line"/>
			<point x="257" y="134" type="line" smooth="yes"/>
			<point x="250" y="85"/>
			<point x="218" y="30"/>
			<point x="157" y="30" type="curve" smooth="yes"/>
			<point x="114" y="30"/>
			<point x="95" y="62"/>
			<point x="102" y="109" type="curve" smooth="yes"/>
			<point x="160" y="523" type="line"/>
			<point x="108" y="523" type="line"/>
			<point x="50" y="109" type="line" smooth="yes"/>
			<point x="39" y="27"/>
			<point x="78" y="-14"/>
		</contour>
	</outline>
	<anchor name="top" x="338" y="523"/>
	<guideline x="388" y="550" angle="82"/>
</glyph>
<glyph name="y" format="2">
	<unicode hex="0079"/>
	<advance width="600"/>
	<outline>
		<contour>
			<point x="233" y="-204" type="curve" smooth="yes"/>
			<point x="360" y="-204"/>
			<point x="438" y="-135"/>
			<point x="458" y="8" type="curve" smooth="yes"/>
			<point x="529" y="523" type="line"/>
			<point x="476" y="523" type="line"/>
			<point x="436" y="239" type="line" smooth="yes"/>
			<point x="430" y="198"/>
			<point x="417" y="155"/>
			<point x="397" y="122" type="curve" smooth="yes"/>
			<point x="368" y="75"/>
			<point x="324" y="47"/>
			<point x="263" y="47" type="curve" smooth="yes"/>
			<point x="180" y="47"/>
			<point x="134" y="102"/>
			<point x="149" y="211" type="curve" smooth="yes"/>
			<point x="193" y="523" type="line"/>
			<point x="139" y="523" type="line"/>
			<point x="94" y="202" type="line" smooth="yes"/>
			<point x="75" y="69"/>
			<point x="147" y="0"/>
			<point x="250" y="0" type="curve" smooth="yes"/>
			<point x="334" y="0"/>
			<point x="386" y="41"/>
			<point x="419" y="114" type="curve"/>
			<point x="406" y="19" type="line" smooth="yes"/>
			<point x="390" y="-100"/>
			<point x="338" y="-157"/>
			<point x="236" y="-157" type="curve" smooth="yes"/>
			<point x="165" y="-157"/>
			<point x="107" y="-129"/>
			<point x="64" y="-87" type="curve"/>
			<point x="56" y="-141" type="line"/>
			<point x="88" y="-170"/>
			<point x="148" y="-204"/>
		</contour>
	</outline>
	<anchor name="top" x="335" y="523"/>
</glyph>
<glyph name="z" format="2">
	<unicode hex="007A"/>
	<advance width="600"/>
	<outline>
		<contour>
			<point x="66" y="0" type="line"/>
			<point x="460" y="0" type="line"/>
			<point x="465" y="48" type="line"/>
			<point x="148" y="48" type="line"/>
			<point x="526" y="480" type="line"/>
			<point x="532" y="523" type="line"/>
			<point x="144" y="523" type="line"/>
			<point x="137" y="475" type="line"/>
			<point x="456" y="475" type="line"/>
			<point x="71" y="36" type="line"/>
		</contour>
	</outline>
	<anchor name="bottom" x="263" y="0"/>
	<anchor name="top" x="338" y="523"/>
	<guideline x="363" y="537" angle="0"/>
</glyph>
<glyph name="bar" format="2">
	<unicode hex="007C"/>
	<advance width="600"/>
	<outline>
		<contour>
			<point x="349" y="792" type="line"/>
			<point x="214" y="-163" type="line"/>
			<point x="266" y="-163" type="line"/>
			<point x="400" y="792" type="line"/>
		</contour>
	</outline>
</glyph>
<glyph name="braceright" format="2">
	<unicode hex="007D"/>
	<advance width="600"/>
	<outline>
		<contour>
			<point x="61" y="-163" type="line"/>
			<point x="193" y="-163" type="line" smooth="yes"/>
			<point x="310" y="-163"/>
			<point x="369" y="-111"/>
			<point x="369" y="-28" type="curve" smooth="yes"/>
			<point x="369" y="57"/>
			<point x="294" y="128"/>
			<point x="294" y="204" type="curve" smooth="yes"/>
			<point x="294" y="251"/>
			<point x="327" y="288"/>
			<point x="391" y="288" type="curve" smooth="yes"/>
			<point x="461" y="288" type="line"/>
			<point x="469" y="342" type="line"/>
			<point x="400" y="342" type="line" smooth="yes"/>
			<point x="342" y="342"/>
			<point x="323" y="376"/>
			<point x="323" y="407" type="curve" smooth="yes"/>
			<point x="323" y="486"/>
			<point x="469" y="543"/>
			<point x="469" y="667" type="curve" smooth="yes"/>
			<point x="469" y="733"/>
			<point x="430" y="792"/>
			<point x="316" y="792" type="curve" smooth="yes"/>
			<point x="195" y="792" type="line"/>
			<point x="189" y="748" type="line"/>
			<point x="311" y="748" type="line" smooth="yes"/>
			<point x="379" y="748"/>
			<point x="415" y="721"/>
			<point x="415" y="665" type="curve" smooth="yes"/>
			<point x="415" y="558"/>
			<point x="270" y="511"/>
			<point x="270" y="407" type="curve" smooth="yes"/>
			<point x="270" y="356"/>
			<point x="312" y="322"/>
			<point x="356" y="315" type="curve"/>
			<point x="311" y="308"/>
			<point x="241" y="283"/>
			<point x="241" y="199" type="curve" smooth="yes"/>
			<point x="241" y="115"/>
			<point x="315" y="50"/>
			<point x="315" y="-28" type="curve" smooth="yes"/>
			<point x="315" y="-99"/>
			<point x="264" y="-119"/>
			<point x="192" y="-119" type="curve" smooth="yes"/>
			<point x="68" y="-119" type="line"/>
		</contour>
	</outline>
</glyph>
<glyph name="sterling" format="2">
	<unicode hex="00A3"/>
	<advance width="600"/>
	<outline>
		<contour>
			<point x="56" y="48" type="curve"/>
			<point x="49" y="0" type="line"/>
			<point x="492" y="0" type="line"/>
			<point x="498" y="50" type="line"/>
			<point x="126" y="50" type="line"/>
			<point x="160" y="71"/>
			<point x="234" y="142"/>
			<point x="230" y="299" type="curve"/>
			<point x="424" y="299" type="line"/>
			<point x="431" y="347" type="line"/>
			<point x="226" y="347" type="line"/>
			<point x="222" y="387"/>
			<point x="213" y="424"/>
			<point x="213" y="475" type="curve" smooth="yes"/>
			<point x="213" y="580"/>
			<point x="275" y="649"/>
			<point x="375" y="649" type="curve" smooth="yes"/>
			<point x="449" y="649"/>
			<point x="521" y="624"/>
			<point x="572" y="574" type="curve"/>
			<point x="580" y="630" type="line"/>
			<point x="538" y="666"/>
			<point x="473" y="698"/>
			<point x="377" y="698" type="curve" smooth="yes"/>
			<point x="246" y="698"/>
			<point x="160" y="607"/>
			<point x="160" y="476" type="curve" smooth="yes"/>
			<point x="160" y="421"/>
			<point x="169" y="381"/>
			<point x="174" y="347" type="curve"/>
			<point x="90" y="347" type="line"/>
			<point x="83" y="299" type="line"/>
			<point x="177" y="299" type="line"/>
			<point x="181" y="173"/>
			<point x="117" y="82"/>
		</contour>
	</outline>
	<guideline x="479" y="548" angle="90"/>
	<guideline x="28" y="184" angle="90"/>
</glyph>
<glyph name="currency" format="2">
	<unicode hex="00A4"/>
	<advance width="600"/>
	<outline>
		<contour>
			<point x="89" y="93" type="line"/>
			<point x="168" y="170" type="line"/>
			<point x="199" y="140"/>
			<point x="242" y="123"/>
			<point x="297" y="123" type="curve" smooth="yes"/>
			<point x="341" y="123"/>
			<point x="380" y="135"/>
			<point x="412" y="158" type="curve"/>
			<point x="473" y="77" type="line"/>
			<point x="512" y="107" type="line"/>
			<point x="448" y="191" type="line"/>
			<point x="485" y="234"/>
			<point x="506" y="294"/>
			<point x="506" y="365" type="curve" smooth="yes"/>
			<point x="506" y="407"/>
			<point x="497" y="444"/>
			<point x="480" y="474" type="curve"/>
			<point x="562" y="553" type="line"/>
			<point x="530" y="587" type="line"/>
			<point x="451" y="511" type="line"/>
			<point x="420" y="540"/>
			<point x="377" y="557"/>
			<point x="324" y="557" type="curve" smooth="yes"/>
			<point x="280" y="557"/>
			<point x="241" y="545"/>
			<point x="209" y="524" type="curve"/>
			<point x="148" y="606" type="line"/>
			<point x="110" y="576" type="line"/>
			<point x="174" y="493" type="line"/>
			<point x="135" y="450"/>
			<point x="113" y="388"/>
			<point x="113" y="315" type="curve" smooth="yes"/>
			<point x="113" y="274"/>
			<point x="122" y="237"/>
			<point x="139" y="207" type="curve"/>
			<point x="57" y="128" type="line"/>
		</contour>
		<contour>
			<point x="298" y="171" type="curve" smooth="yes"/>
			<point x="214" y="171"/>
			<point x="164" y="225"/>
			<point x="164" y="318" type="curve" smooth="yes"/>
			<point x="164" y="436"/>
			<point x="222" y="509"/>
			<point x="323" y="509" type="curve" smooth="yes"/>
			<point x="405" y="509"/>
			<point x="455" y="454"/>
			<point x="455" y="362" type="curve" smooth="yes"/>
			<point x="455" y="244"/>
			<point x="397" y="171"/>
		</contour>
	</outline>
</glyph>
<glyph name="yen" format="2">
	<unicode hex="00A5"/>
	<advance width="600"/>
	<outline>
		<contour>
			<point x="89" y="202" type="line"/>
			<point x="260" y="202" type="line"/>
			<point x="232" y="0" type="line"/>
			<point x="287" y="0" type="line"/>
			<point x="315" y="202" type="line"/>
			<point x="486" y="202" type="line"/>
			<point x="493" y="246" type="line"/>
			<point x="331" y="246" type="line"/>
			<point x="383" y="325" type="line"/>
			<point x="504" y="325" type="line"/>
			<point x="510" y="370" type="line"/>
			<point x="413" y="370" type="line"/>
			<point x="620" y="684" type="line"/>
			<point x="556" y="684" type="line"/>
			<point x="298" y="282" type="line"/>
			<point x="157" y="684" type="line"/>
			<point x="98" y="684" type="line"/>
			<point x="212" y="370" type="line"/>
			<point x="113" y="370" type="line"/>
			<point x="107" y="325" type="line"/>
			<point x="229" y="325" type="line"/>
			<point x="257" y="246" type="line"/>
			<point x="96" y="246" type="line"/>
		</contour>
	</outline>
</glyph>
<glyph name="brokenbar" format="2">
	<unicode hex="00A6"/>
	<advance width="600"/>
	<outline>
		<contour>
			<point x="349" y="792" type="line"/>
			<point x="296" y="418" type="line"/>
			<point x="348" y="418" type="line"/>
			<point x="400" y="792" type="line"/>
		</contour>
		<contour>
			<point x="272" y="244" type="line"/>
			<point x="214" y="-163" type="line"/>
			<point x="266" y="-163" type="line"/>
			<point x="323" y="244" type="line"/>
		</contour>
	</outline>
</glyph>
<glyph name="registered" format="2">
	<unicode hex="00AE"/>
	<advance width="600"/>
	<outline>
		<contour>
			<point x="302" y="106" type="curve" smooth="yes"/>
			<point x="442" y="106"/>
			<point x="543" y="197"/>
			<point x="565" y="349" type="curve" smooth="yes"/>
			<point x="567" y="363" type="line" smooth="yes"/>
			<point x="590" y="527"/>
			<point x="498" y="657"/>
			<point x="331" y="657" type="curve" smooth="yes"/>
			<point x="187" y="657"/>
			<point x="90" y="566"/>
			<point x="69" y="417" type="curve" smooth="yes"/>
			<point x="67" y="403" type="line" smooth="yes"/>
			<point x="43" y="237"/>
			<point x="135" y="106"/>
		</contour>
		<contour>
			<point x="305" y="144" type="curve" smooth="yes"/>
			<point x="162" y="144"/>
			<point x="87" y="254"/>
			<point x="108" y="403" type="curve" smooth="yes"/>
			<point x="109" y="410" type="line" smooth="yes"/>
			<point x="128" y="546"/>
			<point x="208" y="619"/>
			<point x="329" y="619" type="curve" smooth="yes"/>
			<point x="472" y="619"/>
			<point x="547" y="510"/>
			<point x="526" y="363" type="curve" smooth="yes"/>
			<point x="525" y="356" type="line" smooth="yes"/>
			<point x="505" y="217"/>
			<point x="421" y="144"/>
		</contour>
		<contour>
			<point x="210" y="248" type="line"/>
			<point x="246" y="248" type="line"/>
			<point x="260" y="347" type="line"/>
			<point x="318" y="347" type="line" smooth="yes"/>
			<point x="347" y="347"/>
			<point x="357" y="338"/>
			<point x="361" y="310" type="curve" smooth="yes"/>
			<point x="370" y="248" type="line"/>
			<point x="406" y="248" type="line"/>
			<point x="397" y="313" type="line" smooth="yes"/>
			<point x="393" y="348"/>
			<point x="384" y="358"/>
			<point x="361" y="363" type="curve"/>
			<point x="402" y="367"/>
			<point x="430" y="394"/>
			<point x="430" y="438" type="curve" smooth="yes"/>
			<point x="430" y="484"/>
			<point x="402" y="510"/>
			<point x="341" y="510" type="curve" smooth="yes"/>
			<point x="247" y="510" type="line"/>
		</contour>
		<contour>
			<point x="337" y="480" type="line" smooth="yes"/>
			<point x="380" y="480"/>
			<point x="394" y="460"/>
			<point x="394" y="433" type="curve" smooth="yes"/>
			<point x="394" y="399"/>
			<point x="371" y="377"/>
			<point x="328" y="377" type="curve" smooth="yes"/>
			<point x="264" y="377" type="line"/>
			<point x="279" y="480" type="line"/>
		</contour>
	</outline>
</glyph>
<glyph name="macron" format="2">
	<unicode hex="00AF"/>
	<advance width="600"/>
	<outline>
		<contour>
			<point x="222" y="648" type="line"/>
			<point x="487" y="648" type="line"/>
			<point x="493" y="693" type="line"/>
			<point x="228" y="693" type="line"/>
		</contour>
	</outline>
	<anchor name="_top" x="339" y="523"/>
</glyph>
<glyph name="acute" format="2">
	<unicode hex="00B4"/>
	<advance width="600"/>
	<outline>
		<contour>
			<point x="457" y="750" type="line"/>
			<point x="386" y="750" type="line"/>
			<point x="277" y="607" type="line"/>
			<point x="330" y="607" type="line"/>
		</contour>
	</outline>
	<anchor name="_top" x="293" y="523"/>
</glyph>
<glyph name="mu" format="2">
	<unicode hex="00B5"/>
	<advance width="600"/>
	<outline>
		<contour>
			<point x="38" y="-192" type="line"/>
			<point x="92" y="-192" type="line"/>
			<point x="128" y="66" type="line"/>
			<point x="142" y="11"/>
			<point x="192" y="-14"/>
			<point x="250" y="-14" type="curve" smooth="yes"/>
			<point x="325" y="-14"/>
			<point x="382" y="24"/>
			<point x="416" y="92" type="curve"/>
			<point x="403" y="0" type="line"/>
			<point x="457" y="0" type="line"/>
			<point x="531" y="523" type="line"/>
			<point x="477" y="523" type="line"/>
			<point x="435" y="225" type="line" smooth="yes"/>
			<point x="429" y="180"/>
			<point x="416" y="140"/>
			<point x="396" y="108" type="curve" smooth="yes"/>
			<point x="367" y="61"/>
			<point x="322" y="33"/>
			<point x="261" y="33" type="curve" smooth="yes"/>
			<point x="180" y="33"/>
			<point x="131" y="86"/>
			<point x="147" y="197" type="curve" smooth="yes"/>
			<point x="193" y="523" type="line"/>
			<point x="139" y="523" type="line"/>
			<point x="94" y="203" type="line"/>
		</contour>
	</outline>
	<anchor name="bottom" x="274" y="0"/>
	<anchor name="ogonek" x="474" y="0"/>
	<anchor name="top" x="343" y="534"/>
</glyph>
<glyph name="paragraph" format="2">
	<unicode hex="00B6"/>
	<advance width="600"/>
	<outline>
		<contour>
			<point x="317" y="0" type="line"/>
			<point x="368" y="0" type="line"/>
			<point x="457" y="635" type="line"/>
			<point x="530" y="635" type="line"/>
			<point x="440" y="0" type="line"/>
			<point x="492" y="0" type="line"/>
			<point x="589" y="684" type="line"/>
			<point x="314" y="684" type="line" smooth="yes"/>
			<point x="165" y="684"/>
			<point x="83" y="597"/>
			<point x="83" y="450" type="curve" smooth="yes"/>
			<point x="83" y="328"/>
			<point x="157" y="260"/>
			<point x="287" y="260" type="curve" smooth="yes"/>
			<point x="355" y="260" type="line"/>
		</contour>
	</outline>
</glyph>
<glyph name="cedilla" format="2">
	<unicode hex="00B8"/>
	<advance width="600"/>
	<outline>
		<contour>
			<point x="227" y="-214" type="curve" smooth="yes"/>
			<point x="290" y="-214"/>
			<point x="333" y="-183"/>
			<point x="335" y="-125" type="curve" smooth="yes"/>
			<point x="337" y="-78"/>
			<point x="311" y="-52"/>
			<point x="257" y="-48" type="curve"/>
			<point x="286" y="0" type="line"/>
			<point x="241" y="0" type="line"/>
			<point x="188" y="-89" type="line"/>
			<point x="198" y="-87"/>
			<point x="211" y="-85"/>
			<point x="227" y="-85" type="curve" smooth="yes"/>
			<point x="264" y="-85"/>
			<point x="289" y="-95"/>
			<point x="289" y="-125" type="curve" smooth="yes"/>
			<point x="289" y="-160"/>
			<point x="263" y="-171"/>
			<point x="226" y="-171" type="curve" smooth="yes"/>
			<point x="200" y="-171"/>
			<point x="172" y="-164"/>
			<point x="151" y="-151" type="curve"/>
			<point x="145" y="-193" type="line"/>
			<point x="164" y="-206"/>
			<point x="197" y="-214"/>
		</contour>
	</outline>
	<anchor name="_bottom" x="263" y="0"/>
	<guideline x="144" y="-193" angle="82"/>
</glyph>
<glyph name="ordmasculine" format="2">
	<unicode hex="00BA"/>
	<advance width="600"/>
	<outline>
		<contour>
			<point x="313" y="224" type="curve" smooth="yes"/>
			<point x="427" y="224"/>
			<point x="515" y="305"/>
			<point x="534" y="439" type="curve" smooth="yes"/>
			<point x="556" y="593"/>
			<point x="475" y="696"/>
			<point x="344" y="696" type="curve" smooth="yes"/>
			<point x="228" y="696"/>
			<point x="141" y="615"/>
			<point x="122" y="482" type="curve" smooth="yes"/>
			<point x="100" y="327"/>
			<point x="181" y="224"/>
		</contour>
		<contour>
			<point x="316" y="264" type="curve" smooth="yes"/>
			<point x="207" y="264"/>
			<point x="153" y="350"/>
			<point x="171" y="477" type="curve" smooth="yes"/>
			<point x="186" y="590"/>
			<point x="244" y="656"/>
			<point x="341" y="656" type="curve" smooth="yes"/>
			<point x="449" y="656"/>
			<point x="502" y="570"/>
			<point x="485" y="444" type="curve" smooth="yes"/>
			<point x="470" y="330"/>
			<point x="412" y="264"/>
		</contour>
	</outline>
</glyph>
<glyph name="AE" format="2">
	<unicode hex="00C6"/>
	<advance width="600"/>
	<outline>
		<contour>
			<point x="-27" y="0" type="line"/>
			<point x="31" y="0" type="line"/>
			<point x="123" y="196" type="line"/>
			<point x="290" y="196" type="line"/>
			<point x="262" y="0" type="line"/>
			<point x="535" y="0" type="line"/>
			<point x="542" y="49" type="line"/>
			<point x="321" y="49" type="line"/>
			<point x="359" y="319" type="line"/>
			<point x="551" y="319" type="line"/>
			<point x="558" y="366" type="line"/>
			<point x="366" y="366" type="line"/>
			<point x="404" y="636" type="line"/>
			<point x="620" y="636" type="line"/>
			<point x="627" y="684" type="line"/>
			<point x="295" y="684" type="line"/>
		</contour>
		<contour>
			<point x="145" y="243" type="line"/>
			<point x="329" y="636" type="line"/>
			<point x="352" y="636" type="line"/>
			<point x="296" y="243" type="line"/>
		</contour>
	</outline>
	<anchor name="top" x="387" y="684"/>
</glyph>
<glyph name="Eth" format="2">
	<unicode hex="00D0"/>
	<advance width="600"/>
	<outline>
		<contour>
			<point x="44" y="0" type="line"/>
			<point x="255" y="0" type="line" smooth="yes"/>
			<point x="398" y="0"/>
			<point x="516" y="86"/>
			<point x="546" y="297" type="curve" smooth="yes"/>
			<point x="549" y="318" type="line" smooth="yes"/>
			<point x="582" y="550"/>
			<point x="480" y="684"/>
			<point x="309" y="684" type="curve" smooth="yes"/>
			<point x="140" y="684" type="line"/>
			<point x="95" y="365" type="line"/>
			<point x="20" y="365" type="line"/>
			<point x="14" y="319" type="line"/>
			<point x="89" y="319" type="line"/>
		</contour>
		<contour>
			<point x="306" y="635" type="line" smooth="yes"/>
			<point x="441" y="635"/>
			<point x="521" y="530"/>
			<point x="491" y="319" type="curve" smooth="yes"/>
			<point x="489" y="305" type="line" smooth="yes"/>
			<point x="466" y="144"/>
			<point x="391" y="49"/>
			<point x="255" y="49" type="curve" smooth="yes"/>
			<point x="105" y="49" type="line"/>
			<point x="143" y="319" type="line"/>
			<point x="318" y="319" type="line"/>
			<point x="324" y="365" type="line"/>
			<point x="149" y="365" type="line"/>
			<point x="187" y="635" type="line"/>
		</contour>
	</outline>
</glyph>
<glyph name="Thorn" format="2">
	<unicode hex="00DE"/>
	<advance width="600"/>
	<outline>
		<contour>
			<point x="156" y="703" type="line"/>
			<point x="57" y="0" type="line"/>
			<point x="112" y="0" type="line"/>
			<point x="131" y="134" type="line"/>
			<point x="314" y="134" type="line" smooth="yes"/>
			<point x="466" y="134"/>
			<point x="563" y="229"/>
			<point x="563" y="378" type="curve" smooth="yes"/>
			<point x="563" y="493"/>
			<point x="487" y="579"/>
			<point x="351" y="579" type="curve" smooth="yes"/>
			<point x="193" y="579" type="line"/>
			<point x="211" y="703" type="line"/>
		</contour>
		<contour>
			<point x="345" y="530" type="line" smooth="yes"/>
			<point x="457" y="530"/>
			<point x="506" y="459"/>
			<point x="506" y="374" type="curve" smooth="yes"/>
			<point x="506" y="255"/>
			<point x="431" y="182"/>
			<point x="312" y="182" type="curve" smooth="yes"/>
			<point x="137" y="182" type="line"/>
			<point x="186" y="530" type="line"/>
		</contour>
	</outline>
	<guideline x="57" y="0" angle="82"/>
</glyph>
<glyph name="ccedilla" format="2">
	<unicode hex="00E7"/>
	<advance width="600"/>
	<outline>
		<contour>
			<point x="390" y="-12"/>
			<point x="432" y="-3"/>
			<point x="466" y="14" type="curve"/>
			<point x="472" y="65" type="line"/>
			<point x="440" y="46"/>
			<point x="393" y="36"/>
			<point x="352" y="36" type="curve" smooth="yes"/>
			<point x="206" y="36"/>
			<point x="138" y="138"/>
			<point x="159" y="286" type="curve" smooth="yes"/>
			<point x="160" y="293" type="line" smooth="yes"/>
			<point x="178" y="417"/>
			<point x="251" y="486"/>
			<point x="375" y="486" type="curve" smooth="yes"/>
			<point x="438" y="486"/>
			<point x="487" y="472"/>
			<point x="526" y="443" type="curve"/>
			<point x="533" y="495" type="line"/>
			<point x="493" y="522"/>
			<point x="432" y="535"/>
			<point x="379" y="535" type="curve" smooth="yes"/>
			<point x="222" y="535"/>
			<point x="124" y="441"/>
			<point x="104" y="299" type="curve" smooth="yes"/>
			<point x="102" y="285" type="line" smooth="yes"/>
			<point x="80" y="128"/>
			<point x="151" y="10"/>
			<point x="301" y="-9" type="curve"/>
			<point x="254" y="-89" type="line"/>
			<point x="264" y="-87"/>
			<point x="277" y="-85"/>
			<point x="293" y="-85" type="curve" smooth="yes"/>
			<point x="330" y="-85"/>
			<point x="355" y="-95"/>
			<point x="355" y="-125" type="curve" smooth="yes"/>
			<point x="355" y="-160"/>
			<point x="329" y="-171"/>
			<point x="292" y="-171" type="curve" smooth="yes"/>
			<point x="266" y="-171"/>
			<point x="238" y="-164"/>
			<point x="217" y="-151" type="curve"/>
			<point x="211" y="-193" type="line"/>
			<point x="230" y="-206"/>
			<point x="263" y="-214"/>
			<point x="293" y="-214" type="curve" smooth="yes"/>
			<point x="356" y="-214"/>
			<point x="399" y="-183"/>
			<point x="401" y="-125" type="curve" smooth="yes"/>
			<point x="403" y="-78"/>
			<point x="377" y="-52"/>
			<point x="323" y="-48" type="curve"/>
			<point x="345" y="-12" type="line"/>
		</contour>
	</outline>
</glyph>
<glyph name="dcroat" format="2">
	<unicode hex="0111"/>
	<advance width="600"/>
	<outline>
		<contour>
			<point x="243" y="-14" type="curve" smooth="yes"/>
			<point x="315" y="-14"/>
			<point x="380" y="19"/>
			<point x="419" y="106" type="curve"/>
			<point x="403" y="0" type="line"/>
			<point x="457" y="0" type="line"/>
			<point x="542" y="602" type="line"/>
			<point x="618" y="602" type="line"/>
			<point x="624" y="647" type="line"/>
			<point x="548" y="647" type="line"/>
			<point x="563" y="750" type="line"/>
			<point x="509" y="750" type="line"/>
			<point x="494" y="647" type="line"/>
			<point x="329" y="647" type="line"/>
			<point x="323" y="602" type="line"/>
			<point x="488" y="602" type="line"/>
			<point x="477" y="523" type="line"/>
			<point x="384" y="523" type="line" smooth="yes"/>
			<point x="215" y="523"/>
			<point x="102" y="424"/>
			<point x="79" y="264" type="curve" smooth="yes"/>
			<point x="77" y="250" type="line" smooth="yes"/>
			<point x="53" y="80"/>
			<point x="124" y="-14"/>
		</contour>
		<contour>
			<point x="134" y="252" type="curve" smooth="yes"/>
			<point x="135" y="259" type="line"/>
			<point x="156" y="403"/>
			<point x="241" y="476"/>
			<point x="376" y="476" type="curve" smooth="yes"/>
			<point x="471" y="476" type="line"/>
			<point x="435" y="222" type="line" smooth="yes"/>
			<point x="420" y="118"/>
			<point x="358" y="34"/>
			<point x="262" y="34" type="curve" smooth="yes"/>
			<point x="166" y="34"/>
			<point x="114" y="111"/>
		</contour>
	</outline>
</glyph>
<glyph name="Eogonek" format="2">
	<unicode hex="0118"/>
	<advance width="600"/>
	<outline>
		<contour>
			<point x="415" y="-203" type="curve" smooth="yes"/>
			<point x="434" y="-203"/>
			<point x="458" y="-198"/>
			<point x="468" y="-192" type="curve"/>
			<point x="474" y="-149" type="line"/>
			<point x="461" y="-154"/>
			<point x="443" y="-158"/>
			<point x="424" y="-158" type="curve" smooth="yes"/>
			<point x="391" y="-158"/>
			<point x="366" y="-146"/>
			<point x="366" y="-113" type="curve" smooth="yes"/>
			<point x="366" y="-72"/>
			<point x="397" y="-32"/>
			<point x="486" y="0" type="curve"/>
			<point x="493" y="50" type="line"/>
			<point x="125" y="50" type="line"/>
			<point x="163" y="319" type="line"/>
			<point x="488" y="319" type="line"/>
			<point x="496" y="368" type="line"/>
			<point x="170" y="368" type="line"/>
			<point x="208" y="635" type="line"/>
			<point x="566" y="635" type="line"/>
			<point x="574" y="684" type="line"/>
			<point x="160" y="684" type="line"/>
			<point x="64" y="0" type="line"/>
			<point x="427" y="0" type="line"/>
			<point x="357" y="-22"/>
			<point x="315" y="-71"/>
			<point x="315" y="-123" type="curve" smooth="yes"/>
			<point x="315" y="-182"/>
			<point x="355" y="-203"/>
		</contour>
	</outline>
</glyph>
<glyph name="eogonek" format="2">
	<unicode hex="0119"/>
	<advance width="600"/>
	<outline>
		<contour>
			<point x="312" y="-14" type="curve" smooth="yes"/>
			<point x="322" y="-14" type="line"/>
			<point x="271" y="-40"/>
			<point x="243" y="-81"/>
			<point x="243" y="-123" type="curve" smooth="yes"/>
			<point x="243" y="-182"/>
			<point x="283" y="-203"/>
			<point x="343" y="-203" type="curve" smooth="yes"/>
			<point x="362" y="-203"/>
			<point x="386" y="-198"/>
			<point x="396" y="-192" type="curve"/>
			<point x="402" y="-149" type="line"/>
			<point x="389" y="-154"/>
			<point x="371" y="-158"/>
			<point x="352" y="-158" type="curve" smooth="yes"/>
			<point x="319" y="-158"/>
			<point x="294" y="-146"/>
			<point x="294" y="-113" type="curve" smooth="yes"/>
			<point x="294" y="-72"/>
			<point x="325" y="-32"/>
			<point x="413" y="-1" type="curve"/>
			<point x="435" y="6"/>
			<point x="454" y="15"/>
			<point x="470" y="25" type="curve"/>
			<point x="477" y="77" type="line"/>
			<point x="437" y="51"/>
			<point x="386" y="34"/>
			<point x="316" y="34" type="curve" smooth="yes"/>
			<point x="193" y="34"/>
			<point x="126" y="114"/>
			<point x="137" y="249" type="curve"/>
			<point x="515" y="249" type="line"/>
			<point x="519" y="277" type="line" smooth="yes"/>
			<point x="542" y="438"/>
			<point x="464" y="537"/>
			<point x="331" y="537" type="curve" smooth="yes"/>
			<point x="207" y="537"/>
			<point x="108" y="440"/>
			<point x="87" y="295" type="curve" smooth="yes"/>
			<point x="85" y="281" type="line" smooth="yes"/>
			<point x="63" y="125"/>
			<point x="123" y="-14"/>
		</contour>
		<contour>
			<point x="327" y="491" type="curve" smooth="yes"/>
			<point x="425" y="491"/>
			<point x="481" y="414"/>
			<point x="466" y="293" type="curve"/>
			<point x="142" y="293" type="line"/>
			<point x="159" y="419"/>
			<point x="236" y="491"/>
		</contour>
	</outline>
</glyph>
<glyph name="Iogonek" format="2">
	<unicode hex="012E"/>
	<advance width="600"/>
	<outline>
		<contour>
			<point x="54" y="0" type="line"/>
			<point x="412" y="0" type="line"/>
			<point x="342" y="-22"/>
			<point x="300" y="-71"/>
			<point x="300" y="-123" type="curve" smooth="yes"/>
			<point x="300" y="-182"/>
			<point x="340" y="-203"/>
			<point x="400" y="-203" type="curve" smooth="yes"/>
			<point x="419" y="-203"/>
			<point x="443" y="-198"/>
			<point x="453" y="-192" type="curve"/>
			<point x="459" y="-149" type="line"/>
			<point x="446" y="-154"/>
			<point x="428" y="-158"/>
			<point x="409" y="-158" type="curve" smooth="yes"/>
			<point x="376" y="-158"/>
			<point x="351" y="-146"/>
			<point x="351" y="-113" type="curve" smooth="yes"/>
			<point x="351" y="-72"/>
			<point x="382" y="-32"/>
			<point x="471" y="0" type="curve"/>
			<point x="479" y="49" type="line"/>
			<point x="297" y="49" type="line"/>
			<point x="379" y="635" type="line"/>
			<point x="560" y="635" type="line"/>
			<point x="567" y="684" type="line"/>
			<point x="150" y="684" type="line"/>
			<point x="143" y="635" type="line"/>
			<point x="324" y="635" type="line"/>
			<point x="242" y="49" type="line"/>
			<point x="61" y="49" type="line"/>
		</contour>
	</outline>
</glyph>
<glyph name="iogonek" format="2">
	<unicode hex="012F"/>
	<advance width="600"/>
	<outline>
		<contour>
			<point x="372" y="650" type="curve" smooth="yes"/>
			<point x="408" y="650"/>
			<point x="420" y="666"/>
			<point x="423" y="695" type="curve" smooth="yes"/>
			<point x="426" y="722"/>
			<point x="412" y="738"/>
			<point x="379" y="738" type="curve" smooth="yes"/>
			<point x="342" y="738"/>
			<point x="330" y="722"/>
			<point x="327" y="694" type="curve" smooth="yes"/>
			<point x="324" y="666"/>
			<point x="338" y="650"/>
		</contour>
		<contour>
			<point x="56" y="0" type="line"/>
			<point x="439" y="0" type="line"/>
			<point x="369" y="-22"/>
			<point x="327" y="-71"/>
			<point x="327" y="-123" type="curve" smooth="yes"/>
			<point x="327" y="-182"/>
			<point x="367" y="-203"/>
			<point x="427" y="-203" type="curve" smooth="yes"/>
			<point x="446" y="-203"/>
			<point x="470" y="-198"/>
			<point x="480" y="-192" type="curve"/>
			<point x="486" y="-149" type="line"/>
			<point x="473" y="-154"/>
			<point x="455" y="-158"/>
			<point x="436" y="-158" type="curve" smooth="yes"/>
			<point x="403" y="-158"/>
			<point x="378" y="-146"/>
			<point x="378" y="-113" type="curve" smooth="yes"/>
			<point x="378" y="-72"/>
			<point x="409" y="-32"/>
			<point x="498" y="0" type="curve"/>
			<point x="506" y="48" type="line"/>
			<point x="315" y="48" type="line"/>
			<point x="382" y="523" type="line"/>
			<point x="130" y="523" type="line"/>
			<point x="123" y="475" type="line"/>
			<point x="321" y="475" type="line"/>
			<point x="261" y="48" type="line"/>
			<point x="63" y="48" type="line"/>
		</contour>
	</outline>
</glyph>
<glyph name="dotlessi" format="2">
	<unicode hex="0131"/>
	<advance width="600"/>
	<outline>
		<contour>
			<point x="56" y="0" type="line"/>
			<point x="498" y="0" type="line"/>
			<point x="506" y="48" type="line"/>
			<point x="315" y="48" type="line"/>
			<point x="382" y="523" type="line"/>
			<point x="130" y="523" type="line"/>
			<point x="123" y="475" type="line"/>
			<point x="321" y="475" type="line"/>
			<point x="261" y="48" type="line"/>
			<point x="63" y="48" type="line"/>
		</contour>
	</outline>
	<anchor name="ogonek" x="498" y="0"/>
	<anchor name="top" x="355" y="523"/>
</glyph>
<glyph name="kgreenlandic" format="2">
	<unicode hex="0138"/>
	<advance width="600"/>
	<outline>
		<contour>
			<point x="91" y="0" type="line"/>
			<point x="144" y="0" type="line"/>
			<point x="164" y="136" type="line"/>
			<point x="289" y="263" type="line"/>
			<point x="420" y="0" type="line"/>
			<point x="480" y="0" type="line"/>
			<point x="331" y="299" type="line"/>
			<point x="546" y="523" type="line"/>
			<point x="478" y="523" type="line"/>
			<point x="172" y="200" type="line"/>
			<point x="218" y="523" type="line"/>
			<point x="165" y="523" type="line"/>
		</contour>
	</outline>
</glyph>
<glyph name="Ldot" format="2">
	<unicode hex="013F"/>
	<advance width="600"/>
	<outline>
		<contour>
			<point x="70" y="0" type="line"/>
			<point x="492" y="0" type="line"/>
			<point x="500" y="50" type="line"/>
			<point x="132" y="50" type="line"/>
			<point x="220" y="684" type="line"/>
			<point x="166" y="684" type="line"/>
		</contour>
		<contour>
			<point x="447" y="349" type="curve" smooth="yes"/>
			<point x="488" y="349"/>
			<point x="503" y="367"/>
			<point x="507" y="397" type="curve" smooth="yes"/>
			<point x="511" y="428"/>
			<point x="500" y="452"/>
			<point x="454" y="452" type="curve" smooth="yes"/>
			<point x="413" y="452"/>
			<point x="398" y="434"/>
			<point x="394" y="404" type="curve" smooth="yes"/>
			<point x="390" y="373"/>
			<point x="401" y="349"/>
		</contour>
	</outline>
</glyph>
<glyph name="Lslash" format="2">
	<unicode hex="0141"/>
	<advance width="600"/>
	<outline>
		<contour>
			<point x="70" y="0" type="line"/>
			<point x="492" y="0" type="line"/>
			<point x="500" y="50" type="line"/>
			<point x="132" y="50" type="line"/>
			<point x="168" y="310" type="line"/>
			<point x="364" y="385" type="line"/>
			<point x="371" y="436" type="line"/>
			<point x="175" y="361" type="line"/>
			<point x="220" y="684" type="line"/>
			<point x="166" y="684" type="line"/>
			<point x="118" y="339" type="line"/>
			<point x="30" y="305" type="line"/>
			<point x="23" y="254" type="line"/>
			<point x="110" y="288" type="line"/>
		</contour>
	</outline>
</glyph>
<glyph name="lslash" format="2">
	<unicode hex="0142"/>
	<advance width="600"/>
	<outline>
		<contour>
			<point x="45" y="0" type="line"/>
			<point x="487" y="0" type="line"/>
			<point x="495" y="48" type="line"/>
			<point x="304" y="48" type="line"/>
			<point x="349" y="361" type="line"/>
			<point x="540" y="431" type="line"/>
			<point x="547" y="483" type="line"/>
			<point x="356" y="413" type="line"/>
			<point x="405" y="750" type="line"/>
			<point x="153" y="750" type="line"/>
			<point x="146" y="702" type="line"/>
			<point x="345" y="702" type="line"/>
			<point x="300" y="392" type="line"/>
			<point x="116" y="324" type="line"/>
			<point x="109" y="272" type="line"/>
			<point x="292" y="340" type="line"/>
			<point x="250" y="48" type="line"/>
			<point x="52" y="48" type="line"/>
		</contour>
	</outline>
</glyph>
<glyph name="Eng" format="2">
	<unicode hex="014A"/>
	<advance width="600"/>
	<outline>
		<contour>
			<point x="273" y="-214" type="curve" smooth="yes"/>
			<point x="382" y="-214"/>
			<point x="456" y="-163"/>
			<point x="475" y="-26" type="curve" smooth="yes"/>
			<point x="574" y="685" type="line"/>
			<point x="522" y="685" type="line"/>
			<point x="466" y="285" type="line" smooth="yes"/>
			<point x="452" y="186"/>
			<point x="445" y="128"/>
			<point x="440" y="67" type="curve"/>
			<point x="434" y="67" type="line"/>
			<point x="220" y="685" type="line"/>
			<point x="145" y="685" type="line"/>
			<point x="49" y="0" type="line"/>
			<point x="102" y="0" type="line"/>
			<point x="158" y="401" type="line" smooth="yes"/>
			<point x="172" y="499"/>
			<point x="178" y="557"/>
			<point x="183" y="617" type="curve"/>
			<point x="188" y="617" type="line"/>
			<point x="402" y="0" type="line"/>
			<point x="426" y="0" type="line"/>
			<point x="423" y="-25" type="line" smooth="yes"/>
			<point x="408" y="-132"/>
			<point x="353" y="-167"/>
			<point x="273" y="-167" type="curve" smooth="yes"/>
			<point x="231" y="-167"/>
			<point x="193" y="-157"/>
			<point x="171" y="-146" type="curve"/>
			<point x="164" y="-193" type="line"/>
			<point x="187" y="-205"/>
			<point x="227" y="-214"/>
		</contour>
	</outline>
	<anchor name="bottom" x="264" y="0"/>
	<anchor name="top" x="408" y="720"/>
</glyph>
<glyph name="scedilla" format="2">
	<unicode hex="015F"/>
	<advance width="600"/>
	<outline>
		<contour>
			<point x="237" y="-214" type="curve" smooth="yes"/>
			<point x="300" y="-214"/>
			<point x="343" y="-183"/>
			<point x="345" y="-125" type="curve" smooth="yes"/>
			<point x="347" y="-78"/>
			<point x="321" y="-52"/>
			<point x="267" y="-48" type="curve"/>
			<point x="288" y="-14" type="line"/>
			<point x="410" y="-10"/>
			<point x="483" y="52"/>
			<point x="483" y="150" type="curve" smooth="yes"/>
			<point x="483" y="248"/>
			<point x="409" y="266"/>
			<point x="307" y="287" type="curve" smooth="yes"/>
			<point x="216" y="306"/>
			<point x="170" y="316"/>
			<point x="170" y="379" type="curve" smooth="yes"/>
			<point x="170" y="449"/>
			<point x="224" y="491"/>
			<point x="317" y="491" type="curve" smooth="yes"/>
			<point x="386" y="491"/>
			<point x="474" y="466"/>
			<point x="518" y="422" type="curve"/>
			<point x="526" y="479" type="line"/>
			<point x="474" y="517"/>
			<point x="395" y="537"/>
			<point x="324" y="537" type="curve" smooth="yes"/>
			<point x="193" y="537"/>
			<point x="116" y="469"/>
			<point x="116" y="371" type="curve" smooth="yes"/>
			<point x="116" y="279"/>
			<point x="185" y="259"/>
			<point x="293" y="238" type="curve" smooth="yes"/>
			<point x="387" y="220"/>
			<point x="430" y="208"/>
			<point x="430" y="144" type="curve" smooth="yes"/>
			<point x="430" y="72"/>
			<point x="376" y="33"/>
			<point x="281" y="33" type="curve" smooth="yes"/>
			<point x="220" y="33"/>
			<point x="141" y="49"/>
			<point x="81" y="108" type="curve"/>
			<point x="73" y="52" type="line"/>
			<point x="113" y="16"/>
			<point x="175" y="-7"/>
			<point x="243" y="-13" type="curve"/>
			<point x="198" y="-89" type="line"/>
			<point x="208" y="-87"/>
			<point x="221" y="-85"/>
			<point x="237" y="-85" type="curve" smooth="yes"/>
			<point x="274" y="-85"/>
			<point x="299" y="-95"/>
			<point x="299" y="-125" type="curve" smooth="yes"/>
			<point x="299" y="-160"/>
			<point x="273" y="-171"/>
			<point x="236" y="-171" type="curve" smooth="yes"/>
			<point x="210" y="-171"/>
			<point x="182" y="-164"/>
			<point x="161" y="-151" type="curve"/>
			<point x="155" y="-193" type="line"/>
			<point x="174" y="-206"/>
			<point x="207" y="-214"/>
		</contour>
	</outline>
</glyph>
<glyph name="Tbar" format="2">
	<unicode hex="0166"/>
	<advance width="600"/>
	<outline>
		<contour>
			<point x="234" y="0" type="line"/>
			<point x="289" y="0" type="line"/>
			<point x="338" y="346" type="line"/>
			<point x="473" y="346" type="line"/>
			<point x="479" y="392" type="line"/>
			<point x="345" y="392" type="line"/>
			<point x="379" y="635" type="line"/>
			<point x="596" y="635" type="line"/>
			<point x="604" y="684" type="line"/>
			<point x="114" y="684" type="line"/>
			<point x="107" y="635" type="line"/>
			<point x="324" y="635" type="line"/>
			<point x="290" y="392" type="line"/>
			<point x="155" y="392" type="line"/>
			<point x="148" y="346" type="line"/>
			<point x="283" y="346" type="line"/>
		</contour>
	</outline>
</glyph>
<glyph name="tbar" format="2">
	<unicode hex="0167"/>
	<advance width="600"/>
	<outline>
		<contour>
			<point x="82" y="277" type="line"/>
			<point x="219" y="277" type="line"/>
			<point x="204" y="170" type="line" smooth="yes"/>
			<point x="185" y="32"/>
			<point x="258" y="-12"/>
			<point x="358" y="-12" type="curve"/>
			<point x="401" y="-12"/>
			<point x="445" y="0"/>
			<point x="465" y="11" type="curve"/>
			<point x="471" y="59" type="line"/>
			<point x="448" y="47"/>
			<point x="404" y="36"/>
			<point x="365" y="36" type="curve" smooth="yes"/>
			<point x="277" y="36"/>
			<point x="245" y="76"/>
			<point x="259" y="176" type="curve" smooth="yes"/>
			<point x="273" y="277" type="line"/>
			<point x="501" y="277" type="line"/>
			<point x="507" y="322" type="line"/>
			<point x="279" y="322" type="line"/>
			<point x="300" y="475" type="line"/>
			<point x="527" y="475" type="line"/>
			<point x="535" y="523" type="line"/>
			<point x="306" y="523" type="line"/>
			<point x="330" y="692" type="line"/>
			<point x="291" y="692" type="line"/>
			<point x="266" y="579" type="line" smooth="yes"/>
			<point x="255" y="529"/>
			<point x="235" y="520"/>
			<point x="201" y="520" type="curve" smooth="yes"/>
			<point x="106" y="520" type="line"/>
			<point x="100" y="475" type="line"/>
			<point x="247" y="475" type="line"/>
			<point x="225" y="322" type="line"/>
			<point x="88" y="322" type="line"/>
		</contour>
	</outline>
	<guideline x="310" y="545" angle="90"/>
	<guideline x="101" y="359" angle="82"/>
</glyph>
<glyph name="Uogonek" format="2">
	<unicode hex="0172"/>
	<advance width="600"/>
	<outline>
		<contour>
			<point x="287" y="-203" type="curve" smooth="yes"/>
			<point x="306" y="-203"/>
			<point x="330" y="-198"/>
			<point x="340" y="-192" type="curve"/>
			<point x="346" y="-149" type="line"/>
			<point x="333" y="-154"/>
			<point x="315" y="-158"/>
			<point x="296" y="-158" type="curve" smooth="yes"/>
			<point x="263" y="-158"/>
			<point x="238" y="-146"/>
			<point x="238" y="-113" type="curve" smooth="yes"/>
			<point x="238" y="-72"/>
			<point x="269" y="-32"/>
			<point x="358" y="0" type="curve"/>
			<point x="358" y="0" type="line"/>
			<point x="449" y="31"/>
			<point x="497" y="114"/>
			<point x="512" y="223" type="curve" smooth="yes"/>
			<point x="576" y="684" type="line"/>
			<point x="522" y="684" type="line"/>
			<point x="457" y="223" type="line" smooth="yes"/>
			<point x="441" y="112"/>
			<point x="394" y="34"/>
			<point x="276" y="34" type="curve" smooth="yes"/>
			<point x="160" y="34"/>
			<point x="118" y="124"/>
			<point x="135" y="243" type="curve" smooth="yes"/>
			<point x="197" y="684" type="line"/>
			<point x="142" y="684" type="line"/>
			<point x="81" y="243" type="line" smooth="yes"/>
			<point x="59" y="87"/>
			<point x="120" y="-13"/>
			<point x="266" y="-14" type="curve"/>
			<point x="215" y="-40"/>
			<point x="187" y="-81"/>
			<point x="187" y="-123" type="curve" smooth="yes"/>
			<point x="187" y="-182"/>
			<point x="227" y="-203"/>
		</contour>
	</outline>
</glyph>
<glyph name="uogonek" format="2">
	<unicode hex="0173"/>
	<advance width="600"/>
	<outline>
		<contour>
			<point x="386" y="-203" type="curve" smooth="yes"/>
			<point x="405" y="-203"/>
			<point x="429" y="-198"/>
			<point x="439" y="-192" type="curve"/>
			<point x="445" y="-149" type="line"/>
			<point x="432" y="-154"/>
			<point x="414" y="-158"/>
			<point x="395" y="-158" type="curve" smooth="yes"/>
			<point x="362" y="-158"/>
			<point x="337" y="-146"/>
			<point x="337" y="-113" type="curve" smooth="yes"/>
			<point x="337" y="-72"/>
			<point x="368" y="-32"/>
			<point x="457" y="0" type="curve"/>
			<point x="531" y="523" type="line"/>
			<point x="477" y="523" type="line"/>
			<point x="435" y="225" type="line" smooth="yes"/>
			<point x="429" y="180"/>
			<point x="416" y="140"/>
			<point x="396" y="108" type="curve" smooth="yes"/>
			<point x="367" y="61"/>
			<point x="322" y="33"/>
			<point x="261" y="33" type="curve" smooth="yes"/>
			<point x="180" y="33"/>
			<point x="131" y="86"/>
			<point x="147" y="197" type="curve" smooth="yes"/>
			<point x="193" y="523" type="line"/>
			<point x="139" y="523" type="line"/>
			<point x="92" y="188" type="line" smooth="yes"/>
			<point x="73" y="55"/>
			<point x="142" y="-14"/>
			<point x="243" y="-14" type="curve" smooth="yes"/>
			<point x="323" y="-14"/>
			<point x="382" y="25"/>
			<point x="417" y="93" type="curve"/>
			<point x="403" y="2" type="line"/>
			<point x="328" y="-22"/>
			<point x="286" y="-71"/>
			<point x="286" y="-123" type="curve" smooth="yes"/>
			<point x="286" y="-182"/>
			<point x="326" y="-203"/>
		</contour>
	</outline>
</glyph>
<glyph name="dotlessj" format="2">
	<unicode hex="0237"/>
	<advance width="600"/>
	<outline>
		<contour>
			<point x="178" y="-204" type="curve" smooth="yes"/>
			<point x="288" y="-204"/>
			<point x="387" y="-167"/>
			<point x="408" y="-18" type="curve" smooth="yes"/>
			<point x="483" y="523" type="line"/>
			<point x="131" y="523" type="line"/>
			<point x="124" y="475" type="line"/>
			<point x="422" y="475" type="line"/>
			<point x="355" y="-8" type="line" smooth="yes"/>
			<point x="341" y="-111"/>
			<point x="287" y="-156"/>
			<point x="177" y="-156" type="curve" smooth="yes"/>
			<point x="121" y="-156"/>
			<point x="69" y="-138"/>
			<point x="37" y="-122" type="curve"/>
			<point x="31" y="-171" type="line"/>
			<point x="59" y="-187"/>
			<point x="119" y="-204"/>
		</contour>
	</outline>
	<anchor name="top" x="456" y="523"/>
</glyph>
<glyph name="caron" format="2">
	<unicode hex="02C7"/>
	<advance width="600"/>
	<outline>
		<contour>
			<point x="518" y="750" type="line"/>
			<point x="458" y="750" type="line"/>
			<point x="351" y="642" type="line"/>
			<point x="276" y="750" type="line"/>
			<point x="220" y="750" type="line"/>
			<point x="322" y="607" type="line"/>
			<point x="376" y="607" type="line"/>
		</contour>
	</outline>
	<anchor name="_top" x="337" y="523"/>
</glyph>
<glyph name="ring" format="2">
	<unicode hex="02DA"/>
	<advance width="600"/>
	<outline>
		<contour>
			<point x="357" y="597" type="curve" smooth="yes"/>
			<point x="429" y="597"/>
			<point x="476" y="644"/>
			<point x="476" y="720" type="curve" smooth="yes"/>
			<point x="476" y="785"/>
			<point x="430" y="819"/>
			<point x="369" y="819" type="curve" smooth="yes"/>
			<point x="297" y="819"/>
			<point x="250" y="772"/>
			<point x="250" y="698" type="curve" smooth="yes"/>
			<point x="250" y="631"/>
			<point x="293" y="597"/>
		</contour>
		<contour>
			<point x="357" y="635" type="curve" smooth="yes"/>
			<point x="313" y="635"/>
			<point x="290" y="661"/>
			<point x="290" y="701" type="curve" smooth="yes"/>
			<point x="290" y="754"/>
			<point x="318" y="782"/>
			<point x="369" y="782" type="curve" smooth="yes"/>
			<point x="414" y="782"/>
			<point x="435" y="757"/>
			<point x="435" y="719" type="curve" smooth="yes"/>
			<point x="435" y="664"/>
			<point x="408" y="635"/>
		</contour>
	</outline>
	<anchor name="_top" x="338" y="523"/>
</glyph>
<glyph name="ogonek" format="2">
	<unicode hex="02DB"/>
	<advance width="600"/>
	<outline>
		<contour>
			<point x="263" y="-203" type="curve" smooth="yes"/>
			<point x="282" y="-203"/>
			<point x="306" y="-198"/>
			<point x="316" y="-192" type="curve"/>
			<point x="322" y="-149" type="line"/>
			<point x="309" y="-154"/>
			<point x="291" y="-158"/>
			<point x="272" y="-158" type="curve" smooth="yes"/>
			<point x="239" y="-158"/>
			<point x="214" y="-146"/>
			<point x="214" y="-113" type="curve" smooth="yes"/>
			<point x="214" y="-72"/>
			<point x="245" y="-32"/>
			<point x="334" y="0" type="curve"/>
			<point x="281" y="2" type="line"/>
			<point x="205" y="-22"/>
			<point x="163" y="-71"/>
			<point x="163" y="-123" type="curve" smooth="yes"/>
			<point x="163" y="-182"/>
			<point x="203" y="-203"/>
		</contour>
	</outline>
	<anchor name="_ogonek" x="334" y="0"/>
</glyph>
<glyph name="pi" format="2">
	<unicode hex="03C0"/>
	<advance width="600"/>
	<outline>
		<contour>
			<point x="85" y="-1" type="line"/>
			<point x="139" y="-1" type="line"/>
			<point x="206" y="476" type="line"/>
			<point x="441" y="476" type="line"/>
			<point x="388" y="100" type="line" smooth="yes"/>
			<point x="376" y="15"/>
			<point x="419" y="-12"/>
			<point x="478" y="-12" type="curve" smooth="yes"/>
			<point x="502" y="-12"/>
			<point x="519" y="-7"/>
			<point x="525" y="-4" type="curve"/>
			<point x="532" y="41" type="line"/>
			<point x="521" y="37"/>
			<point x="504" y="35"/>
			<point x="492" y="35" type="curve" smooth="yes"/>
			<point x="455" y="35"/>
			<point x="434" y="50"/>
			<point x="441" y="99" type="curve" smooth="yes"/>
			<point x="494" y="476" type="line"/>
			<point x="593" y="476" type="line"/>
			<point x="600" y="523" type="line"/>
			<point x="59" y="523" type="line"/>
			<point x="52" y="476" type="line"/>
			<point x="152" y="476" type="line"/>
		</contour>
	</outline>
	<guideline x="600" y="523" angle="82"/>
</glyph>
<glyph name="emdash" format="2">
	<unicode hex="2014"/>
	<advance width="600"/>
	<outline>
		<contour>
			<point x="611" y="339" type="line"/>
			<point x="12" y="339" type="line"/>
			<point x="4" y="287" type="line"/>
			<point x="603" y="287" type="line"/>
		</contour>
	</outline>
</glyph>
<glyph name="quoteleft" format="2">
	<unicode hex="2018"/>
	<advance width="600"/>
	<outline>
		<contour>
			<point x="352" y="480" type="line"/>
			<point x="447" y="750" type="line"/>
			<point x="405" y="750" type="line"/>
			<point x="263" y="480" type="line"/>
		</contour>
	</outline>
</glyph>
<glyph name="quotedblleft" format="2">
	<unicode hex="201C"/>
	<advance width="600"/>
	<outline>
		<contour>
			<point x="419" y="480" type="line"/>
			<point x="514" y="750" type="line"/>
			<point x="472" y="750" type="line"/>
			<point x="330" y="480" type="line"/>
		</contour>
		<contour>
			<point x="257" y="480" type="line"/>
			<point x="352" y="750" type="line"/>
			<point x="310" y="750" type="line"/>
			<point x="168" y="480" type="line"/>
		</contour>
	</outline>
</glyph>
<glyph name="dagger" format="2">
	<unicode hex="2020"/>
	<advance width="600"/>
	<outline>
		<contour>
			<point x="133" y="570" type="line"/>
			<point x="126" y="521" type="line"/>
			<point x="309" y="521" type="line"/>
			<point x="215" y="-143" type="line"/>
			<point x="270" y="-143" type="line"/>
			<point x="364" y="521" type="line"/>
			<point x="546" y="521" type="line"/>
			<point x="553" y="570" type="line"/>
			<point x="371" y="570" type="line"/>
			<point x="398" y="765" type="line"/>
			<point x="343" y="765" type="line"/>
			<point x="316" y="570" type="line"/>
		</contour>
	</outline>
</glyph>
<glyph name="bullet" format="2">
	<unicode hex="2022"/>
	<advance width="600"/>
	<outline>
		<contour>
			<point x="298" y="184" type="curve" smooth="yes"/>
			<point x="379" y="184"/>
			<point x="407" y="228"/>
			<point x="416" y="295" type="curve" smooth="yes"/>
			<point x="425" y="358"/>
			<point x="403" y="417"/>
			<point x="313" y="417" type="curve" smooth="yes"/>
			<point x="232" y="417"/>
			<point x="203" y="373"/>
			<point x="194" y="306" type="curve" smooth="yes"/>
			<point x="185" y="243"/>
			<point x="207" y="184"/>
		</contour>
	</outline>
</glyph>
<glyph name="perthousand" format="2">
	<unicode hex="2030"/>
	<advance width="600"/>
	<outline>
		<contour>
			<point x="173" y="393" type="curve" smooth="yes"/>
			<point x="242" y="393"/>
			<point x="294" y="443"/>
			<point x="307" y="535" type="curve" smooth="yes"/>
			<point x="323" y="643"/>
			<point x="270" y="691"/>
			<point x="197" y="691" type="curve" smooth="yes"/>
			<point x="128" y="691"/>
			<point x="77" y="642"/>
			<point x="64" y="550" type="curve" smooth="yes"/>
			<point x="48" y="442"/>
			<point x="100" y="393"/>
		</contour>
		<contour>
			<point x="175" y="429" type="curve" smooth="yes"/>
			<point x="116" y="429"/>
			<point x="96" y="471"/>
			<point x="106" y="547" type="curve" smooth="yes"/>
			<point x="115" y="612"/>
			<point x="143" y="656"/>
			<point x="196" y="656" type="curve" smooth="yes"/>
			<point x="254" y="656"/>
			<point x="274" y="614"/>
			<point x="264" y="537" type="curve" smooth="yes"/>
			<point x="256" y="474"/>
			<point x="228" y="429"/>
		</contour>
		<contour>
			<point x="25" y="275" type="line"/>
			<point x="586" y="413" type="line"/>
			<point x="592" y="455" type="line"/>
			<point x="31" y="316" type="line"/>
		</contour>
		<contour>
			<point x="220" y="-7" type="curve" smooth="yes"/>
			<point x="264" y="-7"/>
			<point x="301" y="13"/>
			<point x="324" y="51" type="curve"/>
			<point x="342" y="12"/>
			<point x="379" y="-7"/>
			<point x="424" y="-7" type="curve" smooth="yes"/>
			<point x="493" y="-7"/>
			<point x="545" y="43"/>
			<point x="558" y="135" type="curve" smooth="yes"/>
			<point x="574" y="243"/>
			<point x="522" y="291"/>
			<point x="450" y="291" type="curve" smooth="yes"/>
			<point x="406" y="291"/>
			<point x="369" y="271"/>
			<point x="346" y="232" type="curve"/>
			<point x="328" y="272"/>
			<point x="291" y="291"/>
			<point x="246" y="291" type="curve" smooth="yes"/>
			<point x="177" y="291"/>
			<point x="125" y="242"/>
			<point x="112" y="150" type="curve" smooth="yes"/>
			<point x="96" y="42"/>
			<point x="148" y="-7"/>
		</contour>
		<contour>
			<point x="223" y="29" type="curve" smooth="yes"/>
			<point x="164" y="29"/>
			<point x="144" y="71"/>
			<point x="154" y="147" type="curve" smooth="yes"/>
			<point x="163" y="212"/>
			<point x="191" y="256"/>
			<point x="244" y="256" type="curve" smooth="yes"/>
			<point x="302" y="256"/>
			<point x="322" y="214"/>
			<point x="312" y="137" type="curve" smooth="yes"/>
			<point x="304" y="74"/>
			<point x="276" y="29"/>
		</contour>
		<contour>
			<point x="426" y="29" type="curve" smooth="yes"/>
			<point x="367" y="29"/>
			<point x="347" y="71"/>
			<point x="357" y="147" type="curve" smooth="yes"/>
			<point x="366" y="212"/>
			<point x="394" y="256"/>
			<point x="447" y="256" type="curve" smooth="yes"/>
			<point x="505" y="256"/>
			<point x="525" y="214"/>
			<point x="515" y="137" type="curve" smooth="yes"/>
			<point x="507" y="74"/>
			<point x="479" y="29"/>
		</contour>
	</outline>
</glyph>
<glyph name="published" format="2">
	<unicode hex="2117"/>
	<advance width="600"/>
	<outline>
		<contour>
			<point x="302" y="106" type="curve" smooth="yes"/>
			<point x="442" y="106"/>
			<point x="543" y="197"/>
			<point x="565" y="349" type="curve" smooth="yes"/>
			<point x="567" y="363" type="line" smooth="yes"/>
			<point x="590" y="527"/>
			<point x="498" y="657"/>
			<point x="331" y="657" type="curve" smooth="yes"/>
			<point x="187" y="657"/>
			<point x="90" y="566"/>
			<point x="69" y="417" type="curve" smooth="yes"/>
			<point x="67" y="403" type="line" smooth="yes"/>
			<point x="43" y="237"/>
			<point x="135" y="106"/>
		</contour>
		<contour>
			<point x="305" y="144" type="curve" smooth="yes"/>
			<point x="162" y="144"/>
			<point x="87" y="254"/>
			<point x="108" y="403" type="curve" smooth="yes"/>
			<point x="109" y="410" type="line" smooth="yes"/>
			<point x="128" y="546"/>
			<point x="208" y="619"/>
			<point x="329" y="619" type="curve" smooth="yes"/>
			<point x="472" y="619"/>
			<point x="547" y="510"/>
			<point x="526" y="363" type="curve" smooth="yes"/>
			<point x="525" y="356" type="line" smooth="yes"/>
			<point x="505" y="217"/>
			<point x="421" y="144"/>
		</contour>
		<contour>
			<point x="210" y="248" type="line"/>
			<point x="247" y="248" type="line"/>
			<point x="260" y="338" type="line"/>
			<point x="324" y="338" type="line" smooth="yes"/>
			<point x="393" y="338"/>
			<point x="431" y="376"/>
			<point x="431" y="430" type="curve" smooth="yes"/>
			<point x="431" y="479"/>
			<point x="396" y="509"/>
			<point x="339" y="509" type="curve" smooth="yes"/>
			<point x="247" y="509" type="line"/>
		</contour>
		<contour>
			<point x="338" y="479" type="line" smooth="yes"/>
			<point x="373" y="479"/>
			<point x="393" y="459"/>
			<point x="393" y="426" type="curve" smooth="yes"/>
			<point x="393" y="393"/>
			<point x="371" y="369"/>
			<point x="325" y="369" type="curve" smooth="yes"/>
			<point x="264" y="369" type="line"/>
			<point x="280" y="479" type="line"/>
		</contour>
	</outline>
</glyph>
<glyph name="trademark" format="2">
	<unicode hex="2122"/>
	<advance width="600"/>
	<outline>
		<contour>
			<point x="307" y="342" type="line"/>
			<point x="343" y="342" type="line"/>
			<point x="371" y="545" type="line" smooth="yes"/>
			<point x="376" y="578"/>
			<point x="380" y="613"/>
			<point x="382" y="644" type="curve"/>
			<point x="385" y="644" type="line"/>
			<point x="421" y="436" type="line"/>
			<point x="464" y="436" type="line"/>
			<point x="560" y="644" type="line"/>
			<point x="563" y="644" type="line"/>
			<point x="557" y="614"/>
			<point x="551" y="578"/>
			<point x="546" y="545" type="curve" smooth="yes"/>
			<point x="518" y="342" type="line"/>
			<point x="554" y="342" type="line"/>
			<point x="602" y="684" type="line"/>
			<point x="541" y="684" type="line"/>
			<point x="448" y="478" type="line"/>
			<point x="446" y="478" type="line"/>
			<point x="414" y="684" type="line"/>
			<point x="355" y="684" type="line"/>
		</contour>
		<contour>
			<point x="134" y="342" type="line"/>
			<point x="172" y="342" type="line"/>
			<point x="215" y="651" type="line"/>
			<point x="314" y="651" type="line"/>
			<point x="319" y="684" type="line"/>
			<point x="80" y="684" type="line"/>
			<point x="75" y="651" type="line"/>
			<point x="177" y="651" type="line"/>
		</contour>
	</outline>
</glyph>
<glyph name="arrowup" format="2">
	<unicode hex="2191"/>
	<advance width="600"/>
	<outline>
		<contour>
			<point x="239" y="0" type="line"/>
			<point x="289" y="0" type="line"/>
			<point x="374" y="610" type="line"/>
			<point x="546" y="409" type="line"/>
			<point x="556" y="478" type="line"/>
			<point x="362" y="703" type="line"/>
			<point x="106" y="478" type="line"/>
			<point x="96" y="409" type="line"/>
			<point x="324" y="610" type="line"/>
		</contour>
	</outline>
</glyph>
<glyph name="uni2197" format="2">
	<unicode hex="2197"/>
	<advance width="600"/>
	<outline>
		<contour>
			<point x="29" y="74" type="line"/>
			<point x="540" y="524" type="line"/>
			<point x="496" y="215" type="line"/>
			<point x="552" y="264" type="line"/>
			<point x="601" y="610" type="line"/>
			<point x="255" y="610" type="line"/>
			<point x="200" y="562" type="line"/>
			<point x="510" y="563" type="line"/>
			<point x="-3" y="113" type="line"/>
		</contour>
	</outline>
</glyph>
<glyph name="uni2198" format="2">
	<unicode hex="2198"/>
	<advance width="600"/>
	<outline>
		<contour>
			<point x="180" y="76" type="line"/>
			<point x="526" y="76" type="line"/>
			<point x="575" y="422" type="line"/>
			<point x="534" y="470" type="line"/>
			<point x="490" y="156" type="line"/>
			<point x="100" y="610" type="line"/>
			<point x="62" y="577" type="line"/>
			<point x="452" y="124" type="line"/>
			<point x="138" y="125" type="line"/>
		</contour>
	</outline>
</glyph>
<glyph name="partialdiff" format="2">
	<unicode hex="2202"/>
	<advance width="600"/>
	<outline>
		<contour>
			<point x="279" y="-14" type="curve" smooth="yes"/>
			<point x="415" y="-14"/>
			<point x="499" y="86"/>
			<point x="522" y="248" type="curve" smooth="yes"/>
			<point x="524" y="262" type="line" smooth="yes"/>
			<point x="554" y="474"/>
			<point x="456" y="599"/>
			<point x="341" y="684" type="curve"/>
			<point x="253" y="684" type="line"/>
			<point x="363" y="615"/>
			<point x="445" y="517"/>
			<point x="468" y="391" type="curve"/>
			<point x="435" y="456"/>
			<point x="379" y="494"/>
			<point x="302" y="494" type="curve" smooth="yes"/>
			<point x="186" y="494"/>
			<point x="97" y="407"/>
			<point x="78" y="273" type="curve" smooth="yes"/>
			<point x="76" y="259" type="line" smooth="yes"/>
			<point x="55" y="109"/>
			<point x="124" y="-14"/>
		</contour>
		<contour>
			<point x="281" y="34" type="curve" smooth="yes"/>
			<point x="175" y="34"/>
			<point x="113" y="117"/>
			<point x="133" y="257" type="curve" smooth="yes"/>
			<point x="134" y="264" type="line" smooth="yes"/>
			<point x="152" y="392"/>
			<point x="224" y="447"/>
			<point x="310" y="447" type="curve" smooth="yes"/>
			<point x="395" y="447"/>
			<point x="484" y="393"/>
			<point x="462" y="240" type="curve" smooth="yes"/>
			<point x="461" y="233" type="line" smooth="yes"/>
			<point x="445" y="120"/>
			<point x="387" y="34"/>
		</contour>
	</outline>
	<guideline x="584" y="276" angle="82"/>
</glyph>
<glyph name="product" format="2">
	<unicode hex="220F"/>
	<advance width="600"/>
	<outline>
		<contour>
			<point x="48" y="0" type="line"/>
			<point x="103" y="0" type="line"/>
			<point x="192" y="635" type="line"/>
			<point x="512" y="635" type="line"/>
			<point x="423" y="0" type="line"/>
			<point x="477" y="0" type="line"/>
			<point x="574" y="684" type="line"/>
			<point x="144" y="684" type="line"/>
		</contour>
	</outline>
</glyph>
<glyph name="lessequal" format="2">
	<unicode hex="2264"/>
	<advance width="600"/>
	<outline>
		<contour>
			<point x="499" y="113" type="line"/>
			<point x="507" y="170" type="line"/>
			<point x="149" y="335" type="line"/>
			<point x="554" y="501" type="line"/>
			<point x="562" y="560" type="line"/>
			<point x="97" y="367" type="line"/>
			<point x="89" y="308" type="line"/>
		</contour>
		<contour>
			<point x="41" y="-14" type="line"/>
			<point x="481" y="-14" type="line"/>
			<point x="488" y="37" type="line"/>
			<point x="48" y="37" type="line"/>
		</contour>
	</outline>
	<guideline x="513" y="224" angle="82"/>
</glyph>
<glyph name="uni2605" format="2">
	<unicode hex="2605"/>
	<advance width="600"/>
	<outline>
		<contour>
			<point x="329" y="304" type="line"/>
			<point x="257" y="85" type="line"/>
			<point x="443" y="220" type="line"/>
			<point x="630" y="85" type="line"/>
			<point x="558" y="303" type="line"/>
			<point x="745" y="437" type="line"/>
			<point x="515" y="438" type="line"/>
			<point x="444" y="656" type="line"/>
			<point x="372" y="438" type="line"/>
			<point x="143" y="439" type="line"/>
		</contour>
	</outline>
</glyph>
<glyph name="uni267B" format="2">
	<unicode hex="267B"/>
	<advance width="600"/>
	<outline>
		<contour>
			<point x="346" y="680" type="line"/>
			<point x="346" y="680"/>
			<point x="397" y="677"/>
			<point x="423" y="632" type="curve" smooth="yes"/>
			<point x="484" y="526" type="line"/>
			<point x="450" y="506" type="line"/>
			<point x="595" y="479" type="line"/>
			<point x="648" y="621" type="line"/>
			<point x="611" y="600" type="line"/>
			<point x="587" y="641" type="line" smooth="yes"/>
			<point x="566" y="679"/>
			<point x="541" y="680"/>
			<point x="510" y="681" type="curve"/>
			<point x="346" y="681" type="line"/>
		</contour>
		<contour>
			<point x="230" y="628" type="curve" smooth="yes"/>
			<point x="173" y="527" type="line"/>
			<point x="300" y="454" type="line"/>
			<point x="398" y="624" type="line"/>
			<point x="381" y="657"/>
			<point x="309" y="684"/>
			<point x="259" y="654" type="curve" smooth="yes"/>
			<point x="245" y="647"/>
			<point x="234" y="635"/>
		</contour>
		<contour>
			<point x="745" y="368" type="curve" smooth="yes"/>
			<point x="686" y="467" type="line"/>
			<point x="560" y="395" type="line"/>
			<point x="658" y="225" type="line"/>
			<point x="693" y="225"/>
			<point x="754" y="272"/>
			<point x="753" y="331" type="curve" smooth="yes"/>
			<point x="753" y="346"/>
			<point x="749" y="361"/>
		</contour>
		<contour>
			<point x="162" y="125" type="line"/>
			<point x="162" y="125"/>
			<point x="140" y="173"/>
			<point x="165" y="216" type="curve"/>
			<point x="167" y="220"/>
			<point x="226" y="322"/>
			<point x="226" y="322" type="curve"/>
			<point x="261" y="301" type="line"/>
			<point x="211" y="442" type="line"/>
			<point x="63" y="416" type="line"/>
			<point x="99" y="395" type="line"/>
			<point x="75" y="353" type="line" smooth="yes"/>
			<point x="53" y="316"/>
			<point x="64" y="294"/>
			<point x="79" y="267" type="curve"/>
			<point x="160" y="125" type="line"/>
		</contour>
		<contour>
			<point x="735" y="246" type="line"/>
			<point x="735" y="246"/>
			<point x="704" y="202"/>
			<point x="654" y="202" type="curve" smooth="yes"/>
			<point x="531" y="202" type="line"/>
			<point x="531" y="244" type="line"/>
			<point x="436" y="129" type="line"/>
			<point x="531" y="14" type="line"/>
			<point x="531" y="56" type="line"/>
			<point x="580" y="56" type="line" smooth="yes"/>
			<point x="624" y="56"/>
			<point x="637" y="77"/>
			<point x="654" y="103" type="curve"/>
			<point x="736" y="245" type="line"/>
		</contour>
		<contour>
			<point x="268" y="56" type="curve" smooth="yes"/>
			<point x="382" y="56" type="line"/>
			<point x="382" y="202" type="line"/>
			<point x="186" y="202" type="line"/>
			<point x="167" y="171"/>
			<point x="179" y="97"/>
			<point x="230" y="67" type="curve" smooth="yes"/>
			<point x="243" y="59"/>
			<point x="258" y="56"/>
		</contour>
	</outline>
</glyph>
<glyph name="uni267C" format="2">
	<unicode hex="267C"/>
	<advance width="600"/>
	<outline>
		<contour>
			<point x="749" y="354" type="curve" smooth="yes"/>
			<point x="749" y="542"/>
			<point x="598" y="694"/>
			<point x="412" y="694" type="curve" smooth="yes"/>
			<point x="224" y="694"/>
			<point x="72" y="542"/>
			<point x="72" y="354" type="curve" smooth="yes"/>
			<point x="72" y="167"/>
			<point x="224" y="17"/>
			<point x="412" y="17" type="curve" smooth="yes"/>
			<point x="598" y="17"/>
			<point x="749" y="167"/>
		</contour>
		<contour>
			<point x="355" y="611" type="curve"/>
			<point x="355" y="612" type="line"/>
			<point x="482" y="612" type="line" smooth="yes"/>
			<point x="507" y="612"/>
			<point x="525" y="610"/>
			<point x="542" y="581" type="curve" smooth="yes"/>
			<point x="561" y="549" type="line"/>
			<point x="589" y="565" type="line"/>
			<point x="549" y="455" type="line"/>
			<point x="436" y="476" type="line"/>
			<point x="463" y="492" type="line"/>
			<point x="415" y="574" type="line" smooth="yes"/>
			<point x="396" y="607"/>
			<point x="355" y="611"/>
		</contour>
		<contour>
			<point x="270" y="570" type="line"/>
			<point x="272" y="577"/>
			<point x="281" y="585"/>
			<point x="291" y="591" type="curve" smooth="yes"/>
			<point x="330" y="614"/>
			<point x="386" y="593"/>
			<point x="399" y="568" type="curve"/>
			<point x="324" y="436" type="line"/>
			<point x="225" y="493" type="line"/>
		</contour>
		<contour>
			<point x="667" y="370" type="line"/>
			<point x="671" y="363"/>
			<point x="675" y="353"/>
			<point x="675" y="341" type="curve" smooth="yes"/>
			<point x="675" y="295"/>
			<point x="629" y="257"/>
			<point x="601" y="257" type="curve"/>
			<point x="524" y="389" type="line"/>
			<point x="623" y="446" type="line"/>
		</contour>
		<contour>
			<point x="216" y="181" type="curve"/>
			<point x="215" y="181" type="line"/>
			<point x="152" y="290" type="line"/>
			<point x="141" y="312"/>
			<point x="131" y="328"/>
			<point x="149" y="358" type="curve" smooth="yes"/>
			<point x="168" y="390" type="line"/>
			<point x="140" y="407" type="line"/>
			<point x="254" y="426" type="line"/>
			<point x="293" y="317" type="line"/>
			<point x="266" y="334" type="line"/>
			<point x="218" y="252" type="line" smooth="yes"/>
			<point x="199" y="218"/>
			<point x="216" y="181"/>
		</contour>
		<contour>
			<point x="660" y="274" type="curve"/>
			<point x="661" y="273" type="line"/>
			<point x="597" y="164" type="line" smooth="yes"/>
			<point x="585" y="144"/>
			<point x="575" y="128"/>
			<point x="540" y="128" type="curve" smooth="yes"/>
			<point x="503" y="128" type="line"/>
			<point x="503" y="95" type="line"/>
			<point x="428" y="184" type="line"/>
			<point x="503" y="272" type="line"/>
			<point x="503" y="241" type="line"/>
			<point x="597" y="241" type="line" smooth="yes"/>
			<point x="637" y="241"/>
			<point x="660" y="274"/>
		</contour>
		<contour>
			<point x="295" y="128" type="line"/>
			<point x="288" y="128"/>
			<point x="276" y="130"/>
			<point x="266" y="136" type="curve" smooth="yes"/>
			<point x="226" y="159"/>
			<point x="216" y="216"/>
			<point x="231" y="241" type="curve"/>
			<point x="384" y="241" type="line"/>
			<point x="384" y="128" type="line"/>
		</contour>
	</outline>
</glyph>
<glyph name="anglebracketright" format="2">
	<unicode hex="3009"/>
	<advance width="600"/>
	<outline>
		<contour>
			<point x="24" y="-163" type="line"/>
			<point x="87" y="-163" type="line"/>
			<point x="467" y="316" type="line"/>
			<point x="215" y="792" type="line"/>
			<point x="158" y="792" type="line"/>
			<point x="408" y="321" type="line"/>
		</contour>
	</outline>
</glyph>
<glyph name="commaaccent" format="2">
	<unicode hex="F6C3"/>
	<advance width="600"/>
	<outline>
		<contour>
			<point x="187" y="-264" type="curve"/>
			<point x="225" y="-264" type="line"/>
			<point x="252" y="-241"/>
			<point x="287" y="-188"/>
			<point x="296" y="-132" type="curve" smooth="yes"/>
			<point x="304" y="-77"/>
			<point x="286" y="-64"/>
			<point x="253" y="-64" type="curve" smooth="yes"/>
			<point x="221" y="-64"/>
			<point x="208" y="-77"/>
			<point x="205" y="-104" type="curve" smooth="yes"/>
			<point x="202" y="-134"/>
			<point x="218" y="-148"/>
			<point x="245" y="-148" type="curve"/>
			<point x="237" y="-182"/>
			<point x="213" y="-228"/>
		</contour>
	</outline>
	<anchor name="_bottom" x="267" y="0"/>
	<anchor name="anchor" x="296" y="0"/>
</glyph>
<glyph name="Anocross" format="2">
	<advance width="600"/>
	<outline>
		<contour>
			<point x="-7" y="0" type="line"/>
			<point x="54" y="0" type="line"/>
			<point x="350" y="628" type="line"/>
			<point x="475" y="0" type="line"/>
			<point x="533" y="0" type="line"/>
			<point x="391" y="688" type="line"/>
			<point x="324" y="688" type="line"/>
		</contour>
	</outline>
	<anchor name="bottom" x="265" y="0"/>
	<anchor name="ogonek" x="533" y="0"/>
	<anchor name="top" x="357" y="684"/>
</glyph>
<glyph name="Lslashcomb" format="2">
	<advance width="600"/>
	<outline>
		<contour>
			<point x="31" y="389" type="line"/>
			<point x="24" y="338" type="line"/>
			<point x="365" y="469" type="line"/>
			<point x="372" y="520" type="line"/>
		</contour>
	</outline>
	<anchor name="_center" x="138" y="398"/>
</glyph>
<glyph name="acute.cap" format="2">
	<advance width="600"/>
	<outline>
		<contour>
			<point x="299" y="750" type="line"/>
			<point x="353" y="750" type="line"/>
			<point x="456" y="884" type="line"/>
			<point x="389" y="884" type="line"/>
		</contour>
	</outline>
	<anchor name="_top" x="317" y="684"/>
</glyph>
<glyph name="ampersand_ampersand.cLig" format="2">
	<advance width="600"/>
	<outline>
		<contour>
			<point x="-304" y="-14" type="curve" smooth="yes"/>
			<point x="-216" y="-14"/>
			<point x="-140" y="25"/>
			<point x="-80" y="92" type="curve"/>
			<point x="-51" y="26"/>
			<point x="16" y="-14"/>
			<point x="112" y="-14" type="curve" smooth="yes"/>
			<point x="202" y="-14"/>
			<point x="276" y="21"/>
			<point x="335" y="83" type="curve"/>
			<point x="407" y="0" type="line"/>
			<point x="475" y="0" type="line"/>
			<point x="369" y="123" type="line"/>
			<point x="418" y="190"/>
			<point x="454" y="278"/>
			<point x="477" y="379" type="curve"/>
			<point x="426" y="379" type="line"/>
			<point x="405" y="287"/>
			<point x="376" y="213"/>
			<point x="339" y="158" type="curve"/>
			<point x="157" y="368" type="line" smooth="yes"/>
			<point x="115" y="416"/>
			<point x="88" y="455"/>
			<point x="88" y="514" type="curve" smooth="yes"/>
			<point x="88" y="595"/>
			<point x="138" y="650"/>
			<point x="227" y="650" type="curve" smooth="yes"/>
			<point x="295" y="650"/>
			<point x="370" y="619"/>
			<point x="413" y="581" type="curve"/>
			<point x="421" y="634" type="line"/>
			<point x="380" y="667"/>
			<point x="306" y="698"/>
			<point x="231" y="698" type="curve" smooth="yes"/>
			<point x="111" y="698"/>
			<point x="33" y="616"/>
			<point x="33" y="508" type="curve" smooth="yes"/>
			<point x="33" y="472"/>
			<point x="44" y="439"/>
			<point x="62" y="408" type="curve"/>
			<point x="-13" y="373"/>
			<point x="-93" y="298"/>
			<point x="-96" y="182" type="curve"/>
			<point x="-259" y="368" type="line" smooth="yes"/>
			<point x="-301" y="416"/>
			<point x="-328" y="455"/>
			<point x="-328" y="514" type="curve" smooth="yes"/>
			<point x="-328" y="595"/>
			<point x="-278" y="650"/>
			<point x="-189" y="650" type="curve" smooth="yes"/>
			<point x="-127" y="650"/>
			<point x="-58" y="622"/>
			<point x="-19" y="587" type="curve"/>
			<point x="-11" y="640" type="line"/>
			<point x="-49" y="670"/>
			<point x="-116" y="698"/>
			<point x="-185" y="698" type="curve" smooth="yes"/>
			<point x="-305" y="698"/>
			<point x="-383" y="616"/>
			<point x="-383" y="508" type="curve" smooth="yes"/>
			<point x="-383" y="472"/>
			<point x="-372" y="439"/>
			<point x="-354" y="408" type="curve"/>
			<point x="-430" y="372"/>
			<point x="-512" y="296"/>
			<point x="-512" y="176" type="curve" smooth="yes"/>
			<point x="-512" y="61"/>
			<point x="-435" y="-14"/>
		</contour>
		<contour>
			<point x="-457" y="179" type="curve" smooth="yes"/>
			<point x="-457" y="273"/>
			<point x="-401" y="341"/>
			<point x="-329" y="370" type="curve"/>
			<point x="-320" y="358"/>
			<point x="-310" y="346"/>
			<point x="-300" y="335" type="curve" smooth="yes"/>
			<point x="-113" y="124" type="line"/>
			<point x="-164" y="64"/>
			<point x="-227" y="34"/>
			<point x="-296" y="34" type="curve" smooth="yes"/>
			<point x="-406" y="34"/>
			<point x="-457" y="96"/>
		</contour>
		<contour>
			<point x="-41" y="179" type="curve" smooth="yes"/>
			<point x="-41" y="273"/>
			<point x="15" y="341"/>
			<point x="87" y="370" type="curve"/>
			<point x="96" y="358"/>
			<point x="106" y="346"/>
			<point x="116" y="334" type="curve" smooth="yes"/>
			<point x="306" y="116" type="line"/>
			<point x="255" y="61"/>
			<point x="193" y="34"/>
			<point x="120" y="34" type="curve" smooth="yes"/>
			<point x="10" y="34"/>
			<point x="-41" y="96"/>
		</contour>
	</outline>
</glyph>
<glyph name="asciicircum_equal.cLig" format="2">
	<advance width="600"/>
	<outline>
		<contour>
			<point x="-420" y="392" type="line"/>
			<point x="-358" y="392" type="line"/>
			<point x="-160" y="679" type="line"/>
			<point x="-50" y="392" type="line"/>
			<point x="420" y="392" type="line"/>
			<point x="427" y="443" type="line"/>
			<point x="-11" y="443" type="line"/>
			<point x="-128" y="730" type="line"/>
			<point x="-185" y="730" type="line"/>
		</contour>
		<contour>
			<point x="-48" y="185" type="line"/>
			<point x="392" y="185" type="line"/>
			<point x="399" y="236" type="line"/>
			<point x="-41" y="236" type="line"/>
		</contour>
	</outline>
</glyph>
<glyph name="asciitilde_asciitilde.cLig" format="2">
	<advance width="600"/>
	<outline>
		<contour>
			<point x="-98" y="227" type="curve"/>
			<point x="19" y="227"/>
			<point x="30" y="356"/>
			<point x="114" y="356" type="curve"/>
			<point x="201" y="356"/>
			<point x="202" y="227"/>
			<point x="325" y="227" type="curve"/>
			<point x="411" y="227"/>
			<point x="463" y="303"/>
			<point x="480" y="402" type="curve"/>
			<point x="429" y="402" type="line"/>
			<point x="412" y="326"/>
			<point x="381" y="278"/>
			<point x="328" y="278" type="curve"/>
			<point x="236" y="278"/>
			<point x="239" y="406"/>
			<point x="118" y="406" type="curve"/>
			<point x="3" y="406"/>
			<point x="-11" y="277"/>
			<point x="-95" y="277" type="curve"/>
			<point x="-180" y="277"/>
			<point x="-176" y="406"/>
			<point x="-298" y="406" type="curve"/>
			<point x="-387" y="406"/>
			<point x="-446" y="330"/>
			<point x="-464" y="231" type="curve"/>
			<point x="-413" y="231" type="line"/>
			<point x="-395" y="308"/>
			<point x="-359" y="355"/>
			<point x="-301" y="355" type="curve"/>
			<point x="-209" y="355"/>
			<point x="-218" y="227"/>
		</contour>
	</outline>
</glyph>
<glyph name="asciitilde_asciitilde_asciitilde.rem" format="2">
	<advance width="600"/>
	<outline>
		<contour>
			<point x="-614" y="227" type="curve"/>
			<point x="-502" y="227"/>
			<point x="-477" y="356"/>
			<point x="-397" y="356" type="curve" smooth="yes"/>
			<point x="-318" y="356"/>
			<point x="-308" y="227"/>
			<point x="-195" y="227" type="curve" smooth="yes"/>
			<point x="-79" y="227"/>
			<point x="-55" y="356"/>
			<point x="32" y="356" type="curve"/>
			<point x="116" y="356"/>
			<point x="119" y="227"/>
			<point x="231" y="227" type="curve"/>
			<point x="324" y="227"/>
			<point x="373" y="304"/>
			<point x="398" y="402" type="curve"/>
			<point x="345" y="402" type="line"/>
			<point x="325" y="330"/>
			<point x="299" y="278"/>
			<point x="235" y="278" type="curve"/>
			<point x="152" y="278"/>
			<point x="152" y="406"/>
			<point x="32" y="406" type="curve"/>
			<point x="-85" y="406"/>
			<point x="-106" y="277"/>
			<point x="-192" y="277" type="curve" smooth="yes"/>
			<point x="-277" y="277"/>
			<point x="-279" y="406"/>
			<point x="-393" y="406" type="curve" smooth="yes"/>
			<point x="-508" y="406"/>
			<point x="-528" y="277"/>
			<point x="-613" y="277" type="curve"/>
			<point x="-701" y="277"/>
			<point x="-709" y="406"/>
			<point x="-823" y="406" type="curve"/>
			<point x="-910" y="406"/>
			<point x="-960" y="327"/>
			<point x="-986" y="231" type="curve"/>
			<point x="-933" y="231" type="line"/>
			<point x="-914" y="293"/>
			<point x="-888" y="355"/>
			<point x="-823" y="355" type="curve"/>
			<point x="-740" y="355"/>
			<point x="-740" y="227"/>
		</contour>
	</outline>
</glyph>
<glyph name="asciitilde_asciitilde_greater.cLig" format="2">
	<advance width="600"/>
	<outline>
		<contour>
			<point x="210" y="629" type="line"/>
			<point x="433" y="339" type="line"/>
			<point x="13" y="340" type="line"/>
			<point x="-8" y="386"/>
			<point x="-47" y="413"/>
			<point x="-100" y="413" type="curve" smooth="yes"/>
			<point x="-217" y="413"/>
			<point x="-235" y="270"/>
			<point x="-324" y="270" type="curve" smooth="yes"/>
			<point x="-412" y="270"/>
			<point x="-398" y="411"/>
			<point x="-523" y="411" type="curve" smooth="yes"/>
			<point x="-640" y="411"/>
			<point x="-664" y="269"/>
			<point x="-743" y="269" type="curve"/>
			<point x="-833" y="269"/>
			<point x="-812" y="412"/>
			<point x="-947" y="412" type="curve" smooth="yes"/>
			<point x="-1027" y="412"/>
			<point x="-1083" y="349"/>
			<point x="-1113" y="244" type="curve"/>
			<point x="-1060" y="244" type="line"/>
			<point x="-1039" y="322"/>
			<point x="-999" y="360"/>
			<point x="-949" y="360" type="curve" smooth="yes"/>
			<point x="-855" y="360"/>
			<point x="-871" y="218"/>
			<point x="-748" y="218" type="curve"/>
			<point x="-632" y="218"/>
			<point x="-613" y="360"/>
			<point x="-525" y="360" type="curve" smooth="yes"/>
			<point x="-436" y="360"/>
			<point x="-452" y="218"/>
			<point x="-332" y="218" type="curve" smooth="yes"/>
			<point x="-207" y="218"/>
			<point x="-193" y="362"/>
			<point x="-103" y="362" type="curve" smooth="yes"/>
			<point x="-60" y="362"/>
			<point x="-33" y="335"/>
			<point x="-24" y="289" type="curve"/>
			<point x="4" y="289" type="line"/>
			<point x="420" y="288" type="line"/>
			<point x="117" y="0" type="line"/>
			<point x="190" y="0" type="line"/>
			<point x="517" y="314" type="line"/>
			<point x="274" y="629" type="line"/>
		</contour>
	</outline>
</glyph>
<glyph name="asciitilde_equal.cLig.x" format="2">
	<advance width="600"/>
	<outline>
		<contour>
			<point x="-307" y="349" type="line"/>
			<point x="-251" y="422"/>
			<point x="-194" y="447"/>
			<point x="-135" y="447" type="curve" smooth="yes"/>
			<point x="-27" y="447"/>
			<point x="36" y="331"/>
			<point x="163" y="331" type="curve" smooth="yes"/>
			<point x="239" y="331"/>
			<point x="301" y="360"/>
			<point x="342" y="412" type="curve"/>
			<point x="351" y="478" type="line"/>
			<point x="285" y="399"/>
			<point x="226" y="378"/>
			<point x="163" y="380" type="curve" smooth="yes"/>
			<point x="59" y="383"/>
			<point x="-3" y="496"/>
			<point x="-132" y="496" type="curve" smooth="yes"/>
			<point x="-198" y="496"/>
			<point x="-257" y="467"/>
			<point x="-297" y="416" type="curve"/>
		</contour>
		<contour>
			<point x="-330" y="185" type="line"/>
			<point x="310" y="185" type="line"/>
			<point x="317" y="236" type="line"/>
			<point x="-323" y="236" type="line"/>
		</contour>
	</outline>
</glyph>
<glyph name="asciitilde_hyphen.cLig" format="2">
	<advance width="600"/>
	<outline>
		<contour>
			<point x="380" y="339" type="line"/>
			<point x="20" y="339" type="line"/>
			<point x="9" y="292"/>
			<point x="-12" y="265"/>
			<point x="-52" y="265" type="curve" smooth="yes"/>
			<point x="-126" y="265"/>
			<point x="-139" y="400"/>
			<point x="-243" y="400" type="curve" smooth="yes"/>
			<point x="-306" y="400"/>
			<point x="-359" y="362"/>
			<point x="-376" y="236" type="curve"/>
			<point x="-323" y="236" type="line"/>
			<point x="-312" y="315"/>
			<point x="-290" y="350"/>
			<point x="-245" y="350" type="curve" smooth="yes"/>
			<point x="-174" y="350"/>
			<point x="-159" y="214"/>
			<point x="-53" y="214" type="curve" smooth="yes"/>
			<point x="-2" y="214"/>
			<point x="35" y="243"/>
			<point x="54" y="288" type="curve"/>
			<point x="373" y="288" type="line"/>
		</contour>
	</outline>
</glyph>
<glyph name="asterisk_asterisk.cLig" format="2">
	<advance width="600"/>
	<outline>
		<contour>
			<point x="-489" y="174" type="line"/>
			<point x="-303" y="286" type="line"/>
			<point x="-344" y="83" type="line"/>
			<point x="-280" y="83" type="line"/>
			<point x="-264" y="286" type="line"/>
			<point x="-112" y="175" type="line"/>
			<point x="-72" y="230" type="line"/>
			<point x="-240" y="320" type="line"/>
			<point x="-46" y="411" type="line"/>
			<point x="-70" y="466" type="line"/>
			<point x="-255" y="354" type="line"/>
			<point x="-215" y="556" type="line"/>
			<point x="-279" y="556" type="line"/>
			<point x="-294" y="353" type="line"/>
			<point x="-449" y="466" type="line"/>
			<point x="-489" y="411" type="line"/>
			<point x="-319" y="320" type="line"/>
			<point x="-513" y="229" type="line"/>
		</contour>
		<contour>
			<point x="88" y="173" type="line"/>
			<point x="274" y="285" type="line"/>
			<point x="233" y="82" type="line"/>
			<point x="297" y="82" type="line"/>
			<point x="313" y="285" type="line"/>
			<point x="465" y="174" type="line"/>
			<point x="505" y="229" type="line"/>
			<point x="337" y="319" type="line"/>
			<point x="531" y="410" type="line"/>
			<point x="507" y="465" type="line"/>
			<point x="322" y="353" type="line"/>
			<point x="362" y="555" type="line"/>
			<point x="298" y="555" type="line"/>
			<point x="283" y="352" type="line"/>
			<point x="128" y="465" type="line"/>
			<point x="88" y="410" type="line"/>
			<point x="258" y="319" type="line"/>
			<point x="64" y="228" type="line"/>
		</contour>
	</outline>
</glyph>
<glyph name="asterisk_asterisk_asterisk.cLig" format="2">
	<advance width="600"/>
	<outline>
		<contour>
			<point x="-1071" y="90" type="line"/>
			<point x="-885" y="202" type="line"/>
			<point x="-926" y="-1" type="line"/>
			<point x="-862" y="-1" type="line"/>
			<point x="-846" y="202" type="line"/>
			<point x="-694" y="91" type="line"/>
			<point x="-654" y="146" type="line"/>
			<point x="-822" y="236" type="line"/>
			<point x="-628" y="327" type="line"/>
			<point x="-652" y="382" type="line"/>
			<point x="-837" y="270" type="line"/>
			<point x="-797" y="472" type="line"/>
			<point x="-861" y="472" type="line"/>
			<point x="-876" y="269" type="line"/>
			<point x="-1031" y="382" type="line"/>
			<point x="-1071" y="327" type="line"/>
			<point x="-901" y="236" type="line"/>
			<point x="-1095" y="145" type="line"/>
		</contour>
		<contour>
			<point x="-482" y="303" type="line"/>
			<point x="-296" y="415" type="line"/>
			<point x="-337" y="212" type="line"/>
			<point x="-273" y="212" type="line"/>
			<point x="-257" y="415" type="line"/>
			<point x="-105" y="304" type="line"/>
			<point x="-65" y="359" type="line"/>
			<point x="-233" y="449" type="line"/>
			<point x="-39" y="540" type="line"/>
			<point x="-63" y="595" type="line"/>
			<point x="-248" y="483" type="line"/>
			<point x="-208" y="685" type="line"/>
			<point x="-272" y="685" type="line"/>
			<point x="-287" y="482" type="line"/>
			<point x="-442" y="595" type="line"/>
			<point x="-482" y="540" type="line"/>
			<point x="-312" y="449" type="line"/>
			<point x="-506" y="358" type="line"/>
		</contour>
		<contour>
			<point x="46" y="90" type="line"/>
			<point x="232" y="202" type="line"/>
			<point x="191" y="-1" type="line"/>
			<point x="255" y="-1" type="line"/>
			<point x="271" y="202" type="line"/>
			<point x="423" y="91" type="line"/>
			<point x="463" y="146" type="line"/>
			<point x="295" y="236" type="line"/>
			<point x="489" y="327" type="line"/>
			<point x="465" y="382" type="line"/>
			<point x="280" y="270" type="line"/>
			<point x="320" y="472" type="line"/>
			<point x="256" y="472" type="line"/>
			<point x="241" y="269" type="line"/>
			<point x="86" y="382" type="line"/>
			<point x="46" y="327" type="line"/>
			<point x="216" y="236" type="line"/>
			<point x="22" y="145" type="line"/>
		</contour>
	</outline>
</glyph>
<glyph name="asterisk_greater.cLig" format="2">
	<advance width="600"/>
	<outline>
		<contour>
			<point x="103" y="631" type="line"/>
			<point x="95" y="574" type="line"/>
			<point x="452" y="317" type="line"/>
			<point x="22" y="61" type="line"/>
			<point x="13" y="-3" type="line"/>
			<point x="494" y="285" type="line"/>
			<point x="502" y="344" type="line"/>
		</contour>
		<contour>
			<point x="-42" y="461" type="line"/>
			<point x="-228" y="349" type="line"/>
			<point x="-187" y="552" type="line"/>
			<point x="-251" y="552" type="line"/>
			<point x="-267" y="349" type="line"/>
			<point x="-419" y="460" type="line"/>
			<point x="-459" y="405" type="line"/>
			<point x="-291" y="315" type="line"/>
			<point x="-485" y="224" type="line"/>
			<point x="-461" y="169" type="line"/>
			<point x="-276" y="281" type="line"/>
			<point x="-316" y="79" type="line"/>
			<point x="-252" y="79" type="line"/>
			<point x="-237" y="282" type="line"/>
			<point x="-82" y="169" type="line"/>
			<point x="-42" y="224" type="line"/>
			<point x="-212" y="315" type="line"/>
			<point x="-18" y="406" type="line"/>
		</contour>
	</outline>
</glyph>
<glyph name="asterisk_slash.cLig" format="2">
	<advance width="600"/>
	<outline>
		<contour>
			<point x="-449" y="174" type="line"/>
			<point x="-263" y="286" type="line"/>
			<point x="-304" y="83" type="line"/>
			<point x="-240" y="83" type="line"/>
			<point x="-224" y="286" type="line"/>
			<point x="-72" y="175" type="line"/>
			<point x="-32" y="230" type="line"/>
			<point x="-200" y="320" type="line"/>
			<point x="-6" y="411" type="line"/>
			<point x="-30" y="466" type="line"/>
			<point x="-215" y="354" type="line"/>
			<point x="-175" y="556" type="line"/>
			<point x="-239" y="556" type="line"/>
			<point x="-254" y="353" type="line"/>
			<point x="-409" y="466" type="line"/>
			<point x="-449" y="411" type="line"/>
			<point x="-279" y="320" type="line"/>
			<point x="-473" y="229" type="line"/>
		</contour>
		<contour>
			<point x="486" y="792" type="line"/>
			<point x="-40" y="-163" type="line"/>
			<point x="18" y="-163" type="line"/>
			<point x="545" y="792" type="line"/>
		</contour>
	</outline>
</glyph>
<glyph name="backslash_backslash_backslash.rem" format="2">
	<advance width="600"/>
	<outline>
		<contour>
			<point x="-688" y="-163" type="line"/>
			<point x="-635" y="-163" type="line"/>
			<point x="-898" y="792" type="line"/>
			<point x="-950" y="792" type="line"/>
		</contour>
		<contour>
			<point x="-188" y="-163" type="line"/>
			<point x="-135" y="-163" type="line"/>
			<point x="-398" y="792" type="line"/>
			<point x="-450" y="792" type="line"/>
		</contour>
		<contour>
			<point x="312" y="-163" type="line"/>
			<point x="365" y="-163" type="line"/>
			<point x="102" y="792" type="line"/>
			<point x="50" y="792" type="line"/>
		</contour>
	</outline>
</glyph>
<glyph name="bar_bar.cLig" format="2">
	<advance width="600"/>
	<outline>
		<contour>
			<point x="-191" y="793" type="line"/>
			<point x="-326" y="-162" type="line"/>
			<point x="-274" y="-162" type="line"/>
			<point x="-140" y="793" type="line"/>
		</contour>
		<contour>
			<point x="289" y="793" type="line"/>
			<point x="154" y="-162" type="line"/>
			<point x="206" y="-162" type="line"/>
			<point x="340" y="793" type="line"/>
		</contour>
	</outline>
</glyph>
<glyph name="bar_bar_bar.cLig" format="2">
	<advance width="600"/>
	<outline>
		<contour>
			<point x="248" y="792" type="line"/>
			<point x="113" y="-163" type="line"/>
			<point x="165" y="-163" type="line"/>
			<point x="299" y="792" type="line"/>
		</contour>
		<contour>
			<point x="-750" y="792" type="line"/>
			<point x="-885" y="-163" type="line"/>
			<point x="-833" y="-163" type="line"/>
			<point x="-699" y="792" type="line"/>
		</contour>
		<contour>
			<point x="-251" y="792" type="line"/>
			<point x="-386" y="-163" type="line"/>
			<point x="-334" y="-163" type="line"/>
			<point x="-200" y="792" type="line"/>
		</contour>
	</outline>
</glyph>
<glyph name="bar_bar_equal.fina" format="2">
	<advance width="600"/>
	<outline>
		<contour>
			<point x="-610" y="186" type="line"/>
			<point x="-107" y="186" type="line"/>
			<point x="-141" y="-55" type="line"/>
			<point x="-89" y="-55" type="line"/>
			<point x="15" y="684" type="line"/>
			<point x="-37" y="684" type="line"/>
			<point x="-71" y="443" type="line"/>
			<point x="-574" y="443" type="line"/>
			<point x="-581" y="392" type="line"/>
			<point x="-78" y="392" type="line"/>
			<point x="-100" y="237" type="line"/>
			<point x="-603" y="237" type="line"/>
		</contour>
		<contour>
			<point x="343" y="684" type="line"/>
			<point x="239" y="-55" type="line"/>
			<point x="291" y="-55" type="line"/>
			<point x="395" y="684" type="line"/>
		</contour>
	</outline>
</glyph>
<glyph name="bar_bar_equal.init" format="2">
	<advance width="600"/>
	<outline>
		<contour>
			<point x="-276" y="684" type="line"/>
			<point x="-380" y="-55" type="line"/>
			<point x="-328" y="-55" type="line"/>
			<point x="-224" y="684" type="line"/>
		</contour>
		<contour>
			<point x="104" y="684" type="line"/>
			<point x="0" y="-55" type="line"/>
			<point x="52" y="-55" type="line"/>
			<point x="86" y="186" type="line"/>
			<point x="589" y="186" type="line"/>
			<point x="596" y="237" type="line"/>
			<point x="93" y="237" type="line"/>
			<point x="115" y="392" type="line"/>
			<point x="618" y="392" type="line"/>
			<point x="625" y="443" type="line"/>
			<point x="122" y="443" type="line"/>
			<point x="156" y="684" type="line"/>
		</contour>
	</outline>
</glyph>
<glyph name="bar_bar_equal.rem" format="2">
	<advance width="600"/>
	<outline>
		<contour>
			<point x="-880" y="684" type="line"/>
			<point x="-984" y="-55" type="line"/>
			<point x="-932" y="-55" type="line"/>
			<point x="-828" y="684" type="line"/>
		</contour>
		<contour>
			<point x="-496" y="684" type="line"/>
			<point x="-600" y="-55" type="line"/>
			<point x="-548" y="-55" type="line"/>
			<point x="-514" y="186" type="line"/>
			<point x="409" y="186" type="line"/>
			<point x="416" y="237" type="line"/>
			<point x="-507" y="237" type="line"/>
			<point x="-485" y="392" type="line"/>
			<point x="438" y="392" type="line"/>
			<point x="445" y="443" type="line"/>
			<point x="-478" y="443" type="line"/>
			<point x="-444" y="684" type="line"/>
		</contour>
	</outline>
</glyph>
<glyph name="bar_bar_hyphen.fina" format="2">
	<advance width="600"/>
	<outline>
		<contour>
			<point x="239" y="-55" type="line"/>
			<point x="291" y="-55" type="line"/>
			<point x="395" y="684" type="line"/>
			<point x="343" y="684" type="line"/>
		</contour>
		<contour>
			<point x="-596" y="288" type="line"/>
			<point x="-93" y="288" type="line"/>
			<point x="-141" y="-55" type="line"/>
			<point x="-89" y="-55" type="line"/>
			<point x="15" y="684" type="line"/>
			<point x="-37" y="684" type="line"/>
			<point x="-86" y="339" type="line"/>
			<point x="-589" y="339" type="line"/>
		</contour>
	</outline>
</glyph>
<glyph name="bar_bar_hyphen.med" format="2">
	<advance width="600"/>
	<outline>
		<contour>
			<point x="120" y="-55" type="line"/>
			<point x="172" y="-55" type="line"/>
			<point x="220" y="288" type="line"/>
			<point x="604" y="288" type="line"/>
			<point x="611" y="339" type="line"/>
			<point x="227" y="339" type="line"/>
			<point x="276" y="684" type="line"/>
			<point x="224" y="684" type="line"/>
		</contour>
		<contour>
			<point x="-596" y="288" type="line"/>
			<point x="-212" y="288" type="line"/>
			<point x="-260" y="-55" type="line"/>
			<point x="-208" y="-55" type="line"/>
			<point x="-104" y="684" type="line"/>
			<point x="-156" y="684" type="line"/>
			<point x="-205" y="339" type="line"/>
			<point x="-589" y="339" type="line"/>
		</contour>
	</outline>
</glyph>
<glyph name="bar_braceright.cLig" format="2">
	<advance width="600"/>
	<outline>
		<contour>
			<point x="273" y="792" type="curve" smooth="yes"/>
			<point x="45" y="792" type="line"/>
			<point x="39" y="748" type="line"/>
			<point x="268" y="748" type="line" smooth="yes"/>
			<point x="336" y="748"/>
			<point x="371" y="721"/>
			<point x="371" y="665" type="curve" smooth="yes"/>
			<point x="371" y="558"/>
			<point x="227" y="511"/>
			<point x="227" y="407" type="curve" smooth="yes"/>
			<point x="227" y="357"/>
			<point x="269" y="322"/>
			<point x="314" y="315" type="curve"/>
			<point x="265" y="308"/>
			<point x="199" y="280"/>
			<point x="199" y="199" type="curve" smooth="yes"/>
			<point x="199" y="115"/>
			<point x="273" y="50"/>
			<point x="273" y="-28" type="curve" smooth="yes"/>
			<point x="273" y="-99"/>
			<point x="221" y="-119"/>
			<point x="148" y="-119" type="curve" smooth="yes"/>
			<point x="-82" y="-119" type="line"/>
			<point x="-89" y="-163" type="line"/>
			<point x="151" y="-163" type="line" smooth="yes"/>
			<point x="267" y="-163"/>
			<point x="327" y="-111"/>
			<point x="327" y="-28" type="curve" smooth="yes"/>
			<point x="327" y="57"/>
			<point x="252" y="128"/>
			<point x="252" y="204" type="curve" smooth="yes"/>
			<point x="252" y="251"/>
			<point x="284" y="288"/>
			<point x="347" y="288" type="curve" smooth="yes"/>
			<point x="418" y="288" type="line"/>
			<point x="426" y="342" type="line"/>
			<point x="356" y="342" type="line" smooth="yes"/>
			<point x="299" y="342"/>
			<point x="280" y="376"/>
			<point x="280" y="408" type="curve" smooth="yes"/>
			<point x="280" y="486"/>
			<point x="425" y="543"/>
			<point x="425" y="667" type="curve" smooth="yes"/>
			<point x="425" y="733"/>
			<point x="388" y="792"/>
		</contour>
		<contour>
			<point x="-338" y="-163" type="line"/>
			<point x="-203" y="792" type="line"/>
			<point x="-255" y="792" type="line"/>
			<point x="-389" y="-163" type="line"/>
		</contour>
	</outline>
</glyph>
<glyph name="bar_bracketright.cLig" format="2">
	<advance width="600"/>
	<outline>
		<contour>
			<point x="-88" y="-163" type="line"/>
			<point x="325" y="-163" type="line"/>
			<point x="460" y="792" type="line"/>
			<point x="47" y="792" type="line"/>
			<point x="40" y="748" type="line"/>
			<point x="401" y="748" type="line"/>
			<point x="280" y="-119" type="line"/>
			<point x="-82" y="-119" type="line"/>
		</contour>
		<contour>
			<point x="-338" y="-163" type="line"/>
			<point x="-203" y="792" type="line"/>
			<point x="-255" y="792" type="line"/>
			<point x="-389" y="-163" type="line"/>
		</contour>
	</outline>
</glyph>
<glyph name="bar_equal.rem" format="2">
	<advance width="600"/>
	<outline>
		<contour>
			<point x="-280" y="684" type="line"/>
			<point x="-384" y="-55" type="line"/>
			<point x="-332" y="-55" type="line"/>
			<point x="-298" y="186" type="line"/>
			<point x="409" y="186" type="line"/>
			<point x="416" y="237" type="line"/>
			<point x="-291" y="237" type="line"/>
			<point x="-269" y="392" type="line"/>
			<point x="438" y="392" type="line"/>
			<point x="445" y="443" type="line"/>
			<point x="-262" y="443" type="line"/>
			<point x="-228" y="684" type="line"/>
		</contour>
	</outline>
</glyph>
<glyph name="bar_hyphen.med" format="2">
	<advance width="600"/>
	<outline>
		<contour>
			<point x="230" y="-55" type="line"/>
			<point x="282" y="-55" type="line"/>
			<point x="330" y="288" type="line"/>
			<point x="604" y="288" type="line"/>
			<point x="611" y="339" type="line"/>
			<point x="337" y="339" type="line"/>
			<point x="386" y="684" type="line"/>
			<point x="334" y="684" type="line"/>
			<point x="285" y="339" type="line"/>
			<point x="11" y="339" type="line"/>
			<point x="4" y="288" type="line"/>
			<point x="278" y="288" type="line"/>
		</contour>
	</outline>
</glyph>
<glyph name="bar_hyphen.rem" format="2">
	<advance width="600"/>
	<outline>
		<contour>
			<point x="-332" y="-57" type="line"/>
			<point x="-284" y="288" type="line"/>
			<point x="423" y="288" type="line"/>
			<point x="431" y="339" type="line"/>
			<point x="-276" y="339" type="line"/>
			<point x="-228" y="684" type="line"/>
			<point x="-280" y="684" type="line"/>
			<point x="-384" y="-57" type="line"/>
		</contour>
	</outline>
</glyph>
<glyph name="bar_hyphen_greater.rem" format="2">
	<advance width="600"/>
	<outline>
		<contour>
			<point x="-1056" y="0" type="line"/>
			<point x="-1004" y="0" type="line"/>
			<point x="-964" y="289" type="line"/>
			<point x="-85" y="289" type="line"/>
			<point x="331" y="288" type="line"/>
			<point x="28" y="0" type="line"/>
			<point x="101" y="0" type="line"/>
			<point x="428" y="314" type="line"/>
			<point x="185" y="629" type="line"/>
			<point x="121" y="629" type="line"/>
			<point x="344" y="339" type="line"/>
			<point x="12" y="340" type="line"/>
			<point x="-956" y="340" type="line"/>
			<point x="-916" y="629" type="line"/>
			<point x="-968" y="629" type="line"/>
		</contour>
	</outline>
</glyph>
<glyph name="braceleft_bar.cLig" format="2">
	<advance width="600"/>
	<outline>
		<contour>
			<point x="-258" y="-163" type="curve" smooth="yes"/>
			<point x="-30" y="-163" type="line"/>
			<point x="-24" y="-119" type="line"/>
			<point x="-253" y="-119" type="line" smooth="yes"/>
			<point x="-321" y="-119"/>
			<point x="-356" y="-92"/>
			<point x="-356" y="-36" type="curve" smooth="yes"/>
			<point x="-356" y="71"/>
			<point x="-212" y="118"/>
			<point x="-212" y="222" type="curve" smooth="yes"/>
			<point x="-212" y="272"/>
			<point x="-254" y="307"/>
			<point x="-299" y="314" type="curve"/>
			<point x="-250" y="321"/>
			<point x="-184" y="349"/>
			<point x="-184" y="430" type="curve" smooth="yes"/>
			<point x="-184" y="514"/>
			<point x="-258" y="579"/>
			<point x="-258" y="657" type="curve" smooth="yes"/>
			<point x="-258" y="728"/>
			<point x="-206" y="748"/>
			<point x="-133" y="748" type="curve" smooth="yes"/>
			<point x="97" y="748" type="line"/>
			<point x="104" y="792" type="line"/>
			<point x="-136" y="792" type="line" smooth="yes"/>
			<point x="-252" y="792"/>
			<point x="-312" y="740"/>
			<point x="-312" y="657" type="curve" smooth="yes"/>
			<point x="-312" y="572"/>
			<point x="-237" y="501"/>
			<point x="-237" y="425" type="curve" smooth="yes"/>
			<point x="-237" y="378"/>
			<point x="-269" y="341"/>
			<point x="-332" y="341" type="curve" smooth="yes"/>
			<point x="-403" y="341" type="line"/>
			<point x="-411" y="287" type="line"/>
			<point x="-341" y="287" type="line" smooth="yes"/>
			<point x="-284" y="287"/>
			<point x="-265" y="253"/>
			<point x="-265" y="221" type="curve" smooth="yes"/>
			<point x="-265" y="143"/>
			<point x="-410" y="86"/>
			<point x="-410" y="-38" type="curve" smooth="yes"/>
			<point x="-410" y="-104"/>
			<point x="-373" y="-163"/>
		</contour>
		<contour>
			<point x="353" y="792" type="line"/>
			<point x="218" y="-163" type="line"/>
			<point x="270" y="-163" type="line"/>
			<point x="404" y="792" type="line"/>
		</contour>
	</outline>
</glyph>
<glyph name="braceleft_braceleft.cLig" format="2">
	<advance width="600"/>
	<outline>
		<contour>
			<point x="-120" y="-163" type="line"/>
			<point x="-114" y="-119" type="line"/>
			<point x="-236" y="-119" type="line" smooth="yes"/>
			<point x="-304" y="-119"/>
			<point x="-339" y="-92"/>
			<point x="-339" y="-36" type="curve" smooth="yes"/>
			<point x="-339" y="71"/>
			<point x="-195" y="118"/>
			<point x="-195" y="222" type="curve" smooth="yes"/>
			<point x="-195" y="272"/>
			<point x="-237" y="307"/>
			<point x="-282" y="314" type="curve"/>
			<point x="-233" y="321"/>
			<point x="-167" y="349"/>
			<point x="-167" y="430" type="curve" smooth="yes"/>
			<point x="-167" y="514"/>
			<point x="-241" y="579"/>
			<point x="-241" y="657" type="curve" smooth="yes"/>
			<point x="-241" y="728"/>
			<point x="-189" y="748"/>
			<point x="-116" y="748" type="curve" smooth="yes"/>
			<point x="218" y="748" type="line"/>
			<point x="172" y="732"/>
			<point x="152" y="700"/>
			<point x="152" y="655" type="curve" smooth="yes"/>
			<point x="152" y="570"/>
			<point x="227" y="501"/>
			<point x="227" y="425" type="curve" smooth="yes"/>
			<point x="227" y="378"/>
			<point x="195" y="341"/>
			<point x="132" y="341" type="curve" smooth="yes"/>
			<point x="51" y="341" type="line"/>
			<point x="43" y="287" type="line"/>
			<point x="123" y="287" type="line" smooth="yes"/>
			<point x="180" y="287"/>
			<point x="199" y="253"/>
			<point x="199" y="221" type="curve"/>
			<point x="199" y="143"/>
			<point x="54" y="86"/>
			<point x="54" y="-38" type="curve" smooth="yes"/>
			<point x="54" y="-104"/>
			<point x="91" y="-163"/>
			<point x="206" y="-163" type="curve" smooth="yes"/>
			<point x="371" y="-163" type="line"/>
			<point x="377" y="-119" type="line"/>
			<point x="211" y="-119" type="line" smooth="yes"/>
			<point x="143" y="-119"/>
			<point x="108" y="-92"/>
			<point x="108" y="-36" type="curve" smooth="yes"/>
			<point x="108" y="71"/>
			<point x="252" y="118"/>
			<point x="252" y="222" type="curve"/>
			<point x="252" y="272"/>
			<point x="210" y="307"/>
			<point x="165" y="314" type="curve"/>
			<point x="214" y="321"/>
			<point x="280" y="349"/>
			<point x="280" y="430" type="curve" smooth="yes"/>
			<point x="280" y="514"/>
			<point x="206" y="579"/>
			<point x="206" y="657" type="curve" smooth="yes"/>
			<point x="206" y="728"/>
			<point x="258" y="748"/>
			<point x="331" y="748" type="curve" smooth="yes"/>
			<point x="498" y="748" type="line"/>
			<point x="505" y="792" type="line"/>
			<point x="-119" y="792" type="line" smooth="yes"/>
			<point x="-235" y="792"/>
			<point x="-295" y="740"/>
			<point x="-295" y="657" type="curve" smooth="yes"/>
			<point x="-295" y="572"/>
			<point x="-220" y="501"/>
			<point x="-220" y="425" type="curve" smooth="yes"/>
			<point x="-220" y="378"/>
			<point x="-252" y="341"/>
			<point x="-315" y="341" type="curve" smooth="yes"/>
			<point x="-400" y="341" type="line"/>
			<point x="-408" y="287" type="line"/>
			<point x="-324" y="287" type="line" smooth="yes"/>
			<point x="-267" y="287"/>
			<point x="-248" y="253"/>
			<point x="-248" y="221" type="curve" smooth="yes"/>
			<point x="-248" y="143"/>
			<point x="-393" y="86"/>
			<point x="-393" y="-38" type="curve" smooth="yes"/>
			<point x="-393" y="-104"/>
			<point x="-356" y="-163"/>
			<point x="-241" y="-163" type="curve" smooth="yes"/>
		</contour>
	</outline>
</glyph>
<glyph name="braceleft_braceleft_numbersign.cLig" format="2">
	<advance width="600"/>
	<outline>
		<contour>
			<point x="-712" y="-163" type="line"/>
			<point x="-706" y="-119" type="line"/>
			<point x="-828" y="-119" type="line" smooth="yes"/>
			<point x="-896" y="-119"/>
			<point x="-931" y="-92"/>
			<point x="-931" y="-36" type="curve" smooth="yes"/>
			<point x="-931" y="71"/>
			<point x="-787" y="118"/>
			<point x="-787" y="222" type="curve" smooth="yes"/>
			<point x="-787" y="272"/>
			<point x="-829" y="307"/>
			<point x="-874" y="314" type="curve"/>
			<point x="-825" y="321"/>
			<point x="-759" y="349"/>
			<point x="-759" y="430" type="curve" smooth="yes"/>
			<point x="-759" y="514"/>
			<point x="-833" y="579"/>
			<point x="-833" y="657" type="curve" smooth="yes"/>
			<point x="-833" y="728"/>
			<point x="-781" y="748"/>
			<point x="-708" y="748" type="curve" smooth="yes"/>
			<point x="-374" y="748" type="line"/>
			<point x="-420" y="732"/>
			<point x="-440" y="700"/>
			<point x="-440" y="655" type="curve" smooth="yes"/>
			<point x="-440" y="570"/>
			<point x="-365" y="501"/>
			<point x="-365" y="425" type="curve" smooth="yes"/>
			<point x="-365" y="378"/>
			<point x="-397" y="341"/>
			<point x="-460" y="341" type="curve" smooth="yes"/>
			<point x="-541" y="341" type="line"/>
			<point x="-549" y="287" type="line"/>
			<point x="-469" y="287" type="line" smooth="yes"/>
			<point x="-412" y="287"/>
			<point x="-393" y="253"/>
			<point x="-393" y="221" type="curve"/>
			<point x="-393" y="143"/>
			<point x="-538" y="86"/>
			<point x="-538" y="-38" type="curve" smooth="yes"/>
			<point x="-538" y="-104"/>
			<point x="-501" y="-163"/>
			<point x="-386" y="-163" type="curve" smooth="yes"/>
			<point x="-221" y="-163" type="line"/>
			<point x="-215" y="-119" type="line"/>
			<point x="-381" y="-119" type="line" smooth="yes"/>
			<point x="-449" y="-119"/>
			<point x="-484" y="-92"/>
			<point x="-484" y="-36" type="curve" smooth="yes"/>
			<point x="-484" y="71"/>
			<point x="-340" y="118"/>
			<point x="-340" y="222" type="curve"/>
			<point x="-340" y="272"/>
			<point x="-382" y="307"/>
			<point x="-427" y="314" type="curve"/>
			<point x="-378" y="321"/>
			<point x="-312" y="349"/>
			<point x="-312" y="430" type="curve" smooth="yes"/>
			<point x="-312" y="514"/>
			<point x="-386" y="579"/>
			<point x="-386" y="657" type="curve" smooth="yes"/>
			<point x="-386" y="728"/>
			<point x="-334" y="748"/>
			<point x="-261" y="748" type="curve" smooth="yes"/>
			<point x="-94" y="748" type="line"/>
			<point x="-87" y="792" type="line"/>
			<point x="-711" y="792" type="line" smooth="yes"/>
			<point x="-827" y="792"/>
			<point x="-887" y="740"/>
			<point x="-887" y="657" type="curve" smooth="yes"/>
			<point x="-887" y="572"/>
			<point x="-812" y="501"/>
			<point x="-812" y="425" type="curve" smooth="yes"/>
			<point x="-812" y="378"/>
			<point x="-844" y="341"/>
			<point x="-907" y="341" type="curve" smooth="yes"/>
			<point x="-992" y="341" type="line"/>
			<point x="-1000" y="287" type="line"/>
			<point x="-916" y="287" type="line" smooth="yes"/>
			<point x="-859" y="287"/>
			<point x="-840" y="253"/>
			<point x="-840" y="221" type="curve" smooth="yes"/>
			<point x="-840" y="143"/>
			<point x="-985" y="86"/>
			<point x="-985" y="-38" type="curve" smooth="yes"/>
			<point x="-985" y="-104"/>
			<point x="-948" y="-163"/>
			<point x="-833" y="-163" type="curve" smooth="yes"/>
		</contour>
		<contour>
			<point x="-147" y="222" type="line"/>
			<point x="-154" y="174" type="line"/>
			<point x="-10" y="174" type="line"/>
			<point x="-51" y="0" type="line"/>
			<point x="2" y="0" type="line"/>
			<point x="43" y="174" type="line"/>
			<point x="198" y="174" type="line"/>
			<point x="157" y="0" type="line"/>
			<point x="207" y="0" type="line"/>
			<point x="248" y="174" type="line"/>
			<point x="368" y="174" type="line"/>
			<point x="375" y="222" type="line"/>
			<point x="260" y="222" type="line"/>
			<point x="320" y="476" type="line"/>
			<point x="435" y="476" type="line"/>
			<point x="442" y="525" type="line"/>
			<point x="331" y="525" type="line"/>
			<point x="369" y="684" type="line"/>
			<point x="317" y="684" type="line"/>
			<point x="280" y="525" type="line"/>
			<point x="125" y="525" type="line"/>
			<point x="162" y="684" type="line"/>
			<point x="111" y="684" type="line"/>
			<point x="73" y="525" type="line"/>
			<point x="-104" y="525" type="line"/>
			<point x="-111" y="476" type="line"/>
			<point x="62" y="476" type="line"/>
			<point x="2" y="222" type="line"/>
		</contour>
		<contour>
			<point x="54" y="222" type="line"/>
			<point x="113" y="476" type="line"/>
			<point x="268" y="476" type="line"/>
			<point x="209" y="222" type="line"/>
		</contour>
	</outline>
</glyph>
<glyph name="braceleft_hyphen.rem" format="2">
	<advance width="600"/>
	<outline>
		<contour>
			<point x="47" y="792" type="line"/>
			<point x="-85" y="792" type="line" smooth="yes"/>
			<point x="-202" y="792"/>
			<point x="-261" y="740"/>
			<point x="-261" y="657" type="curve" smooth="yes"/>
			<point x="-261" y="573"/>
			<point x="-186" y="489"/>
			<point x="-186" y="421" type="curve" smooth="yes"/>
			<point x="-186" y="374"/>
			<point x="-220" y="341"/>
			<point x="-285" y="341" type="curve" smooth="yes"/>
			<point x="-353" y="341" type="line"/>
			<point x="-361" y="287" type="line"/>
			<point x="-269" y="287" type="line" smooth="yes"/>
			<point x="-234" y="287"/>
			<point x="-215" y="260"/>
			<point x="-215" y="229" type="curve" smooth="yes"/>
			<point x="-215" y="150"/>
			<point x="-361" y="86"/>
			<point x="-361" y="-38" type="curve" smooth="yes"/>
			<point x="-361" y="-104"/>
			<point x="-322" y="-163"/>
			<point x="-208" y="-163" type="curve" smooth="yes"/>
			<point x="-87" y="-163" type="line"/>
			<point x="-81" y="-119" type="line"/>
			<point x="-203" y="-119" type="line" smooth="yes"/>
			<point x="-271" y="-119"/>
			<point x="-307" y="-92"/>
			<point x="-307" y="-36" type="curve" smooth="yes"/>
			<point x="-307" y="71"/>
			<point x="-162" y="125"/>
			<point x="-162" y="229" type="curve" smooth="yes"/>
			<point x="-162" y="265"/>
			<point x="-181" y="280"/>
			<point x="-206" y="291" type="curve"/>
			<point x="423" y="291" type="line"/>
			<point x="431" y="338" type="line"/>
			<point x="-197" y="338" type="line"/>
			<point x="-162" y="351"/>
			<point x="-133" y="375"/>
			<point x="-133" y="423" type="curve" smooth="yes"/>
			<point x="-133" y="496"/>
			<point x="-207" y="578"/>
			<point x="-207" y="657" type="curve" smooth="yes"/>
			<point x="-207" y="728"/>
			<point x="-156" y="748"/>
			<point x="-84" y="748" type="curve" smooth="yes"/>
			<point x="40" y="748" type="line"/>
		</contour>
	</outline>
</glyph>
<glyph name="braceright_braceright.cLig" format="2">
	<advance width="600"/>
	<outline>
		<contour>
			<point x="135" y="792" type="line"/>
			<point x="129" y="748" type="line"/>
			<point x="251" y="748" type="line" smooth="yes"/>
			<point x="319" y="748"/>
			<point x="354" y="721"/>
			<point x="354" y="665" type="curve" smooth="yes"/>
			<point x="354" y="558"/>
			<point x="210" y="511"/>
			<point x="210" y="407" type="curve" smooth="yes"/>
			<point x="210" y="357"/>
			<point x="252" y="322"/>
			<point x="297" y="315" type="curve"/>
			<point x="248" y="308"/>
			<point x="182" y="280"/>
			<point x="182" y="199" type="curve" smooth="yes"/>
			<point x="182" y="115"/>
			<point x="256" y="50"/>
			<point x="256" y="-28" type="curve" smooth="yes"/>
			<point x="256" y="-99"/>
			<point x="204" y="-119"/>
			<point x="131" y="-119" type="curve" smooth="yes"/>
			<point x="-203" y="-119" type="line"/>
			<point x="-157" y="-103"/>
			<point x="-137" y="-71"/>
			<point x="-137" y="-26" type="curve" smooth="yes"/>
			<point x="-137" y="59"/>
			<point x="-212" y="128"/>
			<point x="-212" y="204" type="curve" smooth="yes"/>
			<point x="-212" y="251"/>
			<point x="-180" y="288"/>
			<point x="-117" y="288" type="curve" smooth="yes"/>
			<point x="-36" y="288" type="line"/>
			<point x="-28" y="342" type="line"/>
			<point x="-108" y="342" type="line" smooth="yes"/>
			<point x="-165" y="342"/>
			<point x="-184" y="376"/>
			<point x="-184" y="408" type="curve"/>
			<point x="-184" y="486"/>
			<point x="-39" y="543"/>
			<point x="-39" y="667" type="curve" smooth="yes"/>
			<point x="-39" y="733"/>
			<point x="-76" y="792"/>
			<point x="-191" y="792" type="curve" smooth="yes"/>
			<point x="-356" y="792" type="line"/>
			<point x="-362" y="748" type="line"/>
			<point x="-196" y="748" type="line" smooth="yes"/>
			<point x="-128" y="748"/>
			<point x="-93" y="721"/>
			<point x="-93" y="665" type="curve" smooth="yes"/>
			<point x="-93" y="558"/>
			<point x="-237" y="511"/>
			<point x="-237" y="407" type="curve"/>
			<point x="-237" y="357"/>
			<point x="-195" y="322"/>
			<point x="-150" y="315" type="curve"/>
			<point x="-199" y="308"/>
			<point x="-265" y="280"/>
			<point x="-265" y="199" type="curve" smooth="yes"/>
			<point x="-265" y="115"/>
			<point x="-191" y="50"/>
			<point x="-191" y="-28" type="curve" smooth="yes"/>
			<point x="-191" y="-99"/>
			<point x="-243" y="-119"/>
			<point x="-316" y="-119" type="curve" smooth="yes"/>
			<point x="-483" y="-119" type="line"/>
			<point x="-490" y="-163" type="line"/>
			<point x="134" y="-163" type="line" smooth="yes"/>
			<point x="250" y="-163"/>
			<point x="310" y="-111"/>
			<point x="310" y="-28" type="curve" smooth="yes"/>
			<point x="310" y="57"/>
			<point x="235" y="128"/>
			<point x="235" y="204" type="curve" smooth="yes"/>
			<point x="235" y="251"/>
			<point x="267" y="288"/>
			<point x="330" y="288" type="curve" smooth="yes"/>
			<point x="415" y="288" type="line"/>
			<point x="423" y="342" type="line"/>
			<point x="339" y="342" type="line" smooth="yes"/>
			<point x="282" y="342"/>
			<point x="263" y="376"/>
			<point x="263" y="408" type="curve" smooth="yes"/>
			<point x="263" y="486"/>
			<point x="408" y="543"/>
			<point x="408" y="667" type="curve" smooth="yes"/>
			<point x="408" y="733"/>
			<point x="371" y="792"/>
			<point x="256" y="792" type="curve" smooth="yes"/>
		</contour>
	</outline>
</glyph>
<glyph name="braceright_numbersign.cLig" format="2">
	<advance width="600"/>
	<outline>
		<contour>
			<point x="-539" y="-163" type="line"/>
			<point x="-407" y="-163" type="line" smooth="yes"/>
			<point x="-290" y="-163"/>
			<point x="-231" y="-111"/>
			<point x="-231" y="-28" type="curve" smooth="yes"/>
			<point x="-231" y="57"/>
			<point x="-306" y="128"/>
			<point x="-306" y="204" type="curve" smooth="yes"/>
			<point x="-306" y="251"/>
			<point x="-273" y="288"/>
			<point x="-209" y="288" type="curve" smooth="yes"/>
			<point x="-139" y="288" type="line"/>
			<point x="-131" y="342" type="line"/>
			<point x="-200" y="342" type="line" smooth="yes"/>
			<point x="-258" y="342"/>
			<point x="-277" y="376"/>
			<point x="-277" y="407" type="curve" smooth="yes"/>
			<point x="-277" y="486"/>
			<point x="-131" y="543"/>
			<point x="-131" y="667" type="curve" smooth="yes"/>
			<point x="-131" y="733"/>
			<point x="-170" y="792"/>
			<point x="-284" y="792" type="curve" smooth="yes"/>
			<point x="-405" y="792" type="line"/>
			<point x="-411" y="748" type="line"/>
			<point x="-289" y="748" type="line" smooth="yes"/>
			<point x="-221" y="748"/>
			<point x="-185" y="721"/>
			<point x="-185" y="665" type="curve" smooth="yes"/>
			<point x="-185" y="558"/>
			<point x="-330" y="511"/>
			<point x="-330" y="407" type="curve" smooth="yes"/>
			<point x="-330" y="356"/>
			<point x="-288" y="322"/>
			<point x="-244" y="315" type="curve"/>
			<point x="-289" y="308"/>
			<point x="-359" y="283"/>
			<point x="-359" y="199" type="curve" smooth="yes"/>
			<point x="-359" y="115"/>
			<point x="-285" y="50"/>
			<point x="-285" y="-28" type="curve" smooth="yes"/>
			<point x="-285" y="-99"/>
			<point x="-336" y="-119"/>
			<point x="-408" y="-119" type="curve" smooth="yes"/>
			<point x="-532" y="-119" type="line"/>
		</contour>
		<contour>
			<point x="-52" y="222" type="line"/>
			<point x="-59" y="174" type="line"/>
			<point x="85" y="174" type="line"/>
			<point x="44" y="0" type="line"/>
			<point x="97" y="0" type="line"/>
			<point x="138" y="174" type="line"/>
			<point x="293" y="174" type="line"/>
			<point x="252" y="0" type="line"/>
			<point x="302" y="0" type="line"/>
			<point x="343" y="174" type="line"/>
			<point x="463" y="174" type="line"/>
			<point x="470" y="222" type="line"/>
			<point x="355" y="222" type="line"/>
			<point x="415" y="476" type="line"/>
			<point x="530" y="476" type="line"/>
			<point x="537" y="525" type="line"/>
			<point x="426" y="525" type="line"/>
			<point x="464" y="684" type="line"/>
			<point x="412" y="684" type="line"/>
			<point x="375" y="525" type="line"/>
			<point x="220" y="525" type="line"/>
			<point x="257" y="684" type="line"/>
			<point x="206" y="684" type="line"/>
			<point x="168" y="525" type="line"/>
			<point x="-9" y="525" type="line"/>
			<point x="-16" y="476" type="line"/>
			<point x="157" y="476" type="line"/>
			<point x="97" y="222" type="line"/>
		</contour>
		<contour>
			<point x="149" y="222" type="line"/>
			<point x="208" y="476" type="line"/>
			<point x="363" y="476" type="line"/>
			<point x="304" y="222" type="line"/>
		</contour>
	</outline>
</glyph>
<glyph name="bracketleft_bracketleft.cLig" format="2">
	<advance width="600"/>
	<outline>
		<contour>
			<point x="354" y="-119" type="line"/>
			<point x="98" y="-119" type="line"/>
			<point x="219" y="748" type="line"/>
			<point x="476" y="748" type="line"/>
			<point x="482" y="792" type="line"/>
			<point x="174" y="792" type="line"/>
			<point x="39" y="-163" type="line"/>
			<point x="347" y="-163" type="line"/>
		</contour>
		<contour>
			<point x="-44" y="-119" type="line"/>
			<point x="-367" y="-119" type="line"/>
			<point x="-246" y="748" type="line"/>
			<point x="78" y="748" type="line"/>
			<point x="84" y="792" type="line"/>
			<point x="-291" y="792" type="line"/>
			<point x="-426" y="-163" type="line"/>
			<point x="-51" y="-163" type="line"/>
		</contour>
	</outline>
</glyph>
<glyph name="bracketright_bracketright.cLig" format="2">
	<advance width="600"/>
	<outline>
		<contour>
			<point x="-339" y="748" type="line"/>
			<point x="-83" y="748" type="line"/>
			<point x="-204" y="-119" type="line"/>
			<point x="-461" y="-119" type="line"/>
			<point x="-467" y="-163" type="line"/>
			<point x="-159" y="-163" type="line"/>
			<point x="-24" y="792" type="line"/>
			<point x="-332" y="792" type="line"/>
		</contour>
		<contour>
			<point x="59" y="748" type="line"/>
			<point x="382" y="748" type="line"/>
			<point x="261" y="-119" type="line"/>
			<point x="-63" y="-119" type="line"/>
			<point x="-69" y="-163" type="line"/>
			<point x="306" y="-163" type="line"/>
			<point x="441" y="792" type="line"/>
			<point x="66" y="792" type="line"/>
		</contour>
	</outline>
</glyph>
<glyph name="breve.cap" format="2">
	<advance width="600"/>
	<outline>
		<contour>
			<point x="370" y="743" type="curve" smooth="yes"/>
			<point x="463" y="743"/>
			<point x="506" y="783"/>
			<point x="521" y="884" type="curve"/>
			<point x="473" y="884" type="line"/>
			<point x="463" y="810"/>
			<point x="438" y="782"/>
			<point x="372" y="782" type="curve" smooth="yes"/>
			<point x="309" y="782"/>
			<point x="291" y="821"/>
			<point x="300" y="884" type="curve"/>
			<point x="254" y="884" type="line"/>
			<point x="238" y="784"/>
			<point x="287" y="743"/>
		</contour>
	</outline>
	<anchor name="_top" x="359" y="684"/>
</glyph>
<glyph name="colon_colon.cLig" format="2">
	<advance width="600"/>
	<outline>
		<contour>
			<point x="-255" y="-12" type="curve" smooth="yes"/>
			<point x="-214" y="-12"/>
			<point x="-198" y="6"/>
			<point x="-194" y="37" type="curve" smooth="yes"/>
			<point x="-189" y="71"/>
			<point x="-201" y="95"/>
			<point x="-249" y="95" type="curve" smooth="yes"/>
			<point x="-290" y="95"/>
			<point x="-306" y="77"/>
			<point x="-310" y="46" type="curve" smooth="yes"/>
			<point x="-315" y="12"/>
			<point x="-303" y="-12"/>
		</contour>
		<contour>
			<point x="-196" y="410" type="curve" smooth="yes"/>
			<point x="-155" y="410"/>
			<point x="-139" y="428"/>
			<point x="-135" y="459" type="curve" smooth="yes"/>
			<point x="-130" y="493"/>
			<point x="-142" y="517"/>
			<point x="-190" y="517" type="curve" smooth="yes"/>
			<point x="-231" y="517"/>
			<point x="-247" y="499"/>
			<point x="-251" y="468" type="curve" smooth="yes"/>
			<point x="-256" y="434"/>
			<point x="-244" y="410"/>
		</contour>
		<contour>
			<point x="187" y="-12" type="curve" smooth="yes"/>
			<point x="228" y="-12"/>
			<point x="244" y="6"/>
			<point x="248" y="37" type="curve" smooth="yes"/>
			<point x="253" y="71"/>
			<point x="241" y="95"/>
			<point x="193" y="95" type="curve" smooth="yes"/>
			<point x="152" y="95"/>
			<point x="136" y="77"/>
			<point x="132" y="46" type="curve" smooth="yes"/>
			<point x="127" y="12"/>
			<point x="139" y="-12"/>
		</contour>
		<contour>
			<point x="246" y="410" type="curve" smooth="yes"/>
			<point x="287" y="410"/>
			<point x="303" y="428"/>
			<point x="307" y="459" type="curve" smooth="yes"/>
			<point x="312" y="493"/>
			<point x="300" y="517"/>
			<point x="252" y="517" type="curve" smooth="yes"/>
			<point x="211" y="517"/>
			<point x="195" y="499"/>
			<point x="191" y="468" type="curve" smooth="yes"/>
			<point x="186" y="434"/>
			<point x="198" y="410"/>
		</contour>
	</outline>
</glyph>
<glyph name="colon_colon_colon.cLig" format="2">
	<advance width="600"/>
	<outline>
		<contour>
			<point x="-795" y="-12" type="curve" smooth="yes"/>
			<point x="-754" y="-12"/>
			<point x="-738" y="6"/>
			<point x="-734" y="37" type="curve" smooth="yes"/>
			<point x="-729" y="71"/>
			<point x="-741" y="95"/>
			<point x="-789" y="95" type="curve" smooth="yes"/>
			<point x="-830" y="95"/>
			<point x="-846" y="77"/>
			<point x="-850" y="46" type="curve" smooth="yes"/>
			<point x="-855" y="12"/>
			<point x="-843" y="-12"/>
		</contour>
		<contour>
			<point x="-736" y="410" type="curve" smooth="yes"/>
			<point x="-695" y="410"/>
			<point x="-679" y="428"/>
			<point x="-675" y="459" type="curve" smooth="yes"/>
			<point x="-670" y="493"/>
			<point x="-682" y="517"/>
			<point x="-730" y="517" type="curve" smooth="yes"/>
			<point x="-771" y="517"/>
			<point x="-787" y="499"/>
			<point x="-791" y="468" type="curve" smooth="yes"/>
			<point x="-796" y="434"/>
			<point x="-784" y="410"/>
		</contour>
		<contour>
			<point x="-334" y="-12" type="curve" smooth="yes"/>
			<point x="-293" y="-12"/>
			<point x="-277" y="6"/>
			<point x="-273" y="37" type="curve" smooth="yes"/>
			<point x="-268" y="71"/>
			<point x="-280" y="95"/>
			<point x="-328" y="95" type="curve" smooth="yes"/>
			<point x="-369" y="95"/>
			<point x="-385" y="77"/>
			<point x="-389" y="46" type="curve" smooth="yes"/>
			<point x="-394" y="12"/>
			<point x="-382" y="-12"/>
		</contour>
		<contour>
			<point x="-275" y="410" type="curve" smooth="yes"/>
			<point x="-234" y="410"/>
			<point x="-218" y="428"/>
			<point x="-214" y="459" type="curve" smooth="yes"/>
			<point x="-209" y="493"/>
			<point x="-221" y="517"/>
			<point x="-269" y="517" type="curve" smooth="yes"/>
			<point x="-310" y="517"/>
			<point x="-326" y="499"/>
			<point x="-330" y="468" type="curve" smooth="yes"/>
			<point x="-335" y="434"/>
			<point x="-323" y="410"/>
		</contour>
		<contour>
			<point x="127" y="-12" type="curve" smooth="yes"/>
			<point x="168" y="-12"/>
			<point x="184" y="6"/>
			<point x="188" y="37" type="curve" smooth="yes"/>
			<point x="193" y="71"/>
			<point x="181" y="95"/>
			<point x="133" y="95" type="curve" smooth="yes"/>
			<point x="92" y="95"/>
			<point x="76" y="77"/>
			<point x="72" y="46" type="curve" smooth="yes"/>
			<point x="67" y="12"/>
			<point x="79" y="-12"/>
		</contour>
		<contour>
			<point x="186" y="410" type="curve" smooth="yes"/>
			<point x="227" y="410"/>
			<point x="243" y="428"/>
			<point x="247" y="459" type="curve" smooth="yes"/>
			<point x="252" y="493"/>
			<point x="240" y="517"/>
			<point x="192" y="517" type="curve" smooth="yes"/>
			<point x="151" y="517"/>
			<point x="135" y="499"/>
			<point x="131" y="468" type="curve" smooth="yes"/>
			<point x="126" y="434"/>
			<point x="138" y="410"/>
		</contour>
	</outline>
</glyph>
<glyph name="colon_colon_equal.cLig" format="2">
	<advance width="600"/>
	<outline>
		<contour>
			<point x="-867" y="402" type="curve" smooth="yes"/>
			<point x="-826" y="402"/>
			<point x="-810" y="420"/>
			<point x="-806" y="451" type="curve" smooth="yes"/>
			<point x="-801" y="485"/>
			<point x="-813" y="509"/>
			<point x="-861" y="509" type="curve" smooth="yes"/>
			<point x="-902" y="509"/>
			<point x="-918" y="491"/>
			<point x="-922" y="460" type="curve" smooth="yes"/>
			<point x="-927" y="426"/>
			<point x="-915" y="402"/>
		</contour>
		<contour>
			<point x="-513" y="402" type="curve" smooth="yes"/>
			<point x="-472" y="402"/>
			<point x="-456" y="420"/>
			<point x="-452" y="451" type="curve" smooth="yes"/>
			<point x="-447" y="485"/>
			<point x="-459" y="509"/>
			<point x="-507" y="509" type="curve" smooth="yes"/>
			<point x="-548" y="509"/>
			<point x="-564" y="491"/>
			<point x="-568" y="460" type="curve" smooth="yes"/>
			<point x="-573" y="426"/>
			<point x="-561" y="402"/>
		</contour>
		<contour>
			<point x="-197" y="392" type="line"/>
			<point x="353" y="392" type="line"/>
			<point x="360" y="443" type="line"/>
			<point x="-190" y="443" type="line"/>
		</contour>
		<contour>
			<point x="-226" y="185" type="line"/>
			<point x="324" y="185" type="line"/>
			<point x="331" y="236" type="line"/>
			<point x="-219" y="236" type="line"/>
		</contour>
		<contour>
			<point x="-906" y="119" type="curve" smooth="yes"/>
			<point x="-865" y="119"/>
			<point x="-849" y="137"/>
			<point x="-845" y="168" type="curve" smooth="yes"/>
			<point x="-840" y="202"/>
			<point x="-852" y="226"/>
			<point x="-900" y="226" type="curve" smooth="yes"/>
			<point x="-941" y="226"/>
			<point x="-957" y="208"/>
			<point x="-961" y="177" type="curve" smooth="yes"/>
			<point x="-966" y="143"/>
			<point x="-954" y="119"/>
		</contour>
		<contour>
			<point x="-552" y="119" type="curve" smooth="yes"/>
			<point x="-511" y="119"/>
			<point x="-495" y="137"/>
			<point x="-491" y="168" type="curve" smooth="yes"/>
			<point x="-486" y="202"/>
			<point x="-498" y="226"/>
			<point x="-546" y="226" type="curve" smooth="yes"/>
			<point x="-587" y="226"/>
			<point x="-603" y="208"/>
			<point x="-607" y="177" type="curve" smooth="yes"/>
			<point x="-612" y="143"/>
			<point x="-600" y="119"/>
		</contour>
	</outline>
	<guideline x="332" y="255" angle="81"/>
</glyph>
<glyph name="colon_equal.cLig" format="2">
	<advance width="600"/>
	<outline>
		<contour>
			<point x="-322" y="402" type="curve" smooth="yes"/>
			<point x="-281" y="402"/>
			<point x="-265" y="420"/>
			<point x="-261" y="451" type="curve" smooth="yes"/>
			<point x="-256" y="485"/>
			<point x="-268" y="509"/>
			<point x="-316" y="509" type="curve" smooth="yes"/>
			<point x="-357" y="509"/>
			<point x="-373" y="491"/>
			<point x="-377" y="460" type="curve" smooth="yes"/>
			<point x="-382" y="426"/>
			<point x="-370" y="402"/>
		</contour>
		<contour>
			<point x="-73" y="392" type="line"/>
			<point x="433" y="392" type="line"/>
			<point x="440" y="443" type="line"/>
			<point x="-66" y="443" type="line"/>
		</contour>
		<contour>
			<point x="-102" y="185" type="line"/>
			<point x="404" y="185" type="line"/>
			<point x="411" y="236" type="line"/>
			<point x="-95" y="236" type="line"/>
		</contour>
		<contour>
			<point x="-361" y="119" type="curve" smooth="yes"/>
			<point x="-320" y="119"/>
			<point x="-304" y="137"/>
			<point x="-300" y="168" type="curve" smooth="yes"/>
			<point x="-295" y="202"/>
			<point x="-307" y="226"/>
			<point x="-355" y="226" type="curve" smooth="yes"/>
			<point x="-396" y="226"/>
			<point x="-412" y="208"/>
			<point x="-416" y="177" type="curve" smooth="yes"/>
			<point x="-421" y="143"/>
			<point x="-409" y="119"/>
		</contour>
	</outline>
</glyph>
<glyph name="colon_less.cLig.x" format="2">
	<advance width="600"/>
	<outline>
		<contour>
			<point x="382" y="-3" type="line"/>
			<point x="391" y="55" type="line"/>
			<point x="34" y="311" type="line"/>
			<point x="463" y="566" type="line"/>
			<point x="472" y="631" type="line"/>
			<point x="-9" y="344" type="line"/>
			<point x="-17" y="285" type="line"/>
		</contour>
		<contour>
			<point x="-267" y="472" type="curve" smooth="yes"/>
			<point x="-226" y="472"/>
			<point x="-210" y="490"/>
			<point x="-206" y="521" type="curve" smooth="yes"/>
			<point x="-201" y="555"/>
			<point x="-213" y="579"/>
			<point x="-261" y="579" type="curve" smooth="yes"/>
			<point x="-302" y="579"/>
			<point x="-318" y="561"/>
			<point x="-322" y="530" type="curve" smooth="yes"/>
			<point x="-327" y="496"/>
			<point x="-315" y="472"/>
		</contour>
		<contour>
			<point x="-326" y="50" type="curve" smooth="yes"/>
			<point x="-285" y="50"/>
			<point x="-269" y="68"/>
			<point x="-265" y="99" type="curve" smooth="yes"/>
			<point x="-260" y="133"/>
			<point x="-272" y="157"/>
			<point x="-320" y="157" type="curve" smooth="yes"/>
			<point x="-361" y="157"/>
			<point x="-377" y="139"/>
			<point x="-381" y="108" type="curve" smooth="yes"/>
			<point x="-386" y="74"/>
			<point x="-374" y="50"/>
		</contour>
	</outline>
</glyph>
<glyph name="cordinal" format="2">
	<advance width="600"/>
	<outline>
		<contour>
			<point x="373" y="225" type="curve" smooth="yes"/>
			<point x="416" y="225"/>
			<point x="451" y="234"/>
			<point x="475" y="245" type="curve"/>
			<point x="480" y="287" type="line"/>
			<point x="459" y="277"/>
			<point x="421" y="265"/>
			<point x="378" y="265" type="curve" smooth="yes"/>
			<point x="255" y="265"/>
			<point x="181" y="346"/>
			<point x="200" y="480" type="curve" smooth="yes"/>
			<point x="216" y="593"/>
			<point x="289" y="654"/>
			<point x="393" y="654" type="curve" smooth="yes"/>
			<point x="448" y="654"/>
			<point x="498" y="638"/>
			<point x="527" y="619" type="curve"/>
			<point x="533" y="664" type="line"/>
			<point x="506" y="681"/>
			<point x="453" y="695"/>
			<point x="394" y="695" type="curve" smooth="yes"/>
			<point x="263" y="695"/>
			<point x="170" y="617"/>
			<point x="151" y="482" type="curve" smooth="yes"/>
			<point x="128" y="322"/>
			<point x="225" y="225"/>
		</contour>
	</outline>
	<guideline x="560" y="696" angle="82"/>
</glyph>
<glyph name="dotbelow" format="2">
	<advance width="600"/>
	<outline>
		<contour>
			<point x="249" y="-123" type="curve" smooth="yes"/>
			<point x="285" y="-123"/>
			<point x="297" y="-107"/>
			<point x="300" y="-78" type="curve" smooth="yes"/>
			<point x="303" y="-51"/>
			<point x="289" y="-35"/>
			<point x="256" y="-35" type="curve" smooth="yes"/>
			<point x="219" y="-35"/>
			<point x="207" y="-51"/>
			<point x="204" y="-79" type="curve" smooth="yes"/>
			<point x="201" y="-107"/>
			<point x="215" y="-123"/>
		</contour>
	</outline>
	<anchor name="bottom" x="263" y="0"/>
</glyph>
<glyph name="eight.numr" format="2">
	<advance width="600"/>
	<outline>
		<contour>
			<point x="320" y="366" type="curve" smooth="yes"/>
			<point x="403" y="366"/>
			<point x="458" y="407"/>
			<point x="458" y="475" type="curve" smooth="yes"/>
			<point x="458" y="513"/>
			<point x="432" y="539"/>
			<point x="392" y="547" type="curve"/>
			<point x="449" y="559"/>
			<point x="479" y="590"/>
			<point x="479" y="642" type="curve" smooth="yes"/>
			<point x="479" y="696"/>
			<point x="432" y="724"/>
			<point x="363" y="724" type="curve" smooth="yes"/>
			<point x="283" y="724"/>
			<point x="235" y="687"/>
			<point x="235" y="624" type="curve" smooth="yes"/>
			<point x="235" y="586"/>
			<point x="261" y="561"/>
			<point x="293" y="551" type="curve"/>
			<point x="238" y="546"/>
			<point x="199" y="507"/>
			<point x="199" y="453" type="curve" smooth="yes"/>
			<point x="199" y="389"/>
			<point x="254" y="366"/>
		</contour>
		<contour>
			<point x="351" y="567" type="curve" smooth="yes"/>
			<point x="302" y="567"/>
			<point x="276" y="591"/>
			<point x="276" y="627" type="curve" smooth="yes"/>
			<point x="276" y="672"/>
			<point x="305" y="691"/>
			<point x="360" y="691" type="curve" smooth="yes"/>
			<point x="404" y="691"/>
			<point x="438" y="679"/>
			<point x="438" y="639" type="curve" smooth="yes"/>
			<point x="438" y="594"/>
			<point x="405" y="567"/>
		</contour>
		<contour>
			<point x="322" y="399" type="curve" smooth="yes"/>
			<point x="277" y="399"/>
			<point x="241" y="414"/>
			<point x="241" y="457" type="curve" smooth="yes"/>
			<point x="241" y="504"/>
			<point x="272" y="530"/>
			<point x="334" y="530" type="curve" smooth="yes"/>
			<point x="388" y="530"/>
			<point x="416" y="511"/>
			<point x="416" y="473" type="curve" smooth="yes"/>
			<point x="416" y="425"/>
			<point x="382" y="399"/>
		</contour>
	</outline>
</glyph>
<glyph name="equal.fina" format="2">
	<advance width="600"/>
	<outline>
		<contour>
			<point x="19" y="392" type="line"/>
			<point x="439" y="392" type="line"/>
			<point x="446" y="443" type="line"/>
			<point x="26" y="443" type="line"/>
		</contour>
		<contour>
			<point x="-10" y="186" type="line"/>
			<point x="410" y="186" type="line"/>
			<point x="417" y="237" type="line"/>
			<point x="-3" y="237" type="line"/>
		</contour>
	</outline>
</glyph>
<glyph name="equal.init" format="2">
	<advance width="600"/>
	<outline>
		<contour>
			<point x="198" y="392" type="line"/>
			<point x="618" y="392" type="line"/>
			<point x="625" y="443" type="line"/>
			<point x="205" y="443" type="line"/>
		</contour>
		<contour>
			<point x="169" y="186" type="line"/>
			<point x="589" y="186" type="line"/>
			<point x="596" y="237" type="line"/>
			<point x="176" y="237" type="line"/>
		</contour>
	</outline>
</glyph>
<glyph name="equal_equal.cLig" format="2">
	<advance width="600"/>
	<outline>
		<contour>
			<point x="-402" y="392" type="line"/>
			<point x="437" y="392" type="line"/>
			<point x="444" y="443" type="line"/>
			<point x="-395" y="443" type="line"/>
		</contour>
		<contour>
			<point x="-430" y="185" type="line"/>
			<point x="409" y="185" type="line"/>
			<point x="416" y="236" type="line"/>
			<point x="-423" y="236" type="line"/>
		</contour>
	</outline>
</glyph>
<glyph name="equal_equal_equal.cLig" format="2">
	<advance width="600"/>
	<outline>
		<contour>
			<point x="-1017" y="488" type="line"/>
			<point x="482" y="488" type="line"/>
			<point x="489" y="539" type="line"/>
			<point x="-1010" y="539" type="line"/>
		</contour>
		<contour>
			<point x="-1046" y="288" type="line"/>
			<point x="453" y="288" type="line"/>
			<point x="461" y="339" type="line"/>
			<point x="-1038" y="339" type="line"/>
		</contour>
		<contour>
			<point x="-1074" y="88" type="line"/>
			<point x="425" y="88" type="line"/>
			<point x="432" y="139" type="line"/>
			<point x="-1067" y="139" type="line"/>
		</contour>
	</outline>
</glyph>
<glyph name="equal_equal_greater.rem" format="2">
	<advance width="600"/>
	<outline>
		<contour>
			<point x="-1030" y="186" type="line"/>
			<point x="263" y="186" type="line"/>
			<point x="68" y="0" type="line"/>
			<point x="139" y="0" type="line"/>
			<point x="467" y="313" type="line"/>
			<point x="224" y="629" type="line"/>
			<point x="161" y="629" type="line"/>
			<point x="304" y="443" type="line"/>
			<point x="-994" y="443" type="line"/>
			<point x="-1001" y="392" type="line"/>
			<point x="343" y="392" type="line"/>
			<point x="401" y="317" type="line"/>
			<point x="317" y="237" type="line"/>
			<point x="-1022" y="237" type="line"/>
		</contour>
	</outline>
</glyph>
<glyph name="equal_less.rem" format="2">
	<advance width="600"/>
	<outline>
		<contour>
			<point x="416" y="237" type="line"/>
			<point x="-338" y="237" type="line"/>
			<point x="-396" y="312" type="line"/>
			<point x="-312" y="392" type="line"/>
			<point x="438" y="392" type="line"/>
			<point x="445" y="443" type="line"/>
			<point x="-258" y="443" type="line"/>
			<point x="-63" y="629" type="line"/>
			<point x="-134" y="629" type="line"/>
			<point x="-462" y="316" type="line"/>
			<point x="-219" y="0" type="line"/>
			<point x="-156" y="0" type="line"/>
			<point x="-299" y="186" type="line"/>
			<point x="409" y="186" type="line"/>
		</contour>
	</outline>
</glyph>
<glyph name="equal_less_less.rem" format="2">
	<advance width="600"/>
	<outline>
		<contour>
			<point x="542" y="629" type="line"/>
			<point x="470" y="629" type="line"/>
			<point x="145" y="316" type="line"/>
			<point x="390" y="0" type="line"/>
			<point x="453" y="0" type="line"/>
			<point x="211" y="311" type="line"/>
		</contour>
		<contour>
			<point x="170" y="629" type="line"/>
			<point x="99" y="629" type="line"/>
			<point x="-94" y="443" type="line"/>
			<point x="-994" y="443" type="line"/>
			<point x="-1001" y="392" type="line"/>
			<point x="-74" y="392" type="line"/>
		</contour>
		<contour>
			<point x="-95" y="237" type="line"/>
			<point x="-1023" y="237" type="line"/>
			<point x="-1030" y="186" type="line"/>
			<point x="-120" y="186" type="line"/>
			<point x="22" y="0" type="line"/>
			<point x="85" y="0" type="line"/>
		</contour>
	</outline>
</glyph>
<glyph name="exclam_asciitilde.cLig" format="2">
	<advance width="600"/>
	<outline>
		<contour>
			<point x="-309" y="-72" type="line"/>
			<point x="-251" y="-72" type="line"/>
			<point x="-53" y="185" type="line"/>
			<point x="309" y="185" type="line"/>
			<point x="316" y="236" type="line"/>
			<point x="-14" y="236" type="line"/>
			<point x="74" y="350" type="line"/>
			<point x="101" y="339"/>
			<point x="129" y="331"/>
			<point x="162" y="331" type="curve" smooth="yes"/>
			<point x="238" y="331"/>
			<point x="300" y="360"/>
			<point x="341" y="412" type="curve"/>
			<point x="350" y="478" type="line"/>
			<point x="284" y="399"/>
			<point x="225" y="378"/>
			<point x="162" y="380" type="curve" smooth="yes"/>
			<point x="142" y="381"/>
			<point x="124" y="385"/>
			<point x="107" y="392" type="curve"/>
			<point x="307" y="652" type="line"/>
			<point x="249" y="652" type="line"/>
			<point x="65" y="413" type="line"/>
			<point x="7" y="447"/>
			<point x="-48" y="496"/>
			<point x="-133" y="496" type="curve" smooth="yes"/>
			<point x="-199" y="496"/>
			<point x="-258" y="467"/>
			<point x="-298" y="416" type="curve"/>
			<point x="-308" y="349" type="line"/>
			<point x="-252" y="422"/>
			<point x="-195" y="447"/>
			<point x="-136" y="447" type="curve" smooth="yes"/>
			<point x="-71" y="447"/>
			<point x="-23" y="405"/>
			<point x="33" y="372" type="curve"/>
			<point x="-72" y="236" type="line"/>
			<point x="-324" y="236" type="line"/>
			<point x="-331" y="185" type="line"/>
			<point x="-111" y="185" type="line"/>
		</contour>
	</outline>
</glyph>
<glyph name="exclam_exclam_period.cLig" format="2">
	<advance width="600"/>
	<outline>
		<contour>
			<point x="-825" y="182" type="line"/>
			<point x="-785" y="182" type="line"/>
			<point x="-726" y="529" type="line"/>
			<point x="-704" y="684" type="line"/>
			<point x="-765" y="684" type="line"/>
			<point x="-787" y="530" type="line"/>
		</contour>
		<contour>
			<point x="-826" y="-12" type="curve" smooth="yes"/>
			<point x="-788" y="-12"/>
			<point x="-774" y="4"/>
			<point x="-771" y="34" type="curve" smooth="yes"/>
			<point x="-768" y="62"/>
			<point x="-779" y="84"/>
			<point x="-821" y="84" type="curve" smooth="yes"/>
			<point x="-859" y="84"/>
			<point x="-873" y="67"/>
			<point x="-876" y="38" type="curve" smooth="yes"/>
			<point x="-879" y="9"/>
			<point x="-868" y="-12"/>
		</contour>
		<contour>
			<point x="-332" y="182" type="line"/>
			<point x="-292" y="182" type="line"/>
			<point x="-233" y="529" type="line"/>
			<point x="-211" y="684" type="line"/>
			<point x="-272" y="684" type="line"/>
			<point x="-294" y="530" type="line"/>
		</contour>
		<contour>
			<point x="-333" y="-12" type="curve" smooth="yes"/>
			<point x="-295" y="-12"/>
			<point x="-281" y="4"/>
			<point x="-278" y="34" type="curve" smooth="yes"/>
			<point x="-275" y="62"/>
			<point x="-286" y="84"/>
			<point x="-328" y="84" type="curve" smooth="yes"/>
			<point x="-366" y="84"/>
			<point x="-380" y="67"/>
			<point x="-383" y="38" type="curve" smooth="yes"/>
			<point x="-386" y="9"/>
			<point x="-375" y="-12"/>
		</contour>
		<contour>
			<point x="162" y="-12" type="curve" smooth="yes"/>
			<point x="203" y="-12"/>
			<point x="219" y="6"/>
			<point x="223" y="37" type="curve" smooth="yes"/>
			<point x="228" y="71"/>
			<point x="216" y="95"/>
			<point x="168" y="95" type="curve" smooth="yes"/>
			<point x="127" y="95"/>
			<point x="111" y="77"/>
			<point x="107" y="46" type="curve" smooth="yes"/>
			<point x="102" y="12"/>
			<point x="114" y="-12"/>
		</contour>
	</outline>
</glyph>
<glyph name="five.den" format="2">
	<advance width="600"/>
	<outline>
		<contour>
			<point x="265" y="-8" type="curve" smooth="yes"/>
			<point x="361" y="-8"/>
			<point x="422" y="52"/>
			<point x="420" y="142" type="curve" smooth="yes"/>
			<point x="418" y="216"/>
			<point x="373" y="248"/>
			<point x="290" y="248" type="curve" smooth="yes"/>
			<point x="261" y="248"/>
			<point x="235" y="244"/>
			<point x="214" y="237" type="curve"/>
			<point x="232" y="372" type="line"/>
			<point x="444" y="372" type="line"/>
			<point x="449" y="410" type="line"/>
			<point x="197" y="410" type="line"/>
			<point x="165" y="189" type="line"/>
			<point x="201" y="202"/>
			<point x="233" y="211"/>
			<point x="274" y="211" type="curve" smooth="yes"/>
			<point x="343" y="211"/>
			<point x="374" y="187"/>
			<point x="375" y="136" type="curve" smooth="yes"/>
			<point x="377" y="77"/>
			<point x="338" y="31"/>
			<point x="264" y="31" type="curve" smooth="yes"/>
			<point x="220" y="31"/>
			<point x="177" y="46"/>
			<point x="138" y="84" type="curve"/>
			<point x="132" y="41" type="line"/>
			<point x="164" y="11"/>
			<point x="209" y="-8"/>
		</contour>
	</outline>
</glyph>
<glyph name="four.den" format="2">
	<advance width="600"/>
	<outline>
		<contour>
			<point x="322" y="0" type="line"/>
			<point x="366" y="0" type="line"/>
			<point x="379" y="88" type="line"/>
			<point x="430" y="88" type="line"/>
			<point x="435" y="127" type="line"/>
			<point x="384" y="127" type="line"/>
			<point x="424" y="412" type="line"/>
			<point x="363" y="412" type="line"/>
			<point x="123" y="127" type="line"/>
			<point x="117" y="88" type="line"/>
			<point x="335" y="88" type="line"/>
		</contour>
		<contour>
			<point x="172" y="127" type="line"/>
			<point x="374" y="369" type="line"/>
			<point x="340" y="127" type="line"/>
		</contour>
	</outline>
</glyph>
<glyph name="greater_equal.cLig" format="2">
	<advance width="600"/>
	<outline>
		<contour>
			<point x="-299" y="191" type="line"/>
			<point x="334" y="436" type="line"/>
			<point x="343" y="495" type="line"/>
			<point x="-222" y="740" type="line"/>
			<point x="-230" y="686" type="line"/>
			<point x="285" y="467" type="line"/>
			<point x="-291" y="251" type="line"/>
		</contour>
		<contour>
			<point x="-334" y="-56" type="line"/>
			<point x="299" y="189" type="line"/>
			<point x="307" y="245" type="line"/>
			<point x="-326" y="0" type="line"/>
		</contour>
	</outline>
</glyph>
<glyph name="greater_equal.med" format="2">
	<advance width="600"/>
	<outline>
		<contour>
			<point x="112" y="0" type="line"/>
			<point x="184" y="0" type="line"/>
			<point x="378" y="186" type="line"/>
			<point x="589" y="186" type="line"/>
			<point x="596" y="237" type="line"/>
			<point x="431" y="237" type="line"/>
			<point x="511" y="314" type="line"/>
			<point x="449" y="392" type="line"/>
			<point x="618" y="392" type="line"/>
			<point x="625" y="443" type="line"/>
			<point x="409" y="443" type="line"/>
			<point x="262" y="629" type="line"/>
			<point x="197" y="629" type="line"/>
			<point x="345" y="443" type="line"/>
			<point x="26" y="443" type="line"/>
			<point x="19" y="392" type="line"/>
			<point x="385" y="392" type="line"/>
			<point x="443" y="319" type="line"/>
			<point x="359" y="237" type="line"/>
			<point x="-3" y="237" type="line"/>
			<point x="-10" y="186" type="line"/>
			<point x="305" y="186" type="line"/>
		</contour>
	</outline>
</glyph>
<glyph name="greater_equal.rem" format="2">
	<advance width="600"/>
	<outline>
		<contour>
			<point x="-248" y="392" type="line"/>
			<point x="468" y="392" type="line"/>
			<point x="475" y="443" type="line"/>
			<point x="-223" y="443" type="line"/>
			<point x="-365" y="629" type="line"/>
			<point x="-428" y="629" type="line"/>
		</contour>
		<contour>
			<point x="-513" y="0" type="line"/>
			<point x="-442" y="0" type="line"/>
			<point x="-249" y="186" type="line"/>
			<point x="439" y="186" type="line"/>
			<point x="446" y="237" type="line"/>
			<point x="-269" y="237" type="line"/>
		</contour>
	</outline>
</glyph>
<glyph name="greater_equal_greater.rem" format="2">
	<advance width="600"/>
	<outline>
		<contour>
			<point x="-1088" y="0" type="line"/>
			<point x="-1017" y="0" type="line"/>
			<point x="-824" y="186" type="line"/>
			<point x="288" y="186" type="line"/>
			<point x="93" y="0" type="line"/>
			<point x="164" y="0" type="line"/>
			<point x="492" y="313" type="line"/>
			<point x="249" y="629" type="line"/>
			<point x="186" y="629" type="line"/>
			<point x="329" y="443" type="line"/>
			<point x="-798" y="443" type="line"/>
			<point x="-940" y="629" type="line"/>
			<point x="-1003" y="629" type="line"/>
			<point x="-823" y="392" type="line"/>
			<point x="368" y="392" type="line"/>
			<point x="426" y="317" type="line"/>
			<point x="342" y="237" type="line"/>
			<point x="-844" y="237" type="line"/>
		</contour>
	</outline>
</glyph>
<glyph name="greater_greater_equal.fina" format="2">
	<advance width="600"/>
	<outline>
		<contour>
			<point x="74" y="0" type="line"/>
			<point x="146" y="0" type="line"/>
			<point x="477" y="314" type="line"/>
			<point x="232" y="629" type="line"/>
			<point x="167" y="629" type="line"/>
			<point x="409" y="318" type="line"/>
		</contour>
		<contour>
			<point x="-610" y="186" type="line"/>
			<point x="-97" y="186" type="line"/>
			<point x="-292" y="0" type="line"/>
			<point x="-221" y="0" type="line"/>
			<point x="107" y="313" type="line"/>
			<point x="-136" y="629" type="line"/>
			<point x="-199" y="629" type="line"/>
			<point x="-56" y="443" type="line"/>
			<point x="-574" y="443" type="line"/>
			<point x="-581" y="392" type="line"/>
			<point x="-17" y="392" type="line"/>
			<point x="41" y="317" type="line"/>
			<point x="-43" y="237" type="line"/>
			<point x="-603" y="237" type="line"/>
		</contour>
	</outline>
</glyph>
<glyph name="greater_greater_equal.init" format="2">
	<advance width="600"/>
	<outline>
		<contour>
			<point x="-547" y="0" type="line"/>
			<point x="-475" y="0" type="line"/>
			<point x="-150" y="313" type="line"/>
			<point x="-395" y="629" type="line"/>
			<point x="-458" y="629" type="line"/>
			<point x="-216" y="318" type="line"/>
		</contour>
		<contour>
			<point x="90" y="392" type="line"/>
			<point x="618" y="392" type="line"/>
			<point x="625" y="443" type="line"/>
			<point x="115" y="443" type="line"/>
			<point x="-27" y="629" type="line"/>
			<point x="-90" y="629" type="line"/>
		</contour>
		<contour>
			<point x="-175" y="0" type="line"/>
			<point x="-104" y="0" type="line"/>
			<point x="89" y="186" type="line"/>
			<point x="589" y="186" type="line"/>
			<point x="596" y="237" type="line"/>
			<point x="69" y="237" type="line"/>
		</contour>
	</outline>
	<guideline x="-458" y="629" angle="81"/>
</glyph>
<glyph name="greater_greater_hyphen.med" format="2">
	<advance width="600"/>
	<outline>
		<contour>
			<point x="-110" y="0" type="line"/>
			<point x="-36" y="0" type="line"/>
			<point x="265" y="289" type="line"/>
			<point x="603" y="289" type="line"/>
			<point x="611" y="340" type="line"/>
			<point x="270" y="340" type="line"/>
			<point x="40" y="629" type="line"/>
			<point x="-25" y="629" type="line"/>
			<point x="223" y="318" type="line"/>
		</contour>
		<contour>
			<point x="-169" y="340" type="line"/>
			<point x="-589" y="340" type="line"/>
			<point x="-596" y="289" type="line"/>
			<point x="-180" y="288" type="line"/>
			<point x="-483" y="0" type="line"/>
			<point x="-410" y="0" type="line"/>
			<point x="-83" y="314" type="line"/>
			<point x="-326" y="629" type="line"/>
			<point x="-390" y="629" type="line"/>
			<point x="-167" y="339" type="line"/>
			<point x="-169" y="339" type="line"/>
		</contour>
	</outline>
</glyph>
<glyph name="greater_hyphen.fina" format="2">
	<advance width="600"/>
	<outline>
		<contour>
			<point x="210" y="629" type="line"/>
			<point x="433" y="339" type="line"/>
			<point x="11" y="340" type="line"/>
			<point x="4" y="289" type="line"/>
			<point x="420" y="288" type="line"/>
			<point x="117" y="0" type="line"/>
			<point x="190" y="0" type="line"/>
			<point x="517" y="314" type="line"/>
			<point x="274" y="629" type="line"/>
		</contour>
	</outline>
</glyph>
<glyph name="greater_hyphen.init" format="2">
	<advance width="600"/>
	<outline>
		<contour>
			<point x="51" y="0" type="line"/>
			<point x="124" y="0" type="line"/>
			<point x="425" y="289" type="line"/>
			<point x="604" y="289" type="line"/>
			<point x="611" y="340" type="line"/>
			<point x="430" y="340" type="line"/>
			<point x="200" y="629" type="line"/>
			<point x="136" y="629" type="line"/>
			<point x="384" y="318" type="line"/>
		</contour>
	</outline>
</glyph>
<glyph name="greater_hyphen.med" format="2">
	<advance width="600"/>
	<outline>
		<contour>
			<point x="210" y="629" type="line"/>
			<point x="433" y="339" type="line"/>
			<point x="11" y="340" type="line"/>
			<point x="4" y="289" type="line"/>
			<point x="420" y="288" type="line"/>
			<point x="117" y="0" type="line"/>
			<point x="190" y="0" type="line"/>
			<point x="491" y="289" type="line"/>
			<point x="604" y="289" type="line"/>
			<point x="611" y="340" type="line"/>
			<point x="497" y="340" type="line"/>
			<point x="274" y="629" type="line"/>
		</contour>
	</outline>
</glyph>
<glyph name="hyphen.init" format="2">
	<advance width="600"/>
	<outline>
		<contour>
			<point x="611" y="340" type="line"/>
			<point x="191" y="340" type="line"/>
			<point x="184" y="289" type="line"/>
			<point x="604" y="289" type="line"/>
		</contour>
	</outline>
	<guideline x="191" y="340" angle="82"/>
</glyph>
<glyph name="hyphen.med" format="2">
	<advance width="600"/>
	<outline>
		<contour>
			<point x="611" y="340" type="line"/>
			<point x="11" y="340" type="line"/>
			<point x="4" y="289" type="line"/>
			<point x="604" y="289" type="line"/>
		</contour>
	</outline>
</glyph>
<glyph name="hyphen_braceright.rem" format="2">
	<advance width="600"/>
	<outline>
		<contour>
			<point x="-32" y="-163" type="line"/>
			<point x="100" y="-163" type="line" smooth="yes"/>
			<point x="217" y="-163"/>
			<point x="276" y="-111"/>
			<point x="276" y="-28" type="curve" smooth="yes"/>
			<point x="276" y="56"/>
			<point x="201" y="140"/>
			<point x="201" y="208" type="curve" smooth="yes"/>
			<point x="201" y="255"/>
			<point x="235" y="288"/>
			<point x="300" y="288" type="curve" smooth="yes"/>
			<point x="368" y="288" type="line"/>
			<point x="376" y="342" type="line"/>
			<point x="284" y="342" type="line" smooth="yes"/>
			<point x="249" y="342"/>
			<point x="230" y="369"/>
			<point x="230" y="400" type="curve" smooth="yes"/>
			<point x="230" y="479"/>
			<point x="376" y="543"/>
			<point x="376" y="667" type="curve" smooth="yes"/>
			<point x="376" y="733"/>
			<point x="337" y="792"/>
			<point x="223" y="792" type="curve" smooth="yes"/>
			<point x="102" y="792" type="line"/>
			<point x="96" y="748" type="line"/>
			<point x="218" y="748" type="line" smooth="yes"/>
			<point x="286" y="748"/>
			<point x="322" y="721"/>
			<point x="322" y="665" type="curve" smooth="yes"/>
			<point x="322" y="558"/>
			<point x="177" y="504"/>
			<point x="177" y="400" type="curve" smooth="yes"/>
			<point x="177" y="364"/>
			<point x="196" y="349"/>
			<point x="221" y="338" type="curve"/>
			<point x="-408" y="338" type="line"/>
			<point x="-416" y="291" type="line"/>
			<point x="212" y="291" type="line"/>
			<point x="177" y="278"/>
			<point x="148" y="254"/>
			<point x="148" y="206" type="curve" smooth="yes"/>
			<point x="148" y="133"/>
			<point x="222" y="51"/>
			<point x="222" y="-28" type="curve" smooth="yes"/>
			<point x="222" y="-99"/>
			<point x="171" y="-119"/>
			<point x="99" y="-119" type="curve" smooth="yes"/>
			<point x="-25" y="-119" type="line"/>
		</contour>
	</outline>
</glyph>
<glyph name="hyphen_greater_greater.rem" format="2">
	<advance width="600"/>
	<outline>
		<contour>
			<point x="81" y="0" type="line"/>
			<point x="153" y="0" type="line"/>
			<point x="477" y="313" type="line"/>
			<point x="229" y="629" type="line"/>
			<point x="166" y="629" type="line"/>
			<point x="409" y="317" type="line"/>
		</contour>
		<contour>
			<point x="-1029" y="340" type="line"/>
			<point x="-1036" y="289" type="line"/>
			<point x="-452" y="289" type="line"/>
			<point x="-36" y="288" type="line"/>
			<point x="-339" y="0" type="line"/>
			<point x="-266" y="0" type="line"/>
			<point x="61" y="314" type="line"/>
			<point x="-182" y="629" type="line"/>
			<point x="-246" y="629" type="line"/>
			<point x="-23" y="339" type="line"/>
			<point x="-355" y="340" type="line"/>
		</contour>
	</outline>
</glyph>
<glyph name="hyphen_less_less.rem" format="2">
	<advance width="600"/>
	<outline>
		<contour>
			<point x="498" y="629" type="line"/>
			<point x="426" y="629" type="line"/>
			<point x="101" y="315" type="line"/>
			<point x="349" y="0" type="line"/>
			<point x="413" y="0" type="line"/>
			<point x="168" y="311" type="line"/>
		</contour>
		<contour>
			<point x="123" y="629" type="line"/>
			<point x="50" y="629" type="line"/>
			<point x="-251" y="340" type="line"/>
			<point x="-1069" y="340" type="line"/>
			<point x="-1076" y="289" type="line"/>
			<point x="-256" y="289" type="line"/>
			<point x="-26" y="0" type="line"/>
			<point x="38" y="0" type="line"/>
			<point x="-210" y="311" type="line"/>
		</contour>
	</outline>
</glyph>
<glyph name="k.ss01" format="2">
	<advance width="600"/>
	<outline>
		<contour>
			<point x="91" y="0" type="line"/>
			<point x="144" y="0" type="line"/>
			<point x="164" y="136" type="line"/>
			<point x="289" y="263" type="line"/>
			<point x="420" y="0" type="line"/>
			<point x="480" y="0" type="line"/>
			<point x="331" y="299" type="line"/>
			<point x="546" y="523" type="line"/>
			<point x="478" y="523" type="line"/>
			<point x="172" y="200" type="line"/>
			<point x="248" y="732" type="line"/>
			<point x="195" y="732" type="line"/>
		</contour>
	</outline>
	<anchor name="bottom" x="272" y="0"/>
</glyph>
<glyph name="less_asciitilde.cLig" format="2">
	<advance width="600"/>
	<outline>
		<contour>
			<point x="-170" y="0" type="line"/>
			<point x="-393" y="290" type="line"/>
			<point x="-236" y="290" type="line"/>
			<point x="-236" y="289" type="line"/>
			<point x="124" y="289" type="line"/>
			<point x="135" y="336"/>
			<point x="156" y="363"/>
			<point x="196" y="363" type="curve" smooth="yes"/>
			<point x="270" y="363"/>
			<point x="283" y="228"/>
			<point x="387" y="228" type="curve" smooth="yes"/>
			<point x="450" y="228"/>
			<point x="503" y="266"/>
			<point x="520" y="392" type="curve"/>
			<point x="467" y="392" type="line"/>
			<point x="456" y="313"/>
			<point x="434" y="278"/>
			<point x="389" y="278" type="curve" smooth="yes"/>
			<point x="318" y="278"/>
			<point x="303" y="414"/>
			<point x="197" y="414" type="curve" smooth="yes"/>
			<point x="146" y="414"/>
			<point x="109" y="385"/>
			<point x="90" y="340" type="curve"/>
			<point x="36" y="340" type="line"/>
			<point x="-380" y="341" type="line"/>
			<point x="-77" y="629" type="line"/>
			<point x="-150" y="629" type="line"/>
			<point x="-477" y="315" type="line"/>
			<point x="-234" y="0" type="line"/>
		</contour>
	</outline>
</glyph>
<glyph name="less_asterisk_greater.cLig" format="2">
	<advance width="600"/>
	<outline>
		<contour>
			<point x="2" y="-2" type="line"/>
			<point x="483" y="284" type="line"/>
			<point x="491" y="343" type="line"/>
			<point x="92" y="632" type="line"/>
			<point x="84" y="576" type="line"/>
			<point x="442" y="318" type="line"/>
			<point x="11" y="62" type="line"/>
		</contour>
		<contour>
			<point x="-678" y="-3" type="line"/>
			<point x="-670" y="54" type="line"/>
			<point x="-1027" y="311" type="line"/>
			<point x="-597" y="567" type="line"/>
			<point x="-588" y="631" type="line"/>
			<point x="-1069" y="343" type="line"/>
			<point x="-1077" y="284" type="line"/>
		</contour>
		<contour>
			<point x="-498" y="174" type="line"/>
			<point x="-312" y="286" type="line"/>
			<point x="-353" y="83" type="line"/>
			<point x="-289" y="83" type="line"/>
			<point x="-273" y="286" type="line"/>
			<point x="-121" y="175" type="line"/>
			<point x="-81" y="230" type="line"/>
			<point x="-249" y="320" type="line"/>
			<point x="-55" y="411" type="line"/>
			<point x="-79" y="466" type="line"/>
			<point x="-264" y="354" type="line"/>
			<point x="-224" y="556" type="line"/>
			<point x="-288" y="556" type="line"/>
			<point x="-303" y="353" type="line"/>
			<point x="-458" y="466" type="line"/>
			<point x="-498" y="411" type="line"/>
			<point x="-328" y="320" type="line"/>
			<point x="-522" y="229" type="line"/>
		</contour>
	</outline>
</glyph>
<glyph name="less_bar.cLig" format="2">
	<advance width="600"/>
	<outline>
		<contour>
			<point x="312" y="708" type="line"/>
			<point x="260" y="708" type="line"/>
			<point x="-348" y="345" type="line"/>
			<point x="-356" y="286" type="line"/>
			<point x="150" y="-79" type="line"/>
			<point x="202" y="-79" type="line"/>
		</contour>
		<contour>
			<point x="158" y="-23" type="line"/>
			<point x="-308" y="312" type="line"/>
			<point x="251" y="645" type="line"/>
		</contour>
	</outline>
</glyph>
